<svg width="267" height="236" viewBox="0 0 267 236" fill="none" xmlns="http://www.w3.org/2000/svg">
<path fill-rule="evenodd" clip-rule="evenodd" d="M132.5 0C135.828 0 138.526 2.62365 138.526 5.86143C138.526 9.09829 135.828 11.7219 132.5 11.7219C129.172 11.7219 126.475 9.09829 126.475 5.86143C126.475 2.62365 129.172 0 132.5 0Z" fill="#C3A464"/>
<path fill-rule="evenodd" clip-rule="evenodd" d="M130.05 15.0082L129.82 14.8404C127.986 14.331 125.552 13.2741 124.392 11.8638V22.083H110.926L106.105 27.1797C112.87 27.1797 119.633 27.1797 126.398 27.1797C128.263 27.2412 130.046 25.7187 130.05 23.6597V15.0082Z" fill="#C3A464"/>
<path fill-rule="evenodd" clip-rule="evenodd" d="M134.844 15.0082L135.075 14.8404C136.908 14.331 139.341 13.2741 140.501 11.8638V22.083H153.967L158.788 27.1797C152.024 27.1797 145.26 27.1797 138.496 27.1797C136.63 27.2412 134.848 25.7187 134.844 23.6597V15.0082Z" fill="#C3A464"/>
<path fill-rule="evenodd" clip-rule="evenodd" d="M99.8778 31.3865C99.89 31.386 99.9012 31.3865 99.913 31.3865C108.764 31.3865 117.638 31.3865 126.489 31.3865C128.438 31.4261 130.099 32.8427 130.103 34.9116L129.85 86.6968H123.982V37.2479H102.171C101.719 51.4022 90.7076 61.3368 76.7157 61.5521C78.2856 101.527 95.8153 136.915 132.392 166.828L132.501 166.738L132.609 166.828C169.186 136.915 186.716 101.527 188.286 61.5521C174.294 61.3368 163.282 51.4022 162.831 37.2479H140.913V86.6968H135.044L134.793 34.9116C134.795 32.8427 136.458 31.4261 138.406 31.3865C147.256 31.3865 156.238 31.3865 165.089 31.3865C165.1 31.3865 165.112 31.386 165.122 31.3865C166.993 31.4584 168.515 32.8698 168.636 34.8985C168.912 49.0079 177.684 55.3324 190.492 56.6296C190.511 56.6309 190.539 56.6333 190.548 56.6352C192.602 56.8281 194.155 58.3209 194.089 60.213C194.088 60.2459 194.086 60.2777 194.084 60.31C192.346 100.537 176.453 137.563 135.509 171.882C134.61 172.592 134.088 173.074 132.76 173.269V173.306L132.609 173.288L132.5 173.301L132.392 173.288L132.242 173.306V173.269C130.913 173.074 130.392 172.592 129.492 171.882C88.5487 137.563 72.6551 100.537 70.9166 60.31C70.9147 60.2777 70.9141 60.2459 70.9122 60.213C70.8461 58.3209 72.4 56.8281 74.4537 56.6352C74.4616 56.6333 74.4899 56.6302 74.5091 56.6296C87.3178 55.3324 96.0885 49.0079 96.3658 34.8985C96.4869 32.8698 98.0081 31.4584 99.8778 31.3865ZM124.033 100.24H129.733V135.241C129.733 136.752 130.988 140.121 132.555 140.121C134.12 140.121 135.268 136.762 135.268 135.241V100.24H140.968V134.577C140.968 139.135 137.255 147.113 132.555 147.113C127.853 147.113 124.033 139.149 124.033 134.577V100.24Z" fill="#C3A464"/>
<path fill-rule="evenodd" clip-rule="evenodd" d="M109.926 54.1636H119.122V60.0131L112.388 60.0149V90.5012H139.27C147.89 90.5012 155.568 83.6408 155.568 75.2547C155.568 68.6549 151.834 61.9435 145.771 59.835V54.1707C155.277 56.4017 161.756 65.4379 161.756 75.3454C161.756 82.8279 157.027 89.7202 150.415 93.5196C156.928 95.102 160.365 99.355 160.375 110.169V110.209V121.904L160.349 122.33C160.153 123.881 158.91 125.128 157.335 125.377C155.76 125.128 154.517 123.882 154.322 122.33L154.295 121.904V112.019V111.969C154.295 99.4295 148.902 96.8033 139.95 96.4305C139.783 96.4342 139.613 96.4368 139.449 96.4368H112.388V121.898C112.388 123.639 111.067 125.101 109.349 125.372H109.348L109.287 125.363L109.268 125.359L109.199 125.345L109.188 125.344L109.111 125.327H109.11L109.031 125.308L109.024 125.307L108.953 125.288L108.938 125.283L108.877 125.266L108.853 125.259L108.8 125.243L108.769 125.231L108.725 125.217L108.685 125.203L108.65 125.191L108.602 125.172L108.575 125.162L108.521 125.14L108.502 125.132L108.44 125.106L108.43 125.101L108.361 125.069L108.359 125.067L108.288 125.034L108.283 125.032L108.218 124.998L108.205 124.992L108.149 124.961L108.129 124.95L108.081 124.923L108.053 124.907L108.013 124.882L107.979 124.861L107.947 124.841L107.906 124.815L107.882 124.799L107.835 124.766L107.818 124.754L107.764 124.716L107.754 124.708L107.696 124.665L107.693 124.662L107.631 124.614L107.627 124.612L107.571 124.566L107.562 124.557L107.513 124.515L107.497 124.501L107.455 124.464L107.433 124.443L107.399 124.411L107.371 124.384L107.311 124.324H107.31L107.289 124.302L107.251 124.261L107.196 124.201L107.192 124.198L107.184 124.188L107.136 124.135L107.133 124.13L107.084 124.071L107.082 124.068L107.036 124.011L107.03 124.002L107.023 123.993L106.978 123.933L106.945 123.887L106.928 123.864L106.901 123.823L106.88 123.792L106.858 123.759L106.834 123.721L106.817 123.693L106.789 123.647L106.777 123.628L106.746 123.573L106.739 123.56L106.705 123.498L106.702 123.492L106.667 123.424L106.666 123.422L106.633 123.354L106.628 123.344L106.618 123.321L106.593 123.265L106.57 123.212L106.559 123.186L106.541 123.14L106.528 123.107L106.513 123.067L106.499 123.025L106.488 122.993L106.471 122.943L106.464 122.92L106.446 122.86L106.441 122.845L106.422 122.776L106.42 122.769L106.401 122.693V122.691L106.384 122.615L106.382 122.605L106.368 122.538L106.365 122.52L106.355 122.46L106.35 122.433L106.342 122.381L106.337 122.346L106.332 122.302L106.326 122.258L106.323 122.223L106.318 122.168L106.316 122.142L106.313 122.079L106.309 121.99L106.308 121.981L106.308 121.899V57.683C106.308 55.747 106.851 54.1636 109.926 54.1636Z" fill="#C3A464"/>
<path fill-rule="evenodd" clip-rule="evenodd" d="M144.309 191.815C144.818 191.815 145.472 191.815 146.272 191.809C147.065 191.801 147.873 191.793 148.681 191.793C149.512 191.793 150.366 191.793 151.251 191.786C152.144 191.779 153.036 191.771 153.937 191.771C153.891 192.289 153.852 192.763 153.813 193.192C153.775 193.629 153.745 194.058 153.721 194.471C153.698 194.894 153.682 195.314 153.675 195.744C153.667 196.165 153.667 196.631 153.667 197.127L152.813 197.173C152.675 196.382 152.529 195.714 152.367 195.171C152.213 194.623 151.982 194.178 151.682 193.833C151.382 193.495 150.974 193.246 150.466 193.096C149.95 192.952 149.281 192.877 148.435 192.877H145.864V210.181C145.864 210.536 145.895 210.829 145.957 211.062C146.018 211.296 146.149 211.491 146.365 211.649C146.572 211.799 146.896 211.913 147.319 211.987C147.75 212.063 148.334 212.115 149.066 212.146L149.019 212.936C148.704 212.936 148.35 212.936 147.95 212.928C147.55 212.92 147.142 212.914 146.726 212.914C146.302 212.914 145.887 212.914 145.472 212.905C145.056 212.898 144.671 212.891 144.309 212.891C144.01 212.891 143.687 212.898 143.333 212.905C142.978 212.914 142.617 212.914 142.255 212.914C141.901 212.914 141.54 212.92 141.178 212.928C140.816 212.936 140.493 212.936 140.208 212.936L140.139 212.183C140.831 212.146 141.385 212.078 141.809 211.987C142.232 211.897 142.547 211.755 142.755 211.544C142.963 211.341 143.101 211.062 143.171 210.724C143.24 210.377 143.271 209.927 143.271 209.362V192.877H140.77C139.931 192.877 139.246 192.952 138.731 193.096C138.215 193.246 137.792 193.495 137.476 193.833C137.161 194.178 136.922 194.623 136.761 195.171C136.592 195.714 136.445 196.382 136.306 197.173L135.452 197.127V195.744C135.452 195.082 135.437 194.449 135.414 193.847C135.391 193.246 135.344 192.554 135.268 191.771C136.168 191.771 137.06 191.779 137.93 191.786C138.8 191.793 139.646 191.793 140.454 191.793C141.27 191.793 141.978 191.801 142.594 191.809C143.209 191.815 143.786 191.815 144.309 191.815ZM258.61 185.427H263L258.287 189.978H255.511L258.61 185.427ZM118.931 185.427H123.321L118.608 189.978H115.832L118.931 185.427ZM248.518 209.339C248.518 209.843 248.549 210.258 248.618 210.581C248.687 210.896 248.818 211.153 249.025 211.341C249.226 211.521 249.51 211.649 249.88 211.725C250.249 211.799 250.742 211.837 251.357 211.837H253.004C253.874 211.837 254.582 211.762 255.136 211.626C255.682 211.484 256.144 211.25 256.521 210.92C256.898 210.588 257.229 210.152 257.521 209.611C257.814 209.06 258.137 208.391 258.483 207.601L259.361 207.797C259.238 208.226 259.13 208.684 259.022 209.166C258.914 209.647 258.822 210.129 258.73 210.596C258.637 211.07 258.568 211.514 258.506 211.921C258.445 212.334 258.406 212.672 258.391 212.936C255.398 212.936 252.981 212.928 251.119 212.914C249.264 212.898 247.879 212.891 246.963 212.891C246.694 212.891 246.371 212.898 246.002 212.905C245.632 212.914 245.255 212.914 244.862 212.914C244.477 212.914 244.093 212.92 243.724 212.928C243.362 212.936 243.046 212.936 242.793 212.936L242.723 212.183C243.415 212.146 243.97 212.071 244.393 211.981C244.809 211.883 245.131 211.732 245.363 211.537C245.586 211.341 245.74 211.062 245.808 210.724C245.886 210.377 245.924 209.927 245.924 209.362V194.531C245.924 194.178 245.893 193.885 245.824 193.652C245.755 193.412 245.617 193.216 245.416 193.065C245.216 192.907 244.924 192.794 244.539 192.719C244.155 192.651 243.639 192.599 242.992 192.568L243.062 191.771C243.346 191.771 243.677 191.779 244.039 191.786C244.408 191.793 244.786 191.793 245.155 191.793C245.547 191.793 245.924 191.801 246.294 191.809C246.664 191.815 247.009 191.815 247.325 191.815C247.91 191.815 249.141 191.809 251.019 191.793C252.896 191.779 255.289 191.771 258.191 191.771C258.098 192.523 258.03 193.313 257.983 194.132C257.945 194.953 257.914 195.834 257.899 196.759L256.991 196.781C256.86 196.014 256.706 195.382 256.544 194.885C256.374 194.381 256.144 193.983 255.843 193.682C255.543 193.381 255.151 193.17 254.674 193.042C254.189 192.914 253.566 192.854 252.804 192.854H249.58C249.125 192.854 248.833 192.9 248.71 192.99C248.579 193.072 248.518 193.306 248.518 193.666V201.297L256.136 201.078L256.298 201.228L256.251 203.056C254.882 202.943 253.535 202.861 252.204 202.816C250.872 202.771 249.641 202.741 248.518 202.711V209.339ZM235.203 201.146V194.531C235.203 194.178 235.18 193.885 235.127 193.652C235.072 193.412 234.958 193.216 234.765 193.065C234.58 192.907 234.303 192.794 233.941 192.719C233.579 192.651 233.088 192.599 232.456 192.568L232.502 191.771C232.741 191.771 233.033 191.779 233.372 191.786C233.703 191.793 234.065 191.793 234.442 191.793C234.827 191.793 235.227 191.801 235.635 191.809C236.043 191.815 236.427 191.815 236.781 191.815C237.066 191.815 237.382 191.815 237.727 191.809C238.074 191.801 238.412 191.793 238.744 191.793C239.09 191.793 239.413 191.793 239.713 191.786C240.013 191.779 240.274 191.771 240.483 191.771L240.529 192.523C239.944 192.568 239.466 192.636 239.121 192.733C238.766 192.832 238.489 192.974 238.297 193.178C238.097 193.374 237.966 193.652 237.897 193.998C237.835 194.351 237.797 194.803 237.797 195.344V210.181C237.797 210.536 237.828 210.829 237.889 211.062C237.951 211.296 238.074 211.491 238.258 211.649C238.451 211.799 238.728 211.913 239.105 211.987C239.482 212.063 239.982 212.115 240.614 212.146L240.575 212.936C240.329 212.936 240.036 212.936 239.69 212.928C239.343 212.92 238.982 212.914 238.59 212.914C238.197 212.914 237.797 212.914 237.389 212.905C236.989 212.898 236.604 212.891 236.242 212.891C235.942 212.891 235.619 212.898 235.288 212.905C234.95 212.914 234.611 212.914 234.28 212.914C233.949 212.914 233.642 212.92 233.349 212.928C233.056 212.936 232.803 212.936 232.587 212.936L232.525 212.183C233.111 212.146 233.572 212.071 233.919 211.981C234.265 211.883 234.534 211.732 234.734 211.537C234.926 211.341 235.057 211.062 235.119 210.724C235.172 210.377 235.203 209.927 235.203 209.362V202.439H223.144V210.181C223.144 210.536 223.168 210.829 223.222 211.062C223.276 211.296 223.399 211.491 223.584 211.649C223.768 211.799 224.045 211.913 224.407 211.987C224.768 212.063 225.261 212.115 225.892 212.146L225.846 212.936C225.607 212.936 225.323 212.936 224.984 212.928C224.645 212.92 224.284 212.914 223.899 212.905C223.514 212.898 223.122 212.891 222.714 212.883C222.314 212.875 221.929 212.868 221.567 212.868C221.282 212.868 220.967 212.875 220.621 212.883C220.275 212.891 219.928 212.891 219.582 212.891C219.251 212.891 218.936 212.898 218.636 212.905C218.335 212.914 218.081 212.914 217.866 212.914L217.827 212.161C218.412 212.123 218.881 212.049 219.235 211.957C219.59 211.859 219.859 211.709 220.059 211.514C220.252 211.318 220.382 211.046 220.451 210.701C220.521 210.355 220.551 209.903 220.551 209.339V194.531C220.551 194.178 220.521 193.885 220.459 193.652C220.398 193.412 220.275 193.216 220.09 193.065C219.905 192.907 219.62 192.794 219.243 192.719C218.866 192.651 218.366 192.599 217.735 192.568L217.781 191.771C218.081 191.771 218.412 191.771 218.774 191.771C219.143 191.771 219.528 191.779 219.912 191.786C220.29 191.793 220.667 191.793 221.028 191.793C221.398 191.793 221.744 191.793 222.059 191.793H223.006C223.353 191.793 223.699 191.793 224.038 191.786C224.376 191.779 224.692 191.771 224.992 191.771H225.761L225.83 192.523C225.238 192.568 224.776 192.636 224.43 192.733C224.083 192.832 223.814 192.974 223.614 193.178C223.421 193.374 223.291 193.652 223.237 193.998C223.176 194.351 223.144 194.803 223.144 195.344V201.146H235.203ZM200.786 201.959C200.786 203.372 200.943 204.697 201.248 205.938C201.553 207.18 202.008 208.256 202.625 209.174C203.243 210.099 204.017 210.821 204.939 211.363C205.869 211.897 206.961 212.161 208.216 212.161C208.904 212.161 209.561 212.055 210.185 211.837C210.816 211.612 211.368 211.25 211.855 210.754C212.31 210.28 212.707 209.708 213.045 209.023C213.376 208.338 213.714 207.533 214.046 206.608L214.807 206.827C214.585 207.797 214.417 208.707 214.293 209.565C214.163 210.416 214.053 211.326 213.968 212.295C212.96 212.635 211.972 212.898 210.985 213.093C210.003 213.282 209.015 213.38 208.027 213.38C206.591 213.38 205.265 213.116 204.055 212.605C202.84 212.092 201.794 211.363 200.91 210.422C200.033 209.483 199.343 208.346 198.849 207.015C198.349 205.69 198.102 204.208 198.102 202.575C198.102 200.694 198.401 199.054 198.999 197.647C199.597 196.248 200.403 195.073 201.43 194.132C202.45 193.192 203.633 192.493 204.979 192.027C206.324 191.567 207.748 191.334 209.242 191.334C210.016 191.334 210.848 191.402 211.732 191.53C212.61 191.665 213.435 191.847 214.195 192.087C214.117 193.028 214.072 193.915 214.053 194.757C214.033 195.608 214.027 196.496 214.027 197.437L213.227 197.527C213.175 196.661 213.026 195.908 212.778 195.27C212.531 194.63 212.2 194.103 211.784 193.682C211.375 193.26 210.894 192.952 210.348 192.756C209.801 192.554 209.204 192.456 208.56 192.456C207.286 192.456 206.175 192.689 205.206 193.156C204.244 193.615 203.432 194.261 202.782 195.089C202.125 195.924 201.631 196.925 201.294 198.091C200.955 199.257 200.786 200.552 200.786 201.959ZM180.114 205.682C180.114 206.743 180.291 207.646 180.653 208.406C181.015 209.166 181.491 209.783 182.084 210.258C182.684 210.738 183.354 211.085 184.108 211.318C184.854 211.544 185.632 211.656 186.424 211.656C187.24 211.656 188.009 211.537 188.748 211.296C189.487 211.054 190.142 210.664 190.711 210.121C191.28 209.587 191.735 208.895 192.072 208.053C192.412 207.209 192.581 206.194 192.581 204.998V195.744C192.581 195.096 192.535 194.577 192.434 194.178C192.334 193.78 192.157 193.47 191.896 193.253C191.634 193.028 191.265 192.877 190.803 192.787C190.333 192.703 189.734 192.636 188.994 192.591L189.041 191.793C189.572 191.793 190.202 191.801 190.949 191.815C191.688 191.831 192.473 191.839 193.281 191.839C193.942 191.839 194.635 191.831 195.359 191.809C196.074 191.786 196.675 191.771 197.159 191.771L197.182 192.523C196.521 192.584 195.982 192.651 195.566 192.733C195.158 192.816 194.828 192.974 194.574 193.208C194.328 193.441 194.158 193.787 194.073 194.246C193.981 194.698 193.935 195.322 193.935 196.12V205.441C193.935 206.878 193.689 208.098 193.189 209.099C192.696 210.099 192.042 210.92 191.241 211.558C190.434 212.199 189.525 212.658 188.51 212.943C187.502 213.236 186.462 213.38 185.416 213.38C184.378 213.38 183.384 213.236 182.438 212.958C181.491 212.679 180.653 212.251 179.921 211.679C179.191 211.108 178.614 210.385 178.175 209.519C177.736 208.654 177.521 207.632 177.521 206.457V194.683C177.521 194.329 177.489 194.029 177.421 193.78C177.351 193.532 177.213 193.321 176.99 193.156C176.774 192.982 176.459 192.854 176.059 192.763C175.651 192.682 175.112 192.621 174.435 192.591L174.481 191.793C174.751 191.793 175.066 191.801 175.435 191.809C175.805 191.815 176.19 191.815 176.598 191.815C177.021 191.815 177.444 191.823 177.875 191.831C178.298 191.839 178.698 191.839 179.075 191.839C179.375 191.839 179.714 191.839 180.083 191.831C180.445 191.823 180.822 191.815 181.199 191.815C181.569 191.815 181.93 191.815 182.269 191.809C182.607 191.801 182.9 191.793 183.162 191.793L183.223 192.545C182.576 192.591 182.053 192.666 181.645 192.763C181.245 192.87 180.93 193.028 180.699 193.253C180.476 193.47 180.322 193.765 180.237 194.126C180.152 194.479 180.114 194.931 180.114 195.48V205.682ZM33.271 191.38C34.6765 191.38 35.9751 191.635 37.1614 192.139C38.3478 192.644 39.362 193.374 40.1968 194.314C41.0388 195.254 41.7015 196.383 42.1716 197.716C42.6419 199.047 42.8806 200.536 42.8806 202.177C42.8806 203.81 42.6491 205.314 42.1781 206.691C41.7145 208.06 41.0583 209.249 40.2163 210.25C39.375 211.251 38.3681 212.025 37.1882 212.582C36.0148 213.139 34.7026 213.426 33.271 213.426C31.8604 213.426 30.5611 213.17 29.3878 212.665C28.2079 212.153 27.1944 211.431 26.3459 210.491C25.4981 209.55 24.8413 208.414 24.3638 207.083C23.8936 205.758 23.6549 204.269 23.6549 202.621C23.6549 200.988 23.8936 199.491 24.358 198.114C24.8217 196.737 25.4778 195.556 26.3192 194.555C27.1612 193.555 28.1689 192.772 29.348 192.215C30.5214 191.658 31.8336 191.38 33.271 191.38ZM33.1523 192.568C32.2575 192.568 31.4025 192.734 30.5807 193.066C29.7589 193.396 29.0304 193.931 28.4069 194.661C27.7775 195.398 27.2741 196.353 26.9029 197.52C26.5246 198.686 26.3394 200.108 26.3394 201.785C26.3394 203.749 26.5514 205.404 26.9753 206.743C27.4064 208.084 27.9562 209.159 28.6253 209.971C29.3017 210.784 30.0577 211.371 30.8924 211.717C31.7273 212.056 32.5555 212.23 33.3838 212.23C34.2787 212.23 35.1337 212.063 35.9555 211.732C36.7773 211.409 37.5064 210.874 38.1293 210.138C38.7587 209.399 39.2621 208.452 39.6333 207.285C40.0116 206.112 40.1968 204.689 40.1968 203.02C40.1968 201.048 39.9848 199.393 39.5602 198.061C39.1298 196.723 38.58 195.646 37.9109 194.826C37.2345 194.013 36.4792 193.434 35.6437 193.089C34.8089 192.742 33.9807 192.568 33.1523 192.568ZM108.776 209.385C108.776 209.889 108.807 210.303 108.876 210.626C108.945 210.942 109.076 211.198 109.284 211.387C109.484 211.566 109.769 211.695 110.138 211.769C110.507 211.845 111 211.883 111.616 211.883H113.263C114.132 211.883 114.84 211.807 115.395 211.672C115.941 211.529 116.402 211.296 116.779 210.964C117.156 210.634 117.487 210.198 117.78 209.655C118.072 209.107 118.395 208.437 118.742 207.647L119.619 207.842C119.496 208.272 119.388 208.731 119.28 209.211C119.173 209.693 119.08 210.175 118.988 210.642C118.896 211.116 118.826 211.559 118.765 211.965C118.703 212.379 118.665 212.718 118.649 212.982C115.656 212.982 113.24 212.974 111.377 212.958C109.523 212.944 108.137 212.936 107.222 212.936C106.953 212.936 106.629 212.944 106.26 212.951C105.891 212.958 105.513 212.958 105.121 212.958C104.736 212.958 104.351 212.966 103.982 212.974C103.62 212.982 103.304 212.982 103.051 212.982L102.981 212.23C103.674 212.191 104.228 212.116 104.651 212.025C105.067 211.928 105.39 211.777 105.621 211.581C105.844 211.387 105.998 211.108 106.067 210.768C106.144 210.423 106.183 209.971 106.183 209.407V194.577C106.183 194.224 106.152 193.931 106.082 193.697C106.014 193.456 105.875 193.26 105.675 193.11C105.475 192.952 105.182 192.84 104.798 192.764C104.413 192.696 103.897 192.644 103.251 192.613L103.32 191.817C103.605 191.817 103.935 191.823 104.298 191.831C104.667 191.839 105.043 191.839 105.413 191.839C105.805 191.839 106.183 191.847 106.552 191.854C106.921 191.861 107.268 191.861 107.583 191.861C108.168 191.861 109.399 191.854 111.277 191.839C113.155 191.823 115.548 191.817 118.449 191.817C118.357 192.568 118.287 193.359 118.241 194.179C118.203 195 118.172 195.879 118.156 196.805L117.249 196.827C117.118 196.061 116.964 195.428 116.802 194.932C116.633 194.427 116.402 194.029 116.102 193.727C115.802 193.426 115.41 193.216 114.932 193.089C114.448 192.96 113.824 192.9 113.062 192.9H109.838C109.384 192.9 109.092 192.944 108.969 193.036C108.838 193.118 108.776 193.351 108.776 193.713V201.341L116.394 201.124L116.556 201.275L116.51 203.102C115.14 202.99 113.794 202.906 112.462 202.862C111.131 202.816 109.9 202.786 108.776 202.756V209.385ZM94.126 192.568C93.5103 192.613 93.0105 192.682 92.6256 192.78C92.2408 192.877 91.9486 193.02 91.733 193.224C91.5254 193.418 91.3792 193.697 91.3098 194.043C91.2331 194.397 91.194 194.849 91.194 195.39V209.385C91.194 209.889 91.2252 210.303 91.2946 210.626C91.364 210.942 91.4943 211.198 91.7019 211.387C91.9022 211.566 92.1873 211.695 92.5562 211.769C92.9259 211.845 93.4185 211.883 94.0341 211.883H95.2038C96.0806 211.883 96.7888 211.807 97.3509 211.672C97.905 211.529 98.3745 211.296 98.7586 210.964C99.1442 210.634 99.4748 210.198 99.759 209.655C100.044 209.107 100.359 208.437 100.706 207.647L101.568 207.842C101.445 208.272 101.33 208.731 101.229 209.211C101.121 209.693 101.021 210.175 100.937 210.642C100.844 211.116 100.767 211.559 100.706 211.965C100.645 212.379 100.613 212.718 100.598 212.982H97.1657C96.1732 212.982 95.3189 212.982 94.5962 212.974C93.88 212.966 93.2564 212.958 92.7486 212.958C92.2408 212.958 91.7945 212.958 91.4176 212.951C91.0407 212.944 90.7094 212.936 90.4251 212.936H89.6402C89.34 212.936 89.0086 212.944 88.647 212.951C88.2853 212.958 87.9236 212.958 87.5619 212.958C87.2002 212.958 86.8617 212.966 86.539 212.974C86.2157 212.982 85.9466 212.982 85.7382 212.982L85.6695 212.23C86.2843 212.191 86.785 212.116 87.1698 212.025C87.5547 211.928 87.8469 211.777 88.0625 211.581C88.2701 211.387 88.4162 211.108 88.4856 210.768C88.5623 210.423 88.6007 209.971 88.6007 209.407V194.577C88.6007 194.224 88.5703 193.931 88.5008 193.697C88.4314 193.456 88.2932 193.26 88.0929 193.11C87.8932 192.952 87.6002 192.84 87.2161 192.764C86.8313 192.696 86.3155 192.644 85.6695 192.613L85.7382 191.817C85.9769 191.817 86.2771 191.823 86.6309 191.831C86.9853 191.839 87.3622 191.839 87.7702 191.839C88.1703 191.839 88.5855 191.847 89.0086 191.854C89.4246 191.861 89.8167 191.861 90.1784 191.861C90.4635 191.861 90.786 191.861 91.1478 191.854C91.5095 191.847 91.8719 191.839 92.2336 191.839C92.5953 191.839 92.9259 191.839 93.2492 191.831C93.5646 191.823 93.8265 191.817 94.0341 191.817L94.126 192.568ZM74.8366 205.156H67.3263L65.5873 209.497C65.2871 210.332 65.1402 210.867 65.1402 211.085C65.1402 211.469 65.3254 211.732 65.6943 211.883C66.0561 212.025 66.7179 212.123 67.6649 212.169L67.5954 212.958C67.0413 212.958 66.4178 212.951 65.7254 212.936C65.0331 212.921 64.3481 212.914 63.671 212.914C63.1169 212.914 62.5396 212.921 61.9471 212.936C61.3547 212.951 60.7774 212.958 60.2233 212.958L60.177 212.206C60.7622 212.169 61.2469 212.093 61.6238 212.003C62.0007 211.905 62.324 211.725 62.6011 211.469C62.8782 211.213 63.1473 210.86 63.3939 210.416C63.6399 209.964 63.9322 209.369 64.2635 208.617L70.5042 193.697C70.6814 193.254 70.8738 192.87 71.0815 192.538C71.2818 192.207 71.4583 191.847 71.6125 191.47L73.0282 191.289C73.1974 191.997 73.3747 192.644 73.5598 193.23C73.7443 193.817 73.9215 194.352 74.0901 194.841L79.1618 209.211C79.3846 209.859 79.5922 210.363 79.7694 210.732C79.9539 211.1 80.1623 211.387 80.4002 211.581C80.639 211.777 80.9472 211.913 81.3161 211.988C81.6858 212.063 82.1632 212.123 82.7477 212.169L82.6782 212.958C82.0474 212.958 81.3544 212.951 80.5927 212.936C79.831 212.921 79.0692 212.914 78.3075 212.914C77.6767 212.914 77.0379 212.921 76.3912 212.936C75.7452 212.951 75.1064 212.958 74.4749 212.958L74.4062 212.206C75.2446 212.153 75.8451 212.049 76.2067 211.913C76.5684 211.769 76.7529 211.515 76.7529 211.131C76.7529 210.964 76.7225 210.784 76.6603 210.565C76.5988 210.356 76.5221 210.115 76.4375 209.851L74.8366 205.156ZM67.8414 203.877H74.4062L71.4511 195.15H71.3816L67.8414 203.877ZM51.6988 206.059C51.6988 205.63 51.6908 205.269 51.6756 204.968C51.6604 204.667 51.6142 204.367 51.5295 204.065C51.4521 203.765 51.3211 203.434 51.1598 203.087C50.9906 202.734 50.7599 202.29 50.4596 201.763C50.0516 201.056 49.5589 200.206 48.9825 199.205C48.4051 198.204 47.6738 196.985 46.7891 195.548C46.4426 194.969 46.1424 194.502 45.8964 194.149C45.6498 193.787 45.3807 193.502 45.1036 193.284C44.8265 193.072 44.5032 192.915 44.1263 192.824C43.7494 192.726 43.272 192.659 42.6794 192.613L42.7258 191.817C43.3566 191.817 44.0569 191.823 44.8113 191.839C45.5731 191.854 46.3348 191.861 47.1045 191.861C47.7353 191.861 48.3741 191.854 49.0287 191.839C49.6827 191.823 50.3287 191.817 50.9595 191.817L51.0217 192.568C50.2137 192.63 49.6515 192.726 49.3442 192.854C49.0359 192.99 48.8819 193.186 48.8819 193.449C48.8819 193.629 48.9361 193.833 49.0439 194.067C49.1438 194.307 49.2899 194.593 49.4671 194.932L53.5688 202.312L57.5395 195.3C57.7782 194.878 57.9627 194.517 58.0936 194.231C58.2166 193.945 58.286 193.697 58.286 193.495C58.286 193.216 58.1167 193.012 57.7782 192.892C57.4397 192.764 56.8393 192.673 55.9849 192.613L56.0312 191.817C56.5854 191.817 57.1698 191.823 57.7854 191.839C58.4018 191.854 59.0478 191.861 59.7249 191.861C60.287 191.861 60.8562 191.854 61.4487 191.839C62.0492 191.823 62.6184 191.817 63.1806 191.817L63.2413 192.568C62.6568 192.613 62.1721 192.69 61.7873 192.787C61.4104 192.892 61.0639 193.072 60.7636 193.321C60.4635 193.569 60.1632 193.908 59.871 194.329C59.5788 194.758 59.225 195.316 58.8018 196.007C58.0401 197.256 57.3775 198.362 56.8161 199.325C56.262 200.288 55.8236 201.079 55.5075 201.695C55.1921 202.297 54.9533 202.786 54.792 203.148C54.6228 203.516 54.507 203.84 54.4303 204.119C54.3537 204.397 54.3153 204.667 54.3073 204.923C54.2994 205.18 54.2922 205.494 54.2922 205.864V210.228C54.2922 210.582 54.3225 210.874 54.3841 211.108C54.4463 211.341 54.5764 211.537 54.792 211.695C54.9997 211.845 55.323 211.959 55.7462 212.033C56.1773 212.109 56.7626 212.161 57.4932 212.191L57.4469 212.982C57.1315 212.982 56.7777 212.982 56.3777 212.974C55.977 212.966 55.5697 212.958 55.1537 212.958C54.7306 212.958 54.3153 212.958 53.8993 212.951C53.4842 212.944 53.0993 212.936 52.7376 212.936C52.4374 212.936 52.114 212.944 51.7602 212.951C51.4058 212.958 51.0441 212.958 50.6824 212.958C50.3287 212.958 49.967 212.966 49.6053 212.974C49.2436 212.982 48.9209 212.982 48.636 212.982L48.5665 212.23C49.2595 212.191 49.8129 212.123 50.2368 212.033C50.66 211.943 50.9754 211.8 51.183 211.589C51.3906 211.387 51.5295 211.108 51.5982 210.768C51.6676 210.423 51.6988 209.971 51.6988 209.407V206.059ZM7.66348 210.052C7.66348 210.421 7.67937 210.728 7.71196 210.989C7.74379 211.241 7.84866 211.454 8.04181 211.619C8.227 211.793 8.52503 211.918 8.92798 211.997C9.32296 212.084 9.89446 212.139 10.6359 212.154V212.982C9.87851 212.982 9.11316 212.974 8.32395 212.958C7.53469 212.941 6.76935 212.934 6.01197 212.934C5.71395 212.934 5.38333 212.941 5.02094 212.95C4.65849 212.958 4.29604 212.958 3.93365 212.958C3.58714 212.958 3.25652 212.965 2.94261 212.974C2.62864 212.982 2.36245 212.982 2.13746 212.982L2.09696 212.194C2.70895 212.154 3.20083 212.075 3.57119 211.981C3.94162 211.879 4.223 211.721 4.4328 211.516C4.63463 211.311 4.77133 211.02 4.84367 210.665C4.91601 210.304 4.9486 209.831 4.9486 209.24V193.716C4.9486 193.345 4.91601 193.038 4.85164 192.794C4.78728 192.542 4.65849 192.338 4.46533 192.18C4.27218 192.015 3.97345 191.896 3.57917 191.818C3.18418 191.746 2.66048 191.692 2 191.66L2.04848 190.826C2.29802 190.826 2.59611 190.833 2.93464 190.841C3.27317 190.849 3.63562 190.849 4.02984 190.849C4.42482 190.849 4.8198 190.856 5.23067 190.864C5.6416 190.873 6.03583 190.873 6.41487 190.873C7.04281 190.873 7.67146 190.833 8.30801 190.746C8.95184 190.659 9.59712 190.62 10.2576 190.62C11.2002 190.62 12.1507 190.699 13.0925 190.849C14.0352 191.006 14.8895 191.282 15.6548 191.684C16.4115 192.085 17.0322 192.63 17.5075 193.306C17.9748 193.991 18.2085 194.865 18.2085 195.929C18.2085 196.638 18.0955 197.307 17.8699 197.938C17.6449 198.568 17.3223 199.142 16.9114 199.654C16.5085 200.175 16.0252 200.624 15.4617 201.018C14.9054 201.411 14.2855 201.726 13.6083 201.978C14.1162 202.915 14.6073 203.813 15.0985 204.672C15.5825 205.539 16.0332 206.326 16.452 207.042C16.8708 207.751 17.25 208.381 17.5877 208.917C17.9263 209.461 18.2085 209.878 18.4262 210.185C18.7242 210.587 18.9817 210.909 19.2075 211.147C19.4245 211.382 19.6668 211.571 19.9243 211.698C20.1818 211.832 20.4885 211.926 20.8343 211.989C21.1809 212.051 21.6243 212.107 22.1799 212.154L22.1314 212.982C21.6561 212.982 21.0441 212.974 20.2788 212.958C19.5135 212.941 18.7806 212.934 18.0717 212.934C17.854 212.934 17.6123 212.941 17.3541 212.95C17.0886 212.958 16.855 212.965 16.6293 212.982C16.4766 212.658 16.2263 212.186 15.8965 211.563C15.5658 210.942 15.1795 210.216 14.7202 209.389C14.2608 208.571 13.7617 207.673 13.2054 206.704C12.6578 205.735 12.0863 204.75 11.4895 203.751C11.3933 203.601 11.3043 203.459 11.2161 203.333C11.1271 203.214 11.0143 203.113 10.8855 203.025C10.7488 202.939 10.5715 202.876 10.3538 202.829C10.136 202.781 9.838 202.758 9.48352 202.758H8.77532C8.64584 202.758 8.49319 202.758 8.30801 202.75C8.1308 202.742 7.91303 202.726 7.66348 202.711V210.052ZM7.66348 201.608C7.79227 201.623 7.91302 201.631 8.04181 201.639C8.16263 201.647 8.29137 201.655 8.42085 201.655H9.16961C11.0309 201.655 12.4647 201.237 13.4796 200.403C14.4945 199.576 15.0023 198.229 15.0023 196.37C15.0023 194.795 14.5191 193.653 13.552 192.929C12.5855 192.203 11.2964 191.841 9.69332 191.841C9.20214 191.841 8.82311 191.889 8.54964 191.975C8.27547 192.054 8.07435 192.18 7.94562 192.353C7.81613 192.518 7.74379 192.731 7.71196 192.976C7.67937 193.22 7.66348 193.495 7.66348 193.803V201.608ZM164.985 191.334C166.39 191.334 167.689 191.591 168.875 192.095C170.062 192.599 171.076 193.328 171.911 194.269C172.752 195.21 173.415 196.339 173.885 197.67C174.356 199.001 174.594 200.492 174.594 202.131C174.594 203.764 174.363 205.269 173.892 206.645C173.428 208.016 172.772 209.204 171.93 210.205C171.089 211.206 170.081 211.981 168.902 212.537C167.729 213.093 166.416 213.38 164.985 213.38C163.573 213.38 162.274 213.124 161.102 212.619C159.922 212.109 158.908 211.386 158.06 210.446C157.211 209.505 156.555 208.369 156.078 207.037C155.607 205.712 155.369 204.223 155.369 202.575C155.369 200.942 155.607 199.445 156.072 198.068C156.536 196.691 157.191 195.51 158.033 194.509C158.874 193.508 159.882 192.726 161.062 192.169C162.235 191.612 163.547 191.334 164.985 191.334ZM164.865 192.523C163.971 192.523 163.116 192.689 162.294 193.02C161.473 193.35 160.744 193.885 160.121 194.615C159.491 195.352 158.988 196.308 158.617 197.474C158.238 198.641 158.053 200.062 158.053 201.74C158.053 203.704 158.265 205.359 158.689 206.699C159.12 208.038 159.67 209.114 160.339 209.927C161.016 210.738 161.771 211.326 162.606 211.671C163.441 212.01 164.269 212.183 165.098 212.183C165.993 212.183 166.847 212.018 167.669 211.687C168.491 211.363 169.22 210.829 169.843 210.092C170.473 209.355 170.976 208.406 171.347 207.24C171.725 206.066 171.911 204.645 171.911 202.973C171.911 201.002 171.699 199.347 171.274 198.016C170.844 196.677 170.294 195.6 169.624 194.781C168.948 193.968 168.193 193.388 167.358 193.042C166.523 192.696 165.694 192.523 164.865 192.523Z" fill="#C3A464" stroke="#C3A464" stroke-width="2.6664"/>
<path fill-rule="evenodd" clip-rule="evenodd" d="M3.93457 225.871H8.49861C9.17466 225.871 9.79039 225.944 10.3459 226.091C10.9013 226.237 11.377 226.457 11.773 226.75C12.169 227.042 12.4782 227.411 12.7002 227.854C12.9224 228.298 13.0335 228.813 13.0335 229.398V229.427C13.0335 230.022 12.9224 230.548 12.7002 231.006C12.4782 231.464 12.1641 231.849 11.7586 232.161C11.3528 232.472 10.8676 232.706 10.3024 232.862C9.73729 233.018 9.11187 233.096 8.42614 233.096H7.32493V235.787H3.93457V225.871ZM8.23773 230.73C8.6724 230.73 9.02251 230.638 9.28826 230.454C9.55388 230.27 9.68666 229.998 9.68666 229.639V229.611C9.68666 229.252 9.56103 228.981 9.30996 228.796C9.05877 228.612 8.70626 228.52 8.25223 228.52H7.32493V230.73H8.23773ZM21.4484 225.871H30.0983V228.591H24.7809V229.597H29.736V231.991H24.7809V233.067H30.1707V235.787H21.4484V225.871ZM38.7739 225.871H43.729C44.6371 225.871 45.3833 225.973 45.9676 226.176C46.552 226.379 47.0228 226.655 47.3802 227.004C47.6894 227.307 47.9211 227.647 48.0758 228.024C48.2303 228.402 48.3075 228.846 48.3075 229.356V229.384C48.3075 230.112 48.1289 230.725 47.7714 231.226C47.4141 231.726 46.9263 232.123 46.3081 232.416L48.6698 235.787H44.8013L42.8888 232.954H42.1643V235.787H38.7739V225.871ZM43.6276 230.588C44.0334 230.588 44.3521 230.503 44.584 230.333C44.8157 230.163 44.9316 229.927 44.9316 229.625V229.597C44.9316 229.276 44.8157 229.037 44.584 228.881C44.3521 228.726 44.0382 228.648 43.6422 228.648H42.1643V230.588H43.6276ZM56.8238 225.871H65.3142V228.704H60.2142V229.965H64.952V232.543H60.2142V235.787H56.8238V225.871ZM79.0899 236C78.3076 236 77.5806 235.868 76.9094 235.603C76.2381 235.339 75.6537 234.975 75.1563 234.512C74.6588 234.05 74.2701 233.504 73.9899 232.876C73.7098 232.248 73.5698 231.575 73.5698 230.858V230.829C73.5698 230.112 73.7123 229.439 73.9971 228.811C74.2821 228.183 74.6733 227.635 75.1708 227.167C75.6682 226.7 76.2549 226.332 76.9311 226.062C77.6072 225.793 78.3365 225.659 79.1189 225.659C79.9013 225.659 80.6283 225.791 81.2994 226.055C81.9708 226.32 82.5551 226.683 83.0526 227.146C83.5501 227.609 83.9388 228.154 84.2189 228.782C84.4991 229.41 84.6391 230.083 84.6391 230.801V230.829C84.6391 231.547 84.4967 232.22 84.2118 232.848C83.9268 233.476 83.5355 234.024 83.0381 234.491C82.5406 234.959 81.954 235.327 81.2777 235.596C80.6017 235.865 79.8723 236 79.0899 236ZM79.1189 233.067C79.4377 233.067 79.7275 233.006 79.9883 232.883C80.249 232.761 80.4712 232.598 80.6548 232.395C80.8382 232.192 80.9784 231.958 81.0749 231.693C81.1715 231.429 81.2197 231.15 81.2197 230.858V230.829C81.2197 230.537 81.1691 230.255 81.0676 229.986C80.9662 229.717 80.8237 229.479 80.6403 229.271C80.4567 229.063 80.2345 228.898 79.9737 228.775C79.713 228.652 79.4183 228.591 79.0899 228.591C78.7712 228.591 78.4813 228.652 78.2206 228.775C77.9598 228.898 77.7376 229.061 77.5541 229.264C77.3706 229.467 77.2305 229.701 77.1339 229.965C77.0374 230.23 76.9891 230.508 76.9891 230.801V230.829C76.9891 231.122 77.0397 231.403 77.1412 231.672C77.2426 231.941 77.3852 232.18 77.5686 232.388C77.7522 232.595 77.9743 232.761 78.2351 232.883C78.4959 233.006 78.7905 233.067 79.1189 233.067ZM93.2568 225.871H98.212C99.12 225.871 99.8662 225.973 100.451 226.176C101.035 226.379 101.506 226.655 101.863 227.004C102.172 227.307 102.404 227.647 102.559 228.024C102.713 228.402 102.79 228.846 102.79 229.356V229.384C102.79 230.112 102.612 230.725 102.254 231.226C101.897 231.726 101.409 232.123 100.791 232.416L103.153 235.787H99.2842L97.3717 232.954H96.6472V235.787H93.2568V225.871ZM98.1106 230.588C98.5163 230.588 98.835 230.503 99.0669 230.333C99.2986 230.163 99.4145 229.927 99.4145 229.625V229.597C99.4145 229.276 99.2986 229.037 99.0669 228.881C98.835 228.726 98.5211 228.648 98.1251 228.648H96.6472V230.588H98.1106ZM111.307 225.871H114.842L117.015 229.356L119.189 225.871H122.724V235.787H119.348V230.872L117.015 234.399H116.957L114.625 230.872V235.787H111.307V225.871ZM135.109 225.8H138.47L142.744 235.787H139.064L138.528 234.456H134.978L134.457 235.787H130.835L135.109 225.8ZM137.688 232.104L136.76 229.696L135.833 232.104H137.688ZM150.855 225.871H154.028L157.636 230.248V225.871H160.997V235.787H157.983L154.216 231.212V235.787H150.855V225.871ZM174.874 236C174.169 236 173.5 235.877 172.868 235.632C172.235 235.386 171.677 235.037 171.194 234.583C170.711 234.13 170.327 233.587 170.042 232.954C169.757 232.321 169.615 231.623 169.615 230.858V230.829C169.615 230.093 169.753 229.408 170.028 228.775C170.303 228.143 170.684 227.595 171.172 227.132C171.66 226.669 172.233 226.308 172.889 226.048C173.546 225.789 174.251 225.659 175.005 225.659C175.565 225.659 176.079 225.722 176.548 225.85C177.016 225.977 177.441 226.155 177.823 226.381C178.204 226.608 178.542 226.879 178.837 227.196C179.131 227.512 179.385 227.859 179.598 228.237L176.801 229.838C176.608 229.479 176.369 229.188 176.084 228.967C175.799 228.745 175.425 228.633 174.961 228.633C174.671 228.633 174.411 228.69 174.179 228.804C173.947 228.917 173.749 229.073 173.585 229.271C173.421 229.469 173.293 229.701 173.201 229.965C173.109 230.23 173.063 230.508 173.063 230.801V230.829C173.063 231.15 173.109 231.445 173.201 231.715C173.293 231.984 173.423 232.215 173.592 232.409C173.761 232.602 173.961 232.753 174.193 232.862C174.425 232.971 174.681 233.025 174.961 233.025C175.444 233.025 175.831 232.909 176.12 232.678C176.41 232.447 176.661 232.147 176.874 231.778L179.67 233.322C179.458 233.691 179.206 234.038 178.917 234.364C178.627 234.689 178.286 234.973 177.895 235.214C177.504 235.454 177.06 235.646 176.562 235.787C176.065 235.929 175.502 236 174.874 236ZM188.012 225.871H196.662V228.591H191.345V229.597H196.3V231.991H191.345V233.067H196.735V235.787H188.012V225.871ZM215.944 225.871H220.508C221.184 225.871 221.799 225.944 222.355 226.091C222.91 226.237 223.386 226.457 223.782 226.75C224.178 227.042 224.487 227.411 224.709 227.854C224.931 228.298 225.043 228.813 225.043 229.398V229.427C225.043 230.022 224.931 230.548 224.709 231.006C224.487 231.464 224.173 231.849 223.768 232.161C223.362 232.472 222.877 232.706 222.311 232.862C221.746 233.018 221.121 233.096 220.435 233.096H219.334V235.787H215.944V225.871ZM220.247 230.73C220.681 230.73 221.032 230.638 221.297 230.454C221.563 230.27 221.696 229.998 221.696 229.639V229.611C221.696 229.252 221.57 228.981 221.319 228.796C221.068 228.612 220.715 228.52 220.261 228.52H219.334V230.73H220.247ZM233.457 225.871H236.848V232.954H241.615V235.787H233.457V225.871ZM251.174 232.274L247.349 225.871H251.145L252.884 229.129L254.637 225.871H258.39L254.565 232.232V235.787H251.174V232.274Z" fill="#C3A464"/>
</svg>
