<svg width="164" height="150" viewBox="0 0 164 150" fill="none" xmlns="http://www.w3.org/2000/svg">
<path fill-rule="evenodd" clip-rule="evenodd" d="M81.0001 0C83.0149 0 84.6477 1.66757 84.6477 3.72549C84.6477 5.78281 83.0149 7.45038 81.0001 7.45038C78.9857 7.45038 77.3525 5.78281 77.3525 3.72549C77.3525 1.66757 78.9857 0 81.0001 0Z" fill="#C3A464"/>
<path fill-rule="evenodd" clip-rule="evenodd" d="M79.5176 9.53914L79.3781 9.43243C78.2679 9.10867 76.7948 8.43693 76.0927 7.54053V14.0358H67.9408L65.0225 17.2752C69.1175 17.2752 73.2118 17.2752 77.3065 17.2752C78.4361 17.3143 79.515 16.3466 79.5176 15.0379V9.53914Z" fill="#C3A464"/>
<path fill-rule="evenodd" clip-rule="evenodd" d="M82.4189 9.53914L82.5587 9.43243C83.6686 9.10867 85.1413 8.43693 85.8435 7.54053V14.0358H93.9957L96.9137 17.2752C92.8194 17.2752 88.7246 17.2752 84.63 17.2752C83.5004 17.3143 82.4215 16.3466 82.4189 15.0379V9.53914Z" fill="#C3A464"/>
<path fill-rule="evenodd" clip-rule="evenodd" d="M61.2518 19.9489C61.2592 19.9486 61.266 19.9489 61.2731 19.9489C66.631 19.9489 72.0034 19.9489 77.361 19.9489C78.5409 19.9741 79.5468 20.8745 79.5487 22.1894L79.3961 55.1037H75.8434V23.6744H62.6402C62.3665 32.6707 55.7005 38.9851 47.2303 39.122C48.1806 64.5299 58.7925 87.0219 80.935 106.035L81.0005 105.978L81.0663 106.035C103.208 87.0219 113.82 64.5299 114.771 39.122C106.3 38.9851 99.6345 32.6707 99.3614 23.6744H86.093V55.1037H82.5404L82.388 22.1894C82.3895 20.8745 83.3959 19.9741 84.5755 19.9489C89.933 19.9489 95.3703 19.9489 100.728 19.9489C100.735 19.9489 100.742 19.9486 100.749 19.9489C101.881 19.9946 102.802 20.8917 102.875 22.1811C103.043 31.149 108.353 35.1688 116.107 35.9933C116.118 35.994 116.135 35.9956 116.14 35.9968C117.384 36.1194 118.324 37.0682 118.284 38.2708C118.283 38.2917 118.282 38.3119 118.281 38.3325C117.229 63.9004 107.607 87.434 82.8217 109.247C82.2774 109.698 81.9617 110.005 81.1573 110.128V110.152L81.0662 110.141L81.0003 110.149L80.9348 110.141L80.8438 110.152V110.128C80.0396 110.005 79.7239 109.698 79.179 109.247C54.3935 87.434 44.7721 63.9004 43.7197 38.3325C43.7186 38.3119 43.7182 38.2917 43.7171 38.2708C43.677 37.0682 44.6177 36.1194 45.8609 35.9968C45.8658 35.9956 45.8829 35.9936 45.8945 35.9933C53.6484 35.1688 58.9579 31.149 59.1258 22.1811C59.199 20.8917 60.12 19.9946 61.2518 19.9489ZM75.8744 63.7117H79.325V85.9584C79.325 86.9188 80.085 89.0595 81.0331 89.0595C81.9809 89.0595 82.676 86.9251 82.676 85.9584V63.7117H86.1266V85.5359C86.1266 88.4332 83.8788 93.5039 81.0331 93.5039C78.1871 93.5039 75.8744 88.4418 75.8744 85.5359V63.7117Z" fill="#C3A464"/>
<path fill-rule="evenodd" clip-rule="evenodd" d="M67.3347 34.4263H72.9021V38.1442L68.8255 38.1453V57.5222H85.0987C90.3172 57.5222 94.9648 53.1618 94.9648 47.8316C94.9648 43.6369 92.7047 39.3712 89.0343 38.031V34.4308C94.7886 35.8488 98.7109 41.5922 98.7109 47.8893C98.7109 52.6451 95.8484 57.0258 91.8458 59.4407C95.7881 60.4465 97.869 63.1496 97.8751 70.0227V70.0482V77.4814L97.859 77.7525C97.7408 78.7384 96.9883 79.5311 96.0347 79.6891C95.0811 79.5311 94.3286 78.7387 94.2104 77.7525L94.1943 77.4814V71.1988V71.167C94.1943 63.197 90.9295 61.5278 85.5103 61.2908C85.4096 61.2932 85.3063 61.2948 85.2072 61.2948H68.8255V77.4781C68.8255 78.5843 68.0255 79.5135 66.9857 79.6861H66.985L66.9482 79.6798L66.9366 79.6779L66.8949 79.6689L66.8881 79.6681L66.8417 79.6572H66.8409L66.7934 79.6449L66.7889 79.6446L66.7459 79.6323L66.7369 79.6292L66.6998 79.6183L66.6853 79.6139L66.6533 79.6037L66.6346 79.5964L66.6078 79.5871L66.5836 79.5785L66.5623 79.5705L66.5335 79.5589L66.5174 79.5523L66.4845 79.5384L66.4732 79.5331L66.4354 79.5165L66.4293 79.5134L66.3873 79.4935L66.3862 79.4923L66.3432 79.4708L66.3402 79.4696L66.3008 79.4484L66.2931 79.4441L66.2591 79.4245L66.2469 79.4176L66.2178 79.4003L66.201 79.39L66.1772 79.3745L66.1565 79.3609L66.1371 79.3483L66.1123 79.3317L66.0974 79.3214L66.0693 79.3006L66.0587 79.2933L66.0264 79.2691L66.0203 79.2641L65.9848 79.2363L65.9832 79.2347L65.9458 79.2042L65.9435 79.2027L65.9096 79.1735L65.9038 79.1679L65.8741 79.1413L65.8644 79.1321L65.8392 79.1085L65.826 79.0956L65.805 79.0751L65.7882 79.0578L65.752 79.0197H65.7512L65.7386 79.0055L65.7154 78.98L65.6825 78.9419L65.6802 78.9399L65.675 78.9336L65.646 78.8995L65.6444 78.8963L65.6147 78.8592L65.6135 78.8572L65.5858 78.8208L65.5816 78.8151L65.5777 78.8092L65.5503 78.7711L65.5303 78.7419L65.5199 78.7273L65.5034 78.7015L65.4912 78.6819L65.4776 78.6607L65.4631 78.6365L65.4531 78.6189L65.436 78.5895L65.4289 78.5772L65.4102 78.5424L65.4056 78.5345L65.3853 78.4947L65.3834 78.4911L65.3621 78.4474L65.3613 78.4462L65.3416 78.4032L65.3385 78.3969L65.3324 78.3823L65.3176 78.3465L65.3034 78.3127L65.2969 78.2965L65.2859 78.267L65.2782 78.2461L65.2692 78.2206L65.2601 78.1941L65.2536 78.1738L65.2436 78.142L65.2391 78.1275L65.2281 78.0894L65.2251 78.0794L65.2138 78.0357L65.2126 78.0317L65.2013 77.983V77.9818L65.191 77.9337L65.1894 77.9274L65.181 77.8847L65.1791 77.8731L65.173 77.835L65.1703 77.8178L65.1651 77.7849L65.1621 77.7624L65.159 77.7349L65.1559 77.7064L65.1536 77.6842L65.151 77.6494L65.1498 77.6328L65.1479 77.5927L65.1456 77.5364L65.1448 77.5304L65.1445 77.4784V36.6632C65.1445 35.4327 65.4733 34.4263 67.3347 34.4263Z" fill="#C3A464"/>
<path fill-rule="evenodd" clip-rule="evenodd" d="M88.149 121.917C88.4569 121.917 88.8527 121.917 89.3371 121.913C89.817 121.907 90.3062 121.902 90.7953 121.902C91.2985 121.902 91.8153 121.902 92.3513 121.898C92.8916 121.893 93.4321 121.888 93.9773 121.888C93.9492 122.218 93.926 122.519 93.9024 122.792C93.8791 123.069 93.8608 123.342 93.8463 123.605C93.8328 123.873 93.8231 124.141 93.8187 124.413C93.8139 124.681 93.8139 124.977 93.8139 125.293L93.2967 125.322C93.2131 124.819 93.1246 124.395 93.0265 124.05C92.9337 123.701 92.794 123.419 92.6118 123.199C92.4305 122.984 92.1836 122.826 91.8761 122.73C91.5639 122.639 91.1588 122.592 90.6465 122.592H89.0901V133.59C89.0901 133.815 89.1089 134.002 89.1461 134.15C89.1834 134.298 89.2626 134.422 89.3931 134.523C89.5188 134.618 89.7145 134.69 89.9707 134.738C90.2317 134.786 90.5856 134.819 91.0283 134.838L91.0003 135.341C90.8094 135.341 90.5948 135.341 90.3526 135.336C90.1104 135.331 89.8635 135.327 89.6121 135.327C89.3555 135.327 89.1041 135.327 88.8527 135.321C88.6009 135.317 88.368 135.312 88.149 135.312C87.9677 135.312 87.7719 135.317 87.5578 135.321C87.3432 135.327 87.1243 135.327 86.9053 135.327C86.6912 135.327 86.4722 135.331 86.2532 135.336C86.0343 135.341 85.8386 135.341 85.666 135.341L85.6244 134.862C86.0435 134.838 86.379 134.796 86.6351 134.738C86.8913 134.681 87.0822 134.59 87.2079 134.456C87.334 134.327 87.4177 134.15 87.4597 133.935C87.5018 133.715 87.5202 133.428 87.5202 133.069V122.592H86.0063C85.4983 122.592 85.0836 122.639 84.7718 122.73C84.4595 122.826 84.2034 122.984 84.0124 123.199C83.8215 123.419 83.677 123.701 83.5793 124.05C83.4769 124.395 83.3884 124.819 83.3043 125.322L82.7871 125.293V124.413C82.7871 123.993 82.7779 123.59 82.7639 123.208C82.7499 122.826 82.7219 122.386 82.6755 121.888C83.2207 121.888 83.7606 121.893 84.287 121.898C84.8138 121.902 85.3262 121.902 85.8153 121.902C86.3089 121.902 86.7376 121.907 87.1103 121.913C87.4829 121.917 87.8324 121.917 88.149 121.917ZM157.342 117.856H160L157.147 120.749H155.466L157.342 117.856ZM72.7855 117.856H75.4432L72.5902 120.749H70.9099L72.7855 117.856ZM151.233 133.055C151.233 133.375 151.252 133.639 151.294 133.844C151.335 134.045 151.415 134.207 151.54 134.327C151.662 134.441 151.834 134.523 152.057 134.571C152.281 134.618 152.579 134.642 152.952 134.642H153.949C154.475 134.642 154.904 134.595 155.239 134.508C155.57 134.418 155.849 134.269 156.078 134.059C156.306 133.848 156.506 133.571 156.683 133.227C156.861 132.877 157.056 132.452 157.266 131.95L157.797 132.075C157.722 132.347 157.657 132.638 157.592 132.945C157.527 133.251 157.471 133.557 157.415 133.853C157.359 134.155 157.317 134.437 157.28 134.695C157.242 134.958 157.219 135.173 157.21 135.341C155.398 135.341 153.935 135.336 152.808 135.327C151.685 135.317 150.846 135.312 150.292 135.312C150.129 135.312 149.933 135.317 149.71 135.321C149.486 135.327 149.258 135.327 149.02 135.327C148.787 135.327 148.554 135.331 148.331 135.336C148.112 135.341 147.921 135.341 147.767 135.341L147.725 134.862C148.144 134.838 148.48 134.791 148.736 134.734C148.988 134.672 149.183 134.576 149.323 134.451C149.458 134.327 149.551 134.15 149.593 133.935C149.64 133.715 149.663 133.428 149.663 133.069V123.643C149.663 123.419 149.644 123.232 149.602 123.084C149.56 122.931 149.477 122.807 149.356 122.711C149.234 122.611 149.057 122.538 148.824 122.491C148.592 122.448 148.28 122.415 147.888 122.395L147.93 121.888C148.102 121.888 148.303 121.893 148.522 121.898C148.745 121.902 148.974 121.902 149.197 121.902C149.435 121.902 149.663 121.907 149.887 121.913C150.11 121.917 150.32 121.917 150.511 121.917C150.865 121.917 151.61 121.913 152.747 121.902C153.884 121.893 155.332 121.888 157.089 121.888C157.033 122.367 156.991 122.869 156.963 123.389C156.94 123.911 156.921 124.471 156.912 125.059L156.362 125.073C156.283 124.585 156.19 124.183 156.092 123.868C155.989 123.548 155.849 123.294 155.668 123.103C155.486 122.912 155.249 122.778 154.96 122.696C154.666 122.615 154.289 122.577 153.828 122.577H151.876C151.601 122.577 151.424 122.606 151.349 122.663C151.27 122.716 151.233 122.864 151.233 123.093V127.943L155.845 127.804L155.943 127.899L155.915 129.061C155.086 128.989 154.27 128.937 153.464 128.908C152.658 128.88 151.913 128.861 151.233 128.842V133.055ZM143.173 127.847V123.643C143.173 123.419 143.159 123.232 143.127 123.084C143.094 122.931 143.024 122.807 142.908 122.711C142.796 122.611 142.628 122.538 142.409 122.491C142.19 122.448 141.892 122.415 141.51 122.395L141.538 121.888C141.682 121.888 141.859 121.893 142.064 121.898C142.265 121.902 142.484 121.902 142.712 121.902C142.945 121.902 143.187 121.907 143.434 121.913C143.681 121.917 143.914 121.917 144.128 121.917C144.301 121.917 144.492 121.917 144.701 121.913C144.911 121.907 145.116 121.902 145.316 121.902C145.525 121.902 145.721 121.902 145.903 121.898C146.085 121.893 146.243 121.888 146.369 121.888L146.397 122.367C146.043 122.395 145.754 122.438 145.544 122.5C145.33 122.563 145.162 122.653 145.046 122.783C144.925 122.907 144.845 123.084 144.803 123.304C144.766 123.528 144.743 123.816 144.743 124.16V133.59C144.743 133.815 144.762 134.002 144.799 134.15C144.836 134.298 144.911 134.422 145.022 134.523C145.139 134.618 145.307 134.69 145.535 134.738C145.763 134.786 146.066 134.819 146.448 134.838L146.425 135.341C146.276 135.341 146.099 135.341 145.889 135.336C145.679 135.331 145.46 135.327 145.223 135.327C144.985 135.327 144.743 135.327 144.496 135.321C144.254 135.317 144.021 135.312 143.802 135.312C143.62 135.312 143.425 135.317 143.224 135.321C143.019 135.327 142.814 135.327 142.614 135.327C142.414 135.327 142.228 135.331 142.05 135.336C141.873 135.341 141.72 135.341 141.589 135.341L141.552 134.862C141.906 134.838 142.185 134.791 142.395 134.734C142.605 134.672 142.767 134.576 142.889 134.451C143.005 134.327 143.085 134.15 143.122 133.935C143.154 133.715 143.173 133.428 143.173 133.069V128.669H135.873V133.59C135.873 133.815 135.887 134.002 135.92 134.15C135.953 134.298 136.027 134.422 136.139 134.523C136.25 134.618 136.418 134.69 136.637 134.738C136.856 134.786 137.154 134.819 137.536 134.838L137.508 135.341C137.364 135.341 137.191 135.341 136.986 135.336C136.782 135.331 136.563 135.327 136.33 135.321C136.097 135.317 135.859 135.312 135.612 135.307C135.37 135.302 135.137 135.297 134.918 135.297C134.746 135.297 134.555 135.302 134.345 135.307C134.136 135.312 133.926 135.312 133.716 135.312C133.516 135.312 133.325 135.317 133.143 135.321C132.962 135.327 132.808 135.327 132.677 135.327L132.654 134.848C133.008 134.824 133.292 134.777 133.506 134.719C133.721 134.656 133.884 134.561 134.005 134.437C134.122 134.312 134.2 134.14 134.243 133.92C134.285 133.701 134.303 133.413 134.303 133.055V123.643C134.303 123.419 134.285 123.232 134.247 123.084C134.21 122.931 134.136 122.807 134.024 122.711C133.912 122.611 133.739 122.538 133.511 122.491C133.283 122.448 132.98 122.415 132.598 122.395L132.626 121.888C132.808 121.888 133.008 121.888 133.227 121.888C133.451 121.888 133.684 121.893 133.916 121.898C134.145 121.902 134.373 121.902 134.592 121.902C134.816 121.902 135.025 121.902 135.216 121.902H135.789C135.999 121.902 136.208 121.902 136.414 121.898C136.618 121.893 136.81 121.888 136.991 121.888H137.457L137.499 122.367C137.14 122.395 136.861 122.438 136.651 122.5C136.441 122.563 136.278 122.653 136.157 122.783C136.041 122.907 135.961 123.084 135.929 123.304C135.892 123.528 135.873 123.816 135.873 124.16V127.847H143.173ZM122.338 128.364C122.338 129.262 122.433 130.104 122.618 130.893C122.802 131.682 123.078 132.366 123.451 132.95C123.825 133.538 124.294 133.997 124.852 134.341C125.415 134.681 126.076 134.848 126.836 134.848C127.252 134.848 127.65 134.781 128.028 134.642C128.409 134.499 128.744 134.269 129.039 133.954C129.314 133.653 129.555 133.289 129.759 132.854C129.96 132.419 130.164 131.907 130.365 131.319L130.825 131.458C130.691 132.075 130.589 132.653 130.515 133.198C130.436 133.739 130.369 134.317 130.318 134.934C129.708 135.149 129.11 135.317 128.512 135.441C127.918 135.561 127.319 135.623 126.721 135.623C125.852 135.623 125.049 135.455 124.317 135.13C123.581 134.805 122.948 134.341 122.413 133.743C121.882 133.146 121.465 132.423 121.165 131.577C120.863 130.735 120.713 129.794 120.713 128.756C120.713 127.56 120.894 126.518 121.256 125.623C121.618 124.734 122.106 123.987 122.728 123.389C123.345 122.792 124.061 122.347 124.876 122.051C125.69 121.759 126.552 121.611 127.457 121.611C127.926 121.611 128.429 121.654 128.964 121.736C129.495 121.821 129.995 121.937 130.455 122.089C130.408 122.687 130.381 123.251 130.369 123.786C130.357 124.327 130.353 124.892 130.353 125.49L129.869 125.547C129.838 124.997 129.747 124.518 129.598 124.112C129.448 123.705 129.248 123.371 128.996 123.103C128.748 122.835 128.457 122.639 128.126 122.515C127.795 122.386 127.434 122.324 127.044 122.324C126.273 122.324 125.6 122.472 125.014 122.769C124.431 123.06 123.94 123.471 123.546 123.998C123.149 124.528 122.85 125.164 122.645 125.906C122.44 126.646 122.338 127.469 122.338 128.364ZM109.824 130.73C109.824 131.405 109.931 131.978 110.15 132.462C110.369 132.945 110.658 133.337 111.016 133.639C111.38 133.944 111.785 134.164 112.242 134.312C112.693 134.456 113.164 134.527 113.644 134.527C114.138 134.527 114.603 134.451 115.051 134.298C115.498 134.145 115.894 133.897 116.239 133.552C116.583 133.212 116.858 132.772 117.063 132.237C117.268 131.701 117.371 131.056 117.371 130.295V124.413C117.371 124.002 117.343 123.672 117.282 123.419C117.222 123.165 117.114 122.969 116.956 122.83C116.798 122.687 116.574 122.592 116.294 122.534C116.01 122.481 115.647 122.438 115.2 122.41L115.228 121.902C115.549 121.902 115.931 121.907 116.383 121.917C116.83 121.927 117.306 121.932 117.795 121.932C118.195 121.932 118.615 121.927 119.052 121.913C119.486 121.898 119.849 121.888 120.142 121.888L120.156 122.367C119.756 122.405 119.43 122.448 119.178 122.5C118.931 122.553 118.731 122.653 118.577 122.802C118.428 122.95 118.325 123.17 118.274 123.462C118.219 123.749 118.191 124.146 118.191 124.653V130.577C118.191 131.491 118.042 132.266 117.739 132.902C117.44 133.538 117.045 134.059 116.56 134.465C116.071 134.872 115.521 135.164 114.906 135.345C114.296 135.532 113.667 135.623 113.034 135.623C112.405 135.623 111.804 135.532 111.231 135.354C110.658 135.178 110.15 134.905 109.707 134.542C109.265 134.179 108.916 133.719 108.65 133.169C108.384 132.619 108.254 131.969 108.254 131.223V123.739C108.254 123.514 108.235 123.323 108.193 123.165C108.151 123.008 108.068 122.873 107.932 122.769C107.802 122.658 107.611 122.577 107.369 122.519C107.122 122.467 106.796 122.429 106.386 122.41L106.414 121.902C106.577 121.902 106.768 121.907 106.991 121.913C107.215 121.917 107.448 121.917 107.695 121.917C107.951 121.917 108.207 121.922 108.468 121.927C108.725 121.932 108.967 121.932 109.195 121.932C109.377 121.932 109.582 121.932 109.805 121.927C110.024 121.922 110.252 121.917 110.481 121.917C110.704 121.917 110.923 121.917 111.128 121.913C111.333 121.907 111.51 121.902 111.669 121.902L111.706 122.381C111.314 122.41 110.998 122.457 110.751 122.519C110.509 122.587 110.318 122.687 110.178 122.83C110.043 122.969 109.949 123.156 109.898 123.385C109.847 123.61 109.824 123.897 109.824 124.246V130.73ZM20.9303 121.64C21.7812 121.64 22.5673 121.802 23.2854 122.123C24.0037 122.443 24.6176 122.908 25.123 123.505C25.6327 124.102 26.0338 124.82 26.3185 125.667C26.6031 126.513 26.7476 127.46 26.7476 128.503C26.7476 129.541 26.6075 130.496 26.3224 131.372C26.0417 132.242 25.6445 132.998 25.1348 133.634C24.6255 134.27 24.0159 134.762 23.3017 135.116C22.5913 135.47 21.797 135.652 20.9303 135.652C20.0764 135.652 19.2899 135.489 18.5796 135.169C17.8653 134.843 17.2518 134.384 16.7382 133.787C16.2249 133.189 15.8273 132.467 15.5382 131.621C15.2536 130.779 15.1091 129.832 15.1091 128.785C15.1091 127.747 15.2536 126.795 15.5347 125.92C15.8154 125.045 16.2126 124.294 16.7219 123.658C17.2317 123.022 17.8417 122.525 18.5555 122.171C19.2658 121.817 20.0602 121.64 20.9303 121.64ZM20.8585 122.395C20.3168 122.395 19.7992 122.501 19.3017 122.712C18.8042 122.921 18.3633 123.261 17.9858 123.725C17.6048 124.194 17.3 124.801 17.0753 125.542C16.8463 126.284 16.7342 127.187 16.7342 128.254C16.7342 129.501 16.8625 130.554 17.1191 131.405C17.3801 132.257 17.7129 132.94 18.118 133.456C18.5275 133.973 18.9851 134.346 19.4904 134.566C19.9958 134.781 20.4972 134.892 20.9986 134.892C21.5403 134.892 22.058 134.786 22.5554 134.576C23.0529 134.37 23.4943 134.03 23.8714 133.562C24.2524 133.093 24.5572 132.491 24.7818 131.749C25.0108 131.004 25.123 130.099 25.123 129.038C25.123 127.785 24.9946 126.733 24.7376 125.887C24.477 125.036 24.1442 124.351 23.7391 123.83C23.3297 123.313 22.8725 122.946 22.3667 122.726C21.8613 122.506 21.3599 122.395 20.8585 122.395ZM66.6385 133.084C66.6385 133.404 66.6568 133.667 66.6989 133.873C66.7409 134.073 66.8202 134.236 66.9459 134.356C67.0672 134.47 67.2393 134.552 67.4631 134.599C67.6864 134.647 67.9846 134.672 68.3573 134.672H69.3544C69.8808 134.672 70.3095 134.624 70.645 134.538C70.9756 134.446 71.255 134.298 71.4831 134.088C71.7113 133.878 71.9119 133.6 72.0888 133.256C72.2657 132.907 72.4614 132.481 72.6712 131.979L73.2024 132.103C73.128 132.376 73.0623 132.668 72.9971 132.973C72.9322 133.28 72.8762 133.586 72.8201 133.883C72.7645 134.184 72.7225 134.466 72.6852 134.724C72.648 134.987 72.6248 135.202 72.6152 135.37C70.8031 135.37 69.3404 135.365 68.2128 135.355C67.0904 135.346 66.2518 135.341 65.6974 135.341C65.5345 135.341 65.3387 135.346 65.115 135.35C64.8916 135.355 64.663 135.355 64.4257 135.355C64.1927 135.355 63.9597 135.36 63.7359 135.365C63.517 135.37 63.3261 135.37 63.1724 135.37L63.1303 134.892C63.5498 134.867 63.8853 134.82 64.1415 134.762C64.3933 134.7 64.5886 134.604 64.7283 134.48C64.8636 134.356 64.9564 134.179 64.9984 133.963C65.0453 133.744 65.0685 133.456 65.0685 133.098V123.672C65.0685 123.448 65.0497 123.261 65.0076 123.113C64.9661 122.96 64.882 122.835 64.7611 122.739C64.6398 122.639 64.4629 122.568 64.2299 122.52C63.997 122.476 63.6847 122.443 63.2937 122.424L63.3357 121.918C63.5078 121.918 63.7079 121.922 63.9273 121.927C64.1507 121.932 64.3788 121.932 64.6026 121.932C64.8399 121.932 65.0685 121.937 65.2919 121.941C65.5156 121.945 65.7254 121.945 65.9163 121.945C66.2702 121.945 67.0155 121.941 68.1524 121.932C69.2892 121.922 70.7378 121.918 72.4943 121.918C72.4383 122.395 72.3962 122.898 72.3682 123.419C72.345 123.941 72.3266 124.499 72.3169 125.088L71.7674 125.102C71.6881 124.615 71.5948 124.213 71.4972 123.897C71.3947 123.577 71.255 123.323 71.0733 123.132C70.8915 122.94 70.6542 122.807 70.3651 122.726C70.0718 122.644 69.6943 122.606 69.2331 122.606H67.2813C67.0063 122.606 66.8294 122.634 66.755 122.692C66.6757 122.745 66.6385 122.893 66.6385 123.123V127.971L71.2502 127.833L71.3483 127.929L71.3202 129.091C70.4908 129.019 69.6759 128.966 68.8697 128.938C68.0639 128.908 67.3185 128.89 66.6385 128.87V133.084ZM57.7698 122.395C57.3971 122.424 57.0945 122.467 56.8615 122.53C56.6285 122.592 56.4516 122.682 56.3211 122.812C56.1954 122.935 56.107 123.113 56.0649 123.332C56.0185 123.558 55.9949 123.845 55.9949 124.189V133.084C55.9949 133.404 56.0137 133.667 56.0557 133.873C56.0978 134.073 56.1766 134.236 56.3023 134.356C56.4236 134.47 56.5961 134.552 56.8195 134.599C57.0433 134.647 57.3415 134.672 57.7141 134.672H58.4222C58.953 134.672 59.3817 134.624 59.722 134.538C60.0574 134.446 60.3416 134.298 60.5742 134.088C60.8076 133.878 61.0077 133.6 61.1798 133.256C61.3524 132.907 61.5433 132.481 61.753 131.979L62.2746 132.103C62.2002 132.376 62.1305 132.668 62.0696 132.973C62.0044 133.28 61.944 133.586 61.8928 133.883C61.8367 134.184 61.7903 134.466 61.753 134.724C61.7158 134.987 61.697 135.202 61.6878 135.37H59.6099C59.0091 135.37 58.4919 135.37 58.0544 135.365C57.6208 135.36 57.2434 135.355 56.9359 135.355C56.6285 135.355 56.3583 135.355 56.1302 135.35C55.902 135.346 55.7015 135.341 55.5294 135.341H55.0542C54.8725 135.341 54.6719 135.346 54.4529 135.35C54.234 135.355 54.015 135.355 53.7961 135.355C53.5771 135.355 53.3722 135.36 53.1769 135.365C52.9811 135.37 52.8182 135.37 52.6921 135.37L52.6505 134.892C53.0227 134.867 53.3258 134.82 53.5587 134.762C53.7917 134.7 53.9686 134.604 54.0991 134.48C54.2248 134.356 54.3133 134.179 54.3553 133.963C54.4017 133.744 54.4249 133.456 54.4249 133.098V123.672C54.4249 123.448 54.4065 123.261 54.3645 123.113C54.3225 122.96 54.2388 122.835 54.1175 122.739C53.9966 122.639 53.8193 122.568 53.5868 122.52C53.3538 122.476 53.0416 122.443 52.6505 122.424L52.6921 121.918C52.8366 121.918 53.0183 121.922 53.2325 121.927C53.4471 121.932 53.6752 121.932 53.9222 121.932C54.1644 121.932 54.4157 121.937 54.6719 121.941C54.9237 121.945 55.1611 121.945 55.38 121.945C55.5526 121.945 55.7479 121.945 55.9669 121.941C56.1858 121.937 56.4052 121.932 56.6242 121.932C56.8431 121.932 57.0433 121.932 57.239 121.927C57.4299 121.922 57.5884 121.918 57.7141 121.918L57.7698 122.395ZM46.0927 130.396H41.5462L40.4935 133.155C40.3117 133.686 40.2228 134.026 40.2228 134.164C40.2228 134.408 40.3349 134.576 40.5582 134.672C40.7772 134.762 41.1779 134.824 41.7511 134.853L41.7091 135.355C41.3736 135.355 40.9962 135.35 40.5771 135.341C40.158 135.332 39.7433 135.327 39.3334 135.327C38.998 135.327 38.6485 135.332 38.2898 135.341C37.9312 135.35 37.5817 135.355 37.2463 135.355L37.2183 134.877C37.5725 134.853 37.8659 134.805 38.0941 134.748C38.3223 134.686 38.518 134.571 38.6857 134.408C38.8534 134.245 39.0163 134.021 39.1657 133.739C39.3146 133.452 39.4915 133.074 39.6921 132.596L43.47 123.113C43.5773 122.831 43.6937 122.587 43.8194 122.376C43.9407 122.166 44.0476 121.937 44.1409 121.697L44.9979 121.582C45.1003 122.032 45.2077 122.443 45.3198 122.816C45.4314 123.189 45.5387 123.529 45.6407 123.84L48.711 132.973C48.8458 133.385 48.9715 133.706 49.0788 133.94C49.1905 134.174 49.3166 134.356 49.4607 134.48C49.6052 134.604 49.7918 134.69 50.0151 134.739C50.2389 134.786 50.5279 134.824 50.8817 134.853L50.8397 135.355C50.4578 135.355 50.0383 135.35 49.5772 135.341C49.1161 135.332 48.6549 135.327 48.1938 135.327C47.8119 135.327 47.4253 135.332 47.0337 135.341C46.6427 135.35 46.256 135.355 45.8737 135.355L45.8321 134.877C46.3397 134.843 46.7031 134.777 46.9221 134.69C47.141 134.599 47.2527 134.437 47.2527 134.193C47.2527 134.088 47.2343 133.973 47.1966 133.834C47.1594 133.701 47.113 133.548 47.0618 133.38L46.0927 130.396ZM41.858 129.583H45.8321L44.0432 124.036H44.0012L41.858 129.583ZM32.0859 130.97C32.0859 130.697 32.081 130.468 32.0718 130.276C32.0626 130.085 32.0346 129.894 31.9834 129.702C31.9365 129.512 31.8572 129.301 31.7596 129.081C31.6571 128.856 31.5175 128.574 31.3357 128.239C31.0887 127.79 30.7905 127.25 30.4415 126.614C30.092 125.977 29.6493 125.202 29.1137 124.289C28.9039 123.921 28.7222 123.625 28.5733 123.4C28.424 123.17 28.2611 122.988 28.0934 122.85C27.9256 122.716 27.7299 122.615 27.5017 122.558C27.2736 122.496 26.9846 122.453 26.6259 122.424L26.6539 121.918C27.0358 121.918 27.4597 121.922 27.9164 121.932C28.3776 121.941 28.8387 121.945 29.3046 121.945C29.6865 121.945 30.0732 121.941 30.4695 121.932C30.8654 121.922 31.2564 121.918 31.6383 121.918L31.676 122.395C31.1868 122.434 30.8465 122.496 30.6604 122.577C30.4739 122.663 30.3806 122.788 30.3806 122.955C30.3806 123.069 30.4134 123.199 30.4787 123.348C30.5391 123.5 30.6276 123.682 30.7349 123.897L33.2179 128.588L35.6216 124.131C35.7661 123.863 35.8778 123.634 35.9571 123.452C36.0315 123.27 36.0735 123.113 36.0735 122.984C36.0735 122.807 35.971 122.677 35.7661 122.601C35.5612 122.52 35.1977 122.462 34.6805 122.424L34.7085 121.918C35.044 121.918 35.3978 121.922 35.7705 121.932C36.1436 121.941 36.5347 121.945 36.9446 121.945C37.2848 121.945 37.6294 121.941 37.9881 121.932C38.3516 121.922 38.6962 121.918 39.0365 121.918L39.0733 122.395C38.7194 122.424 38.426 122.472 38.1931 122.534C37.9649 122.601 37.7551 122.716 37.5734 122.873C37.3917 123.031 37.2099 123.247 37.033 123.514C36.8561 123.787 36.6419 124.142 36.3858 124.581C35.9246 125.375 35.5235 126.078 35.1837 126.69C34.8482 127.302 34.5829 127.804 34.3915 128.196C34.2006 128.579 34.056 128.89 33.9584 129.12C33.8559 129.354 33.7859 129.559 33.7394 129.737C33.693 129.913 33.6698 130.085 33.665 130.248C33.6602 130.411 33.6558 130.611 33.6558 130.846V133.62C33.6558 133.844 33.6742 134.03 33.7114 134.179C33.7491 134.327 33.8279 134.451 33.9584 134.552C34.0841 134.647 34.2798 134.72 34.536 134.767C34.797 134.815 35.1513 134.848 35.5936 134.867L35.5655 135.37C35.3746 135.37 35.1605 135.37 34.9183 135.365C34.6757 135.36 34.4292 135.355 34.1773 135.355C33.9212 135.355 33.6698 135.355 33.418 135.35C33.1667 135.346 32.9337 135.341 32.7147 135.341C32.533 135.341 32.3372 135.346 32.1231 135.35C31.9085 135.355 31.6896 135.355 31.4706 135.355C31.2564 135.355 31.0375 135.36 30.8185 135.365C30.5996 135.37 30.4043 135.37 30.2317 135.37L30.1897 134.892C30.6092 134.867 30.9442 134.824 31.2008 134.767C31.457 134.71 31.6479 134.619 31.7736 134.485C31.8993 134.356 31.9834 134.179 32.025 133.963C32.067 133.744 32.0859 133.456 32.0859 133.098V130.97ZM5.42847 133.508C5.42847 133.742 5.43808 133.938 5.45781 134.103C5.47709 134.263 5.54057 134.399 5.6575 134.503C5.7696 134.614 5.95002 134.694 6.19395 134.744C6.43306 134.799 6.77902 134.834 7.22789 134.844V135.37C6.76937 135.37 6.30605 135.365 5.82829 135.354C5.3505 135.344 4.88719 135.34 4.4287 135.34C4.24829 135.34 4.04815 135.344 3.82877 135.35C3.60935 135.354 3.38994 135.354 3.17056 135.354C2.9608 135.354 2.76065 135.359 2.57062 135.365C2.38056 135.37 2.21941 135.37 2.08321 135.37L2.05869 134.869C2.42918 134.844 2.72694 134.794 2.95114 134.734C3.17538 134.669 3.34572 134.569 3.47273 134.438C3.59491 134.308 3.67766 134.123 3.72145 133.897C3.76524 133.668 3.78498 133.367 3.78498 132.992V123.125C3.78498 122.889 3.76525 122.694 3.72628 122.538C3.68732 122.378 3.60935 122.249 3.49242 122.149C3.37549 122.044 3.19466 121.968 2.95597 121.919C2.71686 121.873 2.39983 121.839 2 121.818L2.02935 121.288C2.18041 121.288 2.36086 121.292 2.5658 121.298C2.77073 121.302 2.99014 121.302 3.22879 121.302C3.4679 121.302 3.70701 121.307 3.95573 121.312C4.2045 121.317 4.44315 121.317 4.6726 121.317C5.05274 121.317 5.4333 121.292 5.81864 121.237C6.2084 121.182 6.59903 121.157 6.99885 121.157C7.56944 121.157 8.14486 121.207 8.71502 121.302C9.28565 121.402 9.80283 121.578 10.2661 121.833C10.7242 122.088 11.0999 122.434 11.3877 122.864C11.6706 123.3 11.812 123.855 11.812 124.531C11.812 124.982 11.7437 125.407 11.607 125.808C11.4708 126.209 11.2756 126.574 11.0268 126.899C10.7829 127.23 10.4903 127.515 10.1492 127.766C9.81245 128.016 9.43718 128.216 9.02727 128.376C9.33469 128.971 9.63203 129.542 9.92938 130.088C10.2224 130.639 10.4952 131.14 10.7487 131.595C11.0023 132.045 11.2318 132.446 11.4362 132.787C11.6412 133.132 11.812 133.397 11.9438 133.592C12.1242 133.848 12.2801 134.053 12.4168 134.204C12.5481 134.353 12.6948 134.473 12.8507 134.554C13.0066 134.639 13.1923 134.699 13.4016 134.739C13.6114 134.779 13.8798 134.814 14.2162 134.844L14.1868 135.37C13.8991 135.37 13.5286 135.365 13.0653 135.354C12.602 135.344 12.1584 135.34 11.7292 135.34C11.5974 135.34 11.4511 135.344 11.2948 135.35C11.1341 135.354 10.9927 135.359 10.856 135.37C10.7636 135.164 10.6121 134.864 10.4124 134.468C10.2123 134.073 9.97842 133.612 9.70035 133.087C9.42227 132.566 9.1201 131.996 8.78337 131.38C8.45186 130.764 8.10589 130.138 7.74461 129.503C7.68637 129.407 7.63251 129.318 7.5791 129.237C7.52523 129.162 7.45692 129.097 7.37896 129.042C7.2962 128.987 7.18889 128.947 7.05709 128.917C6.92526 128.886 6.74484 128.872 6.53025 128.872H6.10154C6.02315 128.872 5.93074 128.872 5.81864 128.867C5.71137 128.862 5.57953 128.851 5.42847 128.842V133.508ZM5.42847 128.141C5.50643 128.151 5.57953 128.155 5.6575 128.16C5.73064 128.166 5.80857 128.171 5.88695 128.171H6.34022C7.46696 128.171 8.33493 127.905 8.94934 127.375C9.56372 126.85 9.87114 125.993 9.87114 124.811C9.87114 123.811 9.57863 123.085 8.99314 122.624C8.40807 122.163 7.62768 121.933 6.65726 121.933C6.35992 121.933 6.13046 121.964 5.96492 122.018C5.79895 122.068 5.67719 122.149 5.59926 122.258C5.52088 122.364 5.47709 122.498 5.45781 122.654C5.43808 122.81 5.42847 122.984 5.42847 123.18V128.141ZM100.665 121.611C101.516 121.611 102.302 121.774 103.02 122.094C103.738 122.415 104.352 122.878 104.858 123.476C105.367 124.074 105.769 124.792 106.053 125.638C106.338 126.484 106.482 127.431 106.482 128.473C106.482 129.511 106.342 130.468 106.057 131.342C105.777 132.214 105.379 132.969 104.87 133.605C104.36 134.241 103.75 134.734 103.036 135.087C102.326 135.441 101.532 135.623 100.665 135.623C99.8108 135.623 99.0242 135.46 98.3144 135.14C97.6001 134.815 96.9866 134.356 96.4729 133.758C95.9593 133.16 95.5621 132.438 95.2731 131.591C94.9884 130.749 94.8439 129.803 94.8439 128.756C94.8439 127.718 94.9884 126.766 95.2695 125.891C95.5503 125.016 95.947 124.265 96.4567 123.629C96.9661 122.992 97.5761 122.495 98.2903 122.142C99.0006 121.788 99.7946 121.611 100.665 121.611ZM100.593 122.367C100.052 122.367 99.534 122.472 99.0365 122.682C98.5391 122.892 98.0981 123.232 97.7206 123.696C97.3396 124.164 97.0348 124.772 96.8101 125.513C96.5811 126.255 96.469 127.158 96.469 128.225C96.469 129.473 96.5973 130.525 96.8539 131.376C97.1149 132.227 97.4478 132.912 97.8528 133.428C98.2623 133.944 98.7195 134.317 99.2253 134.537C99.7306 134.753 100.232 134.862 100.733 134.862C101.275 134.862 101.792 134.757 102.29 134.547C102.788 134.341 103.229 134.002 103.606 133.533C103.987 133.064 104.292 132.462 104.517 131.721C104.745 130.974 104.858 130.071 104.858 129.009C104.858 127.756 104.729 126.704 104.472 125.858C104.212 125.006 103.879 124.322 103.474 123.802C103.064 123.285 102.607 122.916 102.102 122.696C101.596 122.476 101.095 122.367 100.593 122.367Z" fill="#C3A464" stroke="#C3A464" stroke-width="2.6664"/>
<path fill-rule="evenodd" clip-rule="evenodd" d="M3.1709 143.562H5.9338C6.34306 143.562 6.7158 143.609 7.05207 143.702C7.3883 143.795 7.67629 143.934 7.91598 144.121C8.15574 144.307 8.34289 144.541 8.47729 144.823C8.61181 145.105 8.67905 145.432 8.67905 145.804V145.822C8.67905 146.2 8.61181 146.535 8.47729 146.826C8.34289 147.117 8.15279 147.362 7.90728 147.56C7.66162 147.758 7.36788 147.907 7.02575 148.006C6.68365 148.105 6.30505 148.154 5.88993 148.154H5.2233V149.865H3.1709V143.562ZM5.77588 146.651C6.03901 146.651 6.25095 146.592 6.41183 146.475C6.57262 146.358 6.653 146.185 6.653 145.957V145.939C6.653 145.711 6.57695 145.539 6.42497 145.422C6.27291 145.305 6.05951 145.246 5.78465 145.246H5.2233V146.651H5.77588ZM13.7732 143.562H19.0095V145.291H15.7905V145.93H18.7902V147.452H15.7905V148.136H19.0533V149.865H13.7732V143.562ZM24.2614 143.562H27.261C27.8107 143.562 28.2625 143.627 28.6162 143.756C28.9699 143.885 29.255 144.06 29.4713 144.283C29.6585 144.475 29.7988 144.691 29.8924 144.931C29.9859 145.171 30.0327 145.453 30.0327 145.777V145.795C30.0327 146.257 29.9245 146.648 29.7081 146.966C29.4918 147.284 29.1966 147.536 28.8223 147.722L30.252 149.865H27.9101L26.7524 148.064H26.3138V149.865H24.2614V143.562ZM27.1996 146.561C27.4453 146.561 27.6382 146.507 27.7786 146.398C27.9188 146.29 27.989 146.14 27.989 145.948V145.93C27.989 145.726 27.9188 145.575 27.7786 145.476C27.6382 145.377 27.4482 145.327 27.2085 145.327H26.3138V146.561H27.1996ZM35.1881 143.562H40.3279V145.363H37.2406V146.164H40.1087V147.803H37.2406V149.865H35.1881V143.562ZM48.6672 150C48.1936 150 47.7535 149.916 47.3472 149.748C46.9408 149.58 46.5871 149.349 46.286 149.055C45.9848 148.761 45.7495 148.414 45.5799 148.015C45.4103 147.616 45.3255 147.188 45.3255 146.732V146.714C45.3255 146.257 45.4118 145.83 45.5842 145.431C45.7567 145.031 45.9936 144.683 46.2947 144.386C46.5959 144.089 46.951 143.855 47.3604 143.684C47.7696 143.513 48.2112 143.427 48.6848 143.427C49.1584 143.427 49.5985 143.511 50.0048 143.679C50.4112 143.847 50.7649 144.079 51.0661 144.373C51.3673 144.667 51.6026 145.013 51.7722 145.413C51.9418 145.812 52.0265 146.239 52.0265 146.696V146.714C52.0265 147.17 51.9403 147.597 51.7678 147.997C51.5953 148.396 51.3584 148.744 51.0573 149.041C50.7562 149.338 50.401 149.572 49.9917 149.743C49.5824 149.914 49.1409 150 48.6672 150ZM48.6848 148.136C48.8778 148.136 49.0532 148.097 49.2111 148.019C49.3689 147.941 49.5034 147.838 49.6145 147.709C49.7256 147.579 49.8104 147.431 49.8689 147.263C49.9273 147.095 49.9566 146.918 49.9566 146.732V146.714C49.9566 146.528 49.9259 146.349 49.8645 146.178C49.8031 146.007 49.7168 145.855 49.6058 145.723C49.4946 145.591 49.3602 145.486 49.2023 145.408C49.0444 145.33 48.866 145.291 48.6672 145.291C48.4743 145.291 48.2988 145.33 48.141 145.408C47.9831 145.486 47.8486 145.59 47.7375 145.719C47.6264 145.848 47.5416 145.996 47.4831 146.164C47.4247 146.332 47.3955 146.51 47.3955 146.696V146.714C47.3955 146.9 47.4261 147.078 47.4876 147.249C47.549 147.42 47.6352 147.572 47.7463 147.704C47.8574 147.836 47.9919 147.941 48.1498 148.019C48.3076 148.097 48.486 148.136 48.6848 148.136ZM57.2434 143.562H60.243C60.7927 143.562 61.2444 143.627 61.5982 143.756C61.9519 143.885 62.237 144.06 62.4533 144.283C62.6405 144.475 62.7807 144.691 62.8744 144.931C62.9679 145.171 63.0147 145.453 63.0147 145.777V145.795C63.0147 146.257 62.9066 146.648 62.6901 146.966C62.4738 147.284 62.1785 147.536 61.8043 147.722L63.234 149.865H60.8921L59.7344 148.064H59.2958V149.865H57.2434V143.562ZM60.1817 146.561C60.4273 146.561 60.6202 146.507 60.7606 146.398C60.9009 146.29 60.971 146.14 60.971 145.948V145.93C60.971 145.726 60.9009 145.575 60.7606 145.476C60.6202 145.377 60.4302 145.327 60.1904 145.327H59.2958V146.561H60.1817ZM68.1702 143.562H70.3103L71.626 145.777L72.9416 143.562H75.0817V149.865H73.0381V146.741L71.626 148.983H71.5909L70.1787 146.741V149.865H68.1702V143.562ZM82.579 143.517H84.6139L87.2013 149.865H84.9735L84.649 149.019H82.5001L82.1843 149.865H79.9916L82.579 143.517ZM84.1402 147.524L83.5789 145.993L83.0175 147.524H84.1402ZM92.1111 143.562H94.032L96.216 146.344V143.562H98.2508V149.865H96.4264L94.1461 146.957V149.865H92.1111V143.562ZM106.652 150C106.225 150 105.82 149.922 105.437 149.766C105.054 149.61 104.716 149.388 104.424 149.1C104.131 148.811 103.899 148.466 103.726 148.064C103.554 147.662 103.468 147.218 103.468 146.732V146.714C103.468 146.245 103.551 145.81 103.718 145.408C103.884 145.006 104.115 144.658 104.411 144.364C104.706 144.069 105.052 143.84 105.45 143.675C105.848 143.51 106.274 143.427 106.731 143.427C107.07 143.427 107.381 143.468 107.665 143.549C107.948 143.63 108.205 143.742 108.436 143.886C108.667 144.03 108.872 144.203 109.05 144.404C109.229 144.605 109.382 144.826 109.511 145.066L107.818 146.083C107.701 145.855 107.556 145.671 107.384 145.53C107.212 145.389 106.985 145.318 106.704 145.318C106.529 145.318 106.371 145.354 106.231 145.426C106.09 145.498 105.97 145.597 105.871 145.723C105.772 145.849 105.694 145.996 105.639 146.164C105.583 146.332 105.555 146.51 105.555 146.696V146.714C105.555 146.918 105.583 147.105 105.639 147.276C105.694 147.447 105.773 147.595 105.875 147.718C105.978 147.841 106.099 147.937 106.239 148.006C106.38 148.075 106.535 148.109 106.704 148.109C106.997 148.109 107.231 148.036 107.406 147.889C107.581 147.742 107.733 147.551 107.862 147.317L109.555 148.298C109.426 148.532 109.274 148.753 109.099 148.96C108.923 149.167 108.717 149.347 108.48 149.5C108.244 149.653 107.975 149.775 107.673 149.865C107.372 149.955 107.032 150 106.652 150ZM114.605 143.562H119.841V145.291H116.622V145.93H119.622V147.452H116.622V148.136H119.885V149.865H114.605V143.562ZM131.514 143.562H134.276C134.686 143.562 135.058 143.609 135.395 143.702C135.731 143.795 136.019 143.934 136.259 144.121C136.498 144.307 136.686 144.541 136.82 144.823C136.954 145.105 137.022 145.432 137.022 145.804V145.822C137.022 146.2 136.954 146.535 136.82 146.826C136.686 147.117 136.495 147.362 136.25 147.56C136.004 147.758 135.711 147.907 135.368 148.006C135.026 148.105 134.648 148.154 134.233 148.154H133.566V149.865H131.514V143.562ZM134.119 146.651C134.382 146.651 134.594 146.592 134.754 146.475C134.915 146.358 134.996 146.185 134.996 145.957V145.939C134.996 145.711 134.92 145.539 134.768 145.422C134.616 145.305 134.402 145.246 134.127 145.246H133.566V146.651H134.119ZM142.116 143.562H144.168V148.064H147.054V149.865H142.116V143.562ZM152.841 147.632L150.525 143.562H152.823L153.876 145.633L154.937 143.562H157.209L154.893 147.605V149.865H152.841V147.632Z" fill="#C3A464"/>
</svg>
