<svg width="523" height="580" viewBox="0 0 523 580" fill="none" xmlns="http://www.w3.org/2000/svg">
<g clip-path="url(#clip0_116_21)">
<path d="M210.886 44.9066L194.113 77.5864C192.927 77.0722 191.629 76.869 190.343 76.9958C189.057 77.1226 187.824 77.5753 186.76 78.3112C185.696 79.0472 184.836 80.0424 184.261 81.2032C183.686 82.3639 183.415 83.6523 183.473 84.947C183.53 86.2418 183.916 87.5006 184.592 88.605C185.269 89.7095 186.214 90.6233 187.339 91.2607C188.465 91.8981 189.733 92.2382 191.026 92.2489C192.318 92.2596 193.592 91.9406 194.728 91.3219L200.07 99.7722C199.384 100.35 198.923 101.152 198.769 102.037C198.614 102.922 198.775 103.834 199.224 104.611C199.672 105.389 200.379 105.984 201.222 106.29C202.064 106.597 202.987 106.597 203.828 106.289C204.67 105.982 205.377 105.386 205.825 104.608C206.273 103.83 206.433 102.919 206.277 102.034C206.122 101.149 205.66 100.348 204.974 99.7699C204.288 99.1923 203.421 98.8755 202.525 98.8751C201.975 98.8749 201.432 98.9949 200.934 99.2268L195.582 90.7664C196.593 90.0218 197.406 89.0385 197.947 87.9037C198.489 86.7688 198.743 85.5175 198.686 84.2607C198.63 83.0039 198.265 81.7804 197.625 80.6988C196.984 79.6172 196.087 78.711 195.013 78.0604L211.785 45.3806C213.317 46.0389 215.044 46.0772 216.603 45.4872C218.162 44.8973 219.433 43.7251 220.15 42.2162C220.866 40.7073 220.972 38.9789 220.446 37.3932C219.919 35.8076 218.801 34.4878 217.326 33.7105C215.851 32.9332 214.133 32.7587 212.532 33.2236C210.931 33.6885 209.572 34.7567 208.739 36.2043C207.906 37.6519 207.665 39.3665 208.065 40.9888C208.465 42.6111 209.476 44.0151 210.886 44.9066Z" fill="#26ACA5"/>
<path d="M104.956 73.3921C107.062 73.3921 108.768 71.6807 108.768 69.5696C108.768 67.4585 107.062 65.7471 104.956 65.7471C102.851 65.7471 101.145 67.4585 101.145 69.5696C101.145 71.6807 102.851 73.3921 104.956 73.3921Z" fill="#26ACA5"/>
<path d="M187.804 58.102C189.909 58.102 191.616 56.3906 191.616 54.2795C191.616 52.1684 189.909 50.457 187.804 50.457C185.699 50.457 183.992 52.1684 183.992 54.2795C183.992 56.3906 185.699 58.102 187.804 58.102Z" fill="#26ACA5"/>
<path d="M188.82 144.235C190.925 144.235 192.632 142.524 192.632 140.413C192.632 138.302 190.925 136.59 188.82 136.59C186.714 136.59 185.008 138.302 185.008 140.413C185.008 142.524 186.714 144.235 188.82 144.235Z" fill="#26ACA5"/>
<path d="M98.0943 270.123C100.901 270.123 103.177 267.841 103.177 265.026C103.177 262.212 100.901 259.93 98.0943 259.93C95.2873 259.93 93.0117 262.212 93.0117 265.026C93.0117 267.841 95.2873 270.123 98.0943 270.123Z" fill="#26ACA5"/>
<path d="M120.71 165.132C122.816 165.132 124.522 163.42 124.522 161.309C124.522 159.198 122.816 157.487 120.71 157.487C118.605 157.487 116.898 159.198 116.898 161.309C116.898 163.42 118.605 165.132 120.71 165.132Z" fill="#26ACA5"/>
<path d="M113.597 321.09C115.702 321.09 117.409 319.378 117.409 317.267C117.409 315.156 115.702 313.445 113.597 313.445C111.492 313.445 109.785 315.156 109.785 317.267C109.785 319.378 111.492 321.09 113.597 321.09Z" fill="#26ACA5"/>
<path d="M136.976 493.357C139.081 493.357 140.788 491.646 140.788 489.534C140.788 487.423 139.081 485.712 136.976 485.712C134.871 485.712 133.164 487.423 133.164 489.534C133.164 491.646 134.871 493.357 136.976 493.357Z" fill="#26ACA5"/>
<path d="M197.204 351.669C200.011 351.669 202.286 349.388 202.286 346.573C202.286 343.758 200.011 341.476 197.204 341.476C194.397 341.476 192.121 343.758 192.121 346.573C192.121 349.388 194.397 351.669 197.204 351.669Z" fill="#26ACA5"/>
<path d="M279.798 373.076C280.98 373.079 282.139 372.752 283.145 372.131C284.151 371.51 284.964 370.619 285.492 369.56C286.021 368.5 286.243 367.313 286.135 366.134C286.027 364.954 285.593 363.828 284.881 362.882L299.687 349.723C300.414 350.346 301.349 350.668 302.305 350.626C303.26 350.583 304.163 350.178 304.832 349.493C305.501 348.807 305.885 347.893 305.907 346.934C305.929 345.976 305.587 345.045 304.95 344.329C304.313 343.614 303.429 343.168 302.477 343.081C301.525 342.995 300.575 343.274 299.821 343.863C299.066 344.452 298.563 345.306 298.412 346.253C298.262 347.2 298.476 348.169 299.011 348.963L284.21 362.118C283.461 361.395 282.546 360.868 281.546 360.582C280.545 360.297 279.491 360.262 278.474 360.481C277.457 360.7 276.51 361.165 275.714 361.837C274.919 362.508 274.3 363.366 273.912 364.333C273.524 365.3 273.379 366.349 273.489 367.385C273.599 368.422 273.962 369.416 274.544 370.28C275.127 371.143 275.912 371.85 276.831 372.339C277.75 372.827 278.774 373.082 279.814 373.081L279.798 373.076Z" fill="#26ACA5"/>
<path d="M403.559 242.091C406.366 242.091 408.642 239.809 408.642 236.995C408.642 234.18 406.366 231.898 403.559 231.898C400.752 231.898 398.477 234.18 398.477 236.995C398.477 239.809 400.752 242.091 403.559 242.091Z" fill="#26ACA5"/>
<path d="M320.968 245.149C323.073 245.149 324.78 243.438 324.78 241.327C324.78 239.216 323.073 237.504 320.968 237.504C318.863 237.504 317.156 239.216 317.156 241.327C317.156 243.438 318.863 245.149 320.968 245.149Z" fill="#26ACA5"/>
<path d="M247.777 268.594C246.269 268.595 244.81 269.134 243.662 270.115C242.513 271.096 241.751 272.455 241.51 273.948C241.269 275.441 241.566 276.971 242.347 278.265C243.129 279.559 244.344 280.532 245.775 281.01L241.068 300.214C240.931 300.214 240.799 300.214 240.662 300.214C239.712 300.213 238.797 300.568 238.095 301.209C237.392 301.849 236.954 302.73 236.865 303.677C236.775 304.625 237.042 305.572 237.613 306.333C238.183 307.094 239.016 307.614 239.949 307.792C240.882 307.969 241.847 307.792 242.656 307.293C243.464 306.795 244.059 306.011 244.322 305.097C244.585 304.182 244.499 303.202 244.079 302.348C243.66 301.494 242.938 300.827 242.054 300.479L246.761 281.27C247.097 281.325 247.437 281.354 247.777 281.356C249.462 281.356 251.078 280.685 252.27 279.49C253.461 278.296 254.13 276.675 254.13 274.985C254.13 273.296 253.461 271.675 252.27 270.481C251.078 269.286 249.462 268.615 247.777 268.615V268.594Z" fill="#26ACA5"/>
<path d="M517.918 192.654C516.878 192.654 515.863 192.975 515.011 193.571L496.108 171.493C496.518 171.031 496.809 170.476 496.957 169.877C497.105 169.277 497.106 168.651 496.96 168.051C496.814 167.451 496.524 166.895 496.117 166.432C495.709 165.969 495.196 165.612 494.621 165.392C494.045 165.171 493.425 165.094 492.813 165.167C492.202 165.24 491.617 165.46 491.109 165.81C490.601 166.159 490.185 166.627 489.897 167.173C489.609 167.719 489.457 168.327 489.455 168.944V169.005L475.549 171.121C475.323 170.062 474.875 169.064 474.235 168.193C473.595 167.321 472.778 166.596 471.837 166.065C470.897 165.533 469.855 165.208 468.78 165.111C467.705 165.014 466.622 165.147 465.602 165.501C464.582 165.855 463.648 166.422 462.863 167.165C462.078 167.908 461.459 168.809 461.048 169.81C460.636 170.81 460.441 171.887 460.475 172.969C460.51 174.05 460.773 175.113 461.247 176.085L422.792 198C421.849 196.62 420.409 195.659 418.774 195.319C417.14 194.979 415.438 195.286 414.025 196.177C412.612 197.068 411.597 198.472 411.194 200.096C410.791 201.721 411.03 203.438 411.862 204.889C412.693 206.34 414.053 207.413 415.655 207.881C417.258 208.349 418.979 208.177 420.458 207.401C421.937 206.625 423.059 205.305 423.588 203.718C424.118 202.131 424.015 200.4 423.3 198.887L461.755 176.972C462.658 178.344 463.978 179.387 465.519 179.948C467.06 180.508 468.74 180.556 470.31 180.083C471.88 179.611 473.257 178.643 474.235 177.324C475.214 176.006 475.742 174.406 475.742 172.762C475.742 172.548 475.742 172.334 475.707 172.125L489.618 170.01C489.801 170.638 490.142 171.209 490.608 171.667C491.075 172.124 491.651 172.454 492.281 172.624L489.603 193.164H489.455C488.667 193.164 487.889 193.348 487.184 193.702C486.479 194.055 485.865 194.568 485.392 195.201C484.918 195.833 484.598 196.567 484.457 197.345C484.315 198.123 484.356 198.923 484.576 199.682L459.717 209.723C459.125 208.491 458.216 207.442 457.082 206.683C455.949 205.924 454.633 205.483 453.272 205.407C451.911 205.332 450.555 205.623 449.345 206.251C448.134 206.879 447.114 207.821 446.39 208.979C445.666 210.137 445.264 211.468 445.227 212.834C445.191 214.2 445.52 215.551 446.18 216.747C446.841 217.942 447.809 218.938 448.984 219.631C450.159 220.324 451.498 220.688 452.861 220.686C453.033 220.686 453.206 220.686 453.369 220.686L455.402 235.705C454.501 236.022 453.751 236.665 453.301 237.51C452.851 238.354 452.734 239.337 452.973 240.264C453.212 241.19 453.789 241.993 454.59 242.513C455.392 243.034 456.359 243.233 457.299 243.072C458.24 242.911 459.087 242.401 459.671 241.644C460.254 240.886 460.533 239.937 460.452 238.983C460.37 238.029 459.935 237.141 459.231 236.495C458.527 235.848 457.607 235.49 456.652 235.491H456.403L454.37 220.548C455.422 220.331 456.417 219.894 457.289 219.265C458.162 218.636 458.891 217.829 459.431 216.898C459.97 215.966 460.307 214.931 460.419 213.859C460.532 212.788 460.417 211.705 460.083 210.681L484.932 200.64C485.326 201.398 485.904 202.043 486.613 202.518C487.321 202.993 488.137 203.281 488.986 203.357C489.835 203.433 490.689 203.294 491.47 202.952C492.251 202.61 492.933 202.077 493.455 201.401C493.977 200.726 494.321 199.93 494.456 199.086C494.59 198.243 494.511 197.378 494.226 196.573C493.94 195.768 493.458 195.048 492.822 194.479C492.187 193.91 491.419 193.51 490.589 193.317L493.303 172.777C494.034 172.774 494.748 172.56 495.361 172.16L514.258 194.239C513.359 195.186 512.857 196.443 512.856 197.751C512.856 198.615 513.075 199.466 513.491 200.223L482.95 221.486C482.342 220.74 481.574 220.143 480.702 219.738C479.831 219.333 478.88 219.132 477.92 219.149C476.96 219.166 476.016 219.4 475.159 219.836C474.303 220.271 473.556 220.895 472.975 221.661C472.393 222.428 471.993 223.316 471.803 224.26C471.613 225.204 471.64 226.178 471.879 227.111C472.119 228.043 472.567 228.909 473.189 229.642C473.81 230.376 474.589 230.959 475.468 231.348L462.538 268.37C461.876 268.182 461.192 268.086 460.505 268.085C459.492 268.085 458.49 268.287 457.556 268.68C456.622 269.073 455.776 269.648 455.066 270.373L437.608 255.343C438.536 254.099 439.064 252.602 439.122 251.05C439.181 249.498 438.766 247.964 437.934 246.654C437.101 245.344 435.891 244.32 434.464 243.717C433.036 243.114 431.459 242.961 429.943 243.279L424.22 222.893C425.062 222.561 425.8 222.011 426.359 221.298C426.917 220.585 427.276 219.736 427.399 218.838C427.521 217.94 427.402 217.025 427.054 216.188C426.707 215.351 426.142 214.623 425.42 214.077C424.698 213.532 423.844 213.189 422.946 213.085C422.048 212.981 421.138 213.119 420.311 213.485C419.484 213.851 418.769 214.432 418.24 215.167C417.711 215.902 417.388 216.766 417.303 217.668L372.007 217.882C371.88 216.969 371.429 216.132 370.736 215.526C370.043 214.92 369.155 214.586 368.235 214.585C367.937 214.587 367.641 214.623 367.351 214.692L360.815 197.644C362.149 197.001 363.217 195.911 363.834 194.563C364.451 193.214 364.579 191.691 364.194 190.258C363.81 188.825 362.938 187.572 361.73 186.716C360.521 185.859 359.052 185.453 357.577 185.568C356.102 185.683 354.713 186.312 353.651 187.346C352.589 188.379 351.921 189.753 351.762 191.228C351.604 192.703 351.965 194.188 352.782 195.425C353.6 196.661 354.823 197.573 356.24 198L350.284 225.324C350.091 225.301 349.898 225.29 349.704 225.288C348.694 225.288 347.706 225.59 346.868 226.156C346.03 226.721 345.378 227.525 344.998 228.463L287.137 211.349C287.169 211.155 287.186 210.959 287.188 210.762C287.178 209.925 286.894 209.113 286.379 208.453C285.864 207.793 285.147 207.321 284.338 207.11C283.529 206.898 282.674 206.959 281.903 207.283C281.132 207.607 280.489 208.176 280.072 208.902L217.729 184.285C217.969 183.536 218.091 182.753 218.09 181.966C218.09 180.716 217.785 179.484 217.2 178.38C216.615 177.275 215.769 176.331 214.735 175.631L224.743 158.399C225.797 158.905 226.97 159.11 228.132 158.992C229.294 158.873 230.402 158.435 231.332 157.726C232.262 157.017 232.98 156.064 233.405 154.973C233.83 153.882 233.947 152.694 233.743 151.54C233.539 150.387 233.021 149.312 232.247 148.434C231.474 147.556 230.473 146.909 229.356 146.565C228.24 146.22 227.05 146.191 225.917 146.48C224.785 146.77 223.755 147.367 222.939 148.206L187.747 119.038C188.472 117.951 188.753 116.626 188.531 115.338C188.31 114.049 187.603 112.895 186.556 112.115C185.51 111.334 184.205 110.987 182.91 111.144C181.616 111.302 180.431 111.952 179.601 112.961C178.772 113.97 178.36 115.26 178.453 116.564C178.545 117.869 179.134 119.088 180.097 119.969C181.06 120.85 182.324 121.327 183.628 121.299C184.932 121.272 186.175 120.743 187.101 119.823L222.288 148.991C221.809 149.677 221.469 150.451 221.289 151.27C221.109 152.088 221.091 152.933 221.238 153.758C221.384 154.583 221.692 155.371 222.142 156.076C222.593 156.782 223.178 157.391 223.864 157.869L213.851 175.106C212.687 174.518 211.393 174.239 210.091 174.296C208.789 174.352 207.524 174.742 206.415 175.429C205.306 176.115 204.391 177.075 203.758 178.217C203.125 179.359 202.793 180.644 202.796 181.951C202.798 182.543 202.868 183.133 203.005 183.709L163.147 196.038C162.596 194.594 161.621 193.351 160.35 192.473C159.08 191.596 157.574 191.126 156.031 191.125C155.472 191.125 154.915 191.189 154.369 191.314L150.532 178.23L195.767 157.727C196.254 158.508 197.006 159.086 197.884 159.356C198.762 159.625 199.708 159.568 200.548 159.194C201.387 158.82 202.063 158.155 202.453 157.32C202.842 156.486 202.917 155.539 202.666 154.653C202.414 153.767 201.852 153.002 201.082 152.499C200.313 151.996 199.388 151.788 198.479 151.914C197.569 152.04 196.735 152.491 196.13 153.184C195.525 153.878 195.191 154.767 195.188 155.688C195.188 156.059 195.241 156.428 195.345 156.784L150.227 177.242L142.679 151.504C143.615 151.121 144.415 150.468 144.979 149.627C145.542 148.787 145.843 147.797 145.843 146.784C145.843 145.771 145.542 144.781 144.979 143.941C144.415 143.1 143.615 142.447 142.679 142.065L154.959 100.272C155.388 100.364 155.826 100.41 156.265 100.41C156.498 100.409 156.73 100.395 156.962 100.369L165.749 146.009C164.209 146.447 162.897 147.465 162.087 148.85C161.278 150.235 161.033 151.88 161.405 153.442C161.777 155.003 162.736 156.36 164.082 157.229C165.428 158.098 167.058 158.412 168.629 158.105C170.2 157.797 171.593 156.893 172.515 155.58C173.437 154.268 173.817 152.649 173.577 151.062C173.336 149.474 172.493 148.042 171.224 147.063C169.955 146.085 168.357 145.636 166.766 145.811L157.983 100.17C159.116 99.8576 160.139 99.2357 160.94 98.3737C161.741 97.5117 162.287 96.4435 162.517 95.2885C162.748 94.1334 162.653 92.9368 162.245 91.8324C161.836 90.7279 161.13 89.759 160.204 89.0338L168.906 75.864C169.588 76.2258 170.343 76.427 171.115 76.4525C171.886 76.4779 172.653 76.3269 173.357 76.0108C174.062 75.6948 174.685 75.2221 175.18 74.6284C175.675 74.0348 176.029 73.3359 176.215 72.5848C176.401 71.8337 176.413 71.05 176.252 70.2932C176.091 69.5364 175.76 68.8264 175.284 68.217C174.808 67.6076 174.2 67.1149 173.507 66.7762C172.813 66.4374 172.051 66.2615 171.279 66.2619H171.081L168.494 47.761C169.295 47.5356 170 47.0542 170.503 46.39C171.005 45.7258 171.278 44.9151 171.279 44.0812C171.278 43.71 171.223 43.341 171.117 42.9855L191.793 33.6382C192.411 34.7077 193.397 35.5152 194.565 35.9103C195.733 36.3054 197.005 36.261 198.143 35.7856C199.282 35.3102 200.209 34.4361 200.752 33.3261C201.295 32.2161 201.417 30.946 201.096 29.7523C200.775 28.5586 200.031 27.5228 199.005 26.8378C197.978 26.1528 196.739 25.8653 195.516 26.029C194.294 26.1926 193.173 26.7962 192.362 27.7273C191.55 28.6583 191.104 29.8534 191.106 31.0898C191.108 31.6408 191.197 32.1879 191.371 32.7106L170.7 42.063C170.409 41.5933 170.019 41.1927 169.558 40.8891C169.097 40.5854 168.576 40.386 168.031 40.3045C167.485 40.223 166.929 40.2615 166.4 40.4173C165.871 40.5731 165.382 40.8425 164.967 41.2067L132.092 12.2883C132.909 11.22 133.43 9.95462 133.602 8.61989C133.774 7.28515 133.592 5.92842 133.074 4.68683C132.556 3.44524 131.721 2.36279 130.652 1.54891C129.583 0.73502 128.318 0.218541 126.987 0.0516683C125.655 -0.115205 124.303 0.0734492 123.067 0.598555C121.831 1.12366 120.755 1.9666 119.948 3.04219C119.142 4.11778 118.632 5.3879 118.472 6.72414C118.312 8.06039 118.506 9.4154 119.035 10.6522L90.0287 25.4835C89.4511 24.535 88.6357 23.7547 87.664 23.2202C86.6923 22.6857 85.598 22.4157 84.4899 22.4369C83.3817 22.4581 82.2984 22.7699 81.3477 23.3412C80.3971 23.9125 79.6121 24.7235 79.071 25.6934C78.5298 26.6633 78.2513 27.7584 78.2632 28.8697C78.2751 29.981 78.577 31.0699 79.1387 32.0279C79.7005 32.986 80.5026 33.7799 81.4652 34.3306C82.4279 34.8814 83.5175 35.1698 84.6259 35.1672C84.9665 35.1654 85.3064 35.1364 85.6424 35.0805L98.4607 87.9584C97.7065 88.2219 97.0249 88.6599 96.4711 89.2369C95.9172 89.8139 95.5068 90.5136 95.273 91.2794C95.0392 92.0452 94.9887 92.8554 95.1255 93.6445C95.2623 94.4335 95.5826 95.179 96.0605 95.8207C96.5383 96.4624 97.1603 96.9822 97.8759 97.3378C98.5914 97.6935 99.3806 97.875 100.179 97.8677C100.978 97.8605 101.763 97.6646 102.472 97.296C103.181 96.9274 103.794 96.3964 104.26 95.7461L129.388 110.409C129.196 110.873 129.097 111.37 129.099 111.872C129.098 112.778 129.417 113.655 130.001 114.347C130.584 115.039 131.394 115.501 132.285 115.651C133.176 115.801 134.092 115.629 134.868 115.165C135.645 114.701 136.232 113.977 136.526 113.119C136.819 112.262 136.8 111.329 136.472 110.484C136.143 109.64 135.526 108.94 134.731 108.509C133.937 108.078 133.015 107.944 132.13 108.13C131.246 108.317 130.456 108.812 129.902 109.527L104.748 94.8644C105.053 94.2047 105.21 93.4864 105.21 92.7594C105.21 91.4077 104.675 90.1114 103.722 89.1556C102.769 88.1998 101.476 87.6628 100.128 87.6628C99.8929 87.6634 99.6585 87.6821 99.4265 87.7188L86.6132 34.8461C87.8828 34.426 88.9881 33.6153 89.7719 32.5292C90.5557 31.4432 90.9781 30.137 90.9791 28.7963C90.9797 27.9636 90.8156 27.1391 90.4963 26.3703L119.508 11.5594C120.183 12.6956 121.141 13.6366 122.287 14.2905C123.434 14.9445 124.73 15.2889 126.049 15.2902H126.207L128.006 35.7839C127.179 35.9695 126.437 36.4267 125.898 37.0829C125.36 37.7392 125.055 38.5569 125.032 39.4066C125.009 40.2563 125.27 41.0893 125.773 41.7736C126.275 42.4579 126.992 42.9543 127.808 43.1842L126.664 51.2115L115.157 47.2106C115.291 46.6894 115.361 46.1536 115.365 45.6153C115.371 44.0363 114.792 42.5115 113.741 41.3355C112.69 40.1596 111.242 39.4161 109.676 39.2489C108.11 39.0816 106.538 39.5024 105.264 40.43C103.99 41.3576 103.104 42.726 102.777 44.2706C102.45 45.8153 102.707 47.4265 103.496 48.7928C104.285 50.1591 105.552 51.1833 107.051 51.6676C108.549 52.1518 110.174 52.0616 111.61 51.4144C113.047 50.7672 114.193 49.609 114.827 48.1637L126.517 52.241L125.094 62.2254C124.906 62.2254 124.717 62.1948 124.524 62.1948C123.248 62.193 121.991 62.5127 120.869 63.1246C119.748 63.7366 118.798 64.6212 118.106 65.6973C117.414 66.7733 117.003 68.0064 116.91 69.2833C116.817 70.5602 117.045 71.84 117.574 73.0054C118.103 74.1708 118.915 75.1843 119.936 75.9531C120.957 76.7219 122.154 77.2212 123.417 77.4053C124.681 77.5894 125.97 77.4524 127.167 77.0067C128.364 76.5611 129.43 75.8212 130.268 74.8549L150.944 90.6137C150.434 91.4079 150.107 92.3059 149.986 93.2427C149.865 94.1794 149.954 95.1314 150.246 96.0294C150.538 96.9273 151.026 97.7488 151.674 98.4342C152.322 99.1196 153.114 99.6516 153.993 99.9916L141.709 141.784C141.399 141.725 141.084 141.695 140.768 141.692C139.42 141.692 138.128 142.229 137.174 143.185C136.221 144.141 135.686 145.437 135.686 146.789C135.686 148.141 136.221 149.437 137.174 150.393C138.128 151.349 139.42 151.886 140.768 151.886C141.082 151.884 141.395 151.853 141.704 151.794L149.292 177.67L143.742 180.188C143.36 179.572 142.81 179.077 142.158 178.763C141.506 178.449 140.778 178.327 140.06 178.413C139.342 178.499 138.662 178.788 138.102 179.246C137.541 179.705 137.123 180.314 136.895 181.003L117.348 177.288C117.374 177.061 117.388 176.833 117.388 176.605C117.397 174.979 116.79 173.411 115.689 172.218C114.588 171.025 113.076 170.296 111.459 170.179C109.843 170.062 108.242 170.566 106.982 171.588C105.721 172.61 104.896 174.075 104.672 175.684C104.448 177.294 104.843 178.929 105.776 180.258C106.71 181.587 108.112 182.51 109.699 182.841C111.286 183.172 112.939 182.886 114.324 182.04C115.708 181.194 116.72 179.852 117.155 178.287L136.712 182.007C136.712 182.073 136.712 182.14 136.712 182.211C136.712 183.225 137.114 184.197 137.829 184.914C138.544 185.631 139.513 186.033 140.524 186.033C141.535 186.033 142.505 185.631 143.22 184.914C143.935 184.197 144.336 183.225 144.336 182.211C144.335 181.84 144.28 181.471 144.174 181.115L149.592 178.659L153.394 191.609C152.442 191.961 151.57 192.5 150.829 193.195C150.088 193.889 149.493 194.724 149.077 195.652C148.662 196.58 148.436 197.582 148.412 198.598C148.387 199.615 148.566 200.626 148.936 201.573L123.798 213.474C123.412 212.832 122.89 212.284 122.269 211.868C121.648 211.452 120.943 211.178 120.204 211.066C119.466 210.954 118.711 211.007 117.995 211.22C117.279 211.434 116.619 211.803 116.062 212.302L98.4303 196.11C98.9779 195.315 99.2042 194.342 99.0634 193.387C98.9226 192.432 98.4252 191.567 97.6719 190.965C96.9186 190.364 95.9656 190.072 95.0059 190.149C94.0461 190.226 93.1512 190.665 92.5024 191.378C91.8536 192.092 91.4993 193.025 91.5111 193.991C91.5229 194.956 91.9 195.881 92.5661 196.578C93.2322 197.275 94.1376 197.693 95.0989 197.746C96.0603 197.799 97.0057 197.483 97.7441 196.864L115.371 213.041C114.712 213.925 114.359 215.001 114.365 216.105C114.372 217.208 114.737 218.28 115.406 219.157L101.592 232.133L84.7835 217.862C85.1762 217.255 85.3862 216.547 85.3883 215.823C85.3883 214.81 84.9867 213.837 84.2718 213.12C83.557 212.404 82.5873 212.001 81.5763 212.001C80.5653 212.001 79.5958 212.404 78.8809 213.12C78.166 213.837 77.7643 214.81 77.7643 215.823C77.7632 216.245 77.8338 216.664 77.9728 217.062L59.5585 226.292C58.9926 225.357 58.1956 224.584 57.2446 224.049C56.2937 223.513 55.221 223.232 54.1303 223.234C53.707 223.235 53.2847 223.277 52.8698 223.361L46.608 201.446C47.3963 201.131 48.0935 200.623 48.636 199.969C49.1784 199.315 49.5488 198.534 49.7135 197.7L62.5216 198.918C62.5191 198.948 62.5191 198.979 62.5216 199.01C62.5198 200.072 62.7831 201.118 63.2875 202.053C63.7919 202.988 64.5214 203.781 65.4096 204.361C66.2979 204.94 67.3166 205.288 68.3731 205.372C69.4295 205.456 70.4901 205.273 71.4582 204.841C72.4264 204.409 73.2715 203.741 73.9164 202.898C74.5613 202.054 74.9855 201.063 75.1506 200.013C75.3156 198.963 75.2162 197.889 74.8613 196.887C74.5065 195.886 73.9075 194.99 73.1189 194.28L114.212 140.393C115.87 141.51 117.897 141.937 119.864 141.584C121.831 141.231 123.584 140.124 124.753 138.499C125.921 136.873 126.414 134.856 126.126 132.873C125.839 130.89 124.794 129.097 123.212 127.872C121.63 126.647 119.636 126.087 117.65 126.31C115.664 126.533 113.842 127.521 112.57 129.066C111.297 130.611 110.673 132.591 110.83 134.589C110.986 136.586 111.911 138.445 113.409 139.771L72.3107 193.673C71.4311 193.103 70.4244 192.76 69.3803 192.675C68.3362 192.59 67.2873 192.765 66.3274 193.186C65.3674 193.606 64.5264 194.259 63.8791 195.084C63.2319 195.91 62.7986 196.884 62.6182 197.919L49.805 196.701C49.8021 195.874 49.5987 195.06 49.2122 194.33C48.8258 193.6 48.268 192.974 47.5869 192.508C46.9058 192.042 46.1218 191.75 45.3027 191.655C44.4836 191.561 43.6539 191.668 42.8851 191.967C42.1163 192.265 41.4316 192.747 40.89 193.371C40.3484 193.994 39.9663 194.74 39.7764 195.545C39.5866 196.35 39.5947 197.188 39.8002 197.989C40.0058 198.79 40.4025 199.528 40.9562 200.141L27.3145 215.242C26.7527 214.854 26.0974 214.625 25.417 214.577C24.7366 214.53 24.0559 214.666 23.446 214.973C22.8361 215.279 22.3193 215.743 21.9494 216.318C21.5796 216.893 21.3703 217.556 21.3434 218.24C21.3165 218.923 21.473 219.601 21.7965 220.204C22.12 220.806 22.5987 221.31 23.1827 221.663C23.7666 222.017 24.4345 222.206 25.1165 222.213C25.7986 222.219 26.4698 222.042 27.0603 221.7L55.9498 259.303C55.1382 260.018 54.4881 260.898 54.0428 261.885C53.5976 262.872 53.3675 263.943 53.3679 265.027C53.3661 265.29 53.3797 265.554 53.4085 265.817L12.4885 272.875C12.1524 271.565 11.4086 270.396 10.3651 269.538C9.32148 268.68 8.0324 268.178 6.68494 268.104C5.33749 268.031 4.00174 268.39 2.87156 269.129C1.74139 269.869 0.875591 270.95 0.399813 272.216C-0.0759647 273.483 -0.136914 274.868 0.225719 276.171C0.588352 277.475 1.35575 278.628 2.41654 279.465C3.47733 280.301 4.77628 280.777 6.12494 280.823C7.4736 280.869 8.80175 280.483 9.91667 279.72L22.3843 295.27C21.9556 295.723 21.6441 296.274 21.477 296.876C21.31 297.478 21.2924 298.111 21.4259 298.721C21.5594 299.331 21.8399 299.899 22.2429 300.375C22.6458 300.851 23.1589 301.221 23.7373 301.452C24.3157 301.683 24.9419 301.769 25.561 301.702C26.1801 301.634 26.7733 301.416 27.2887 301.065C27.8041 300.715 28.226 300.243 28.5176 299.691C28.8091 299.139 28.9615 298.524 28.9612 297.9C28.9601 297.64 28.9329 297.38 28.8799 297.125L40.1175 293.175C40.5773 294.161 41.3394 294.973 42.2924 295.493C43.2454 296.012 44.3393 296.213 45.4141 296.064C46.4888 295.916 47.488 295.427 48.2655 294.668C49.0431 293.91 49.5581 292.921 49.7354 291.848C49.9126 290.775 49.7428 289.673 49.2507 288.703C48.7586 287.734 47.9701 286.948 47.0004 286.46C46.0307 285.972 44.9308 285.808 43.8615 285.992C42.7923 286.176 41.8098 286.698 41.0578 287.482L36.0514 283.533C36.5467 282.695 36.706 281.7 36.4971 280.749C36.2882 279.799 35.7268 278.963 34.9265 278.412C34.1262 277.86 33.1468 277.635 32.1868 277.78C31.2268 277.926 30.3579 278.432 29.7561 279.196C29.1543 279.96 28.8647 280.925 28.9457 281.895C29.0268 282.866 29.4725 283.769 30.1927 284.422C30.9129 285.075 31.8537 285.429 32.8245 285.412C33.7953 285.396 34.7235 285.01 35.4212 284.333L40.4326 288.288C39.911 289.103 39.634 290.051 39.6347 291.02C39.6354 291.423 39.6831 291.825 39.777 292.217L28.5393 296.167C28.3025 295.699 27.9718 295.285 27.5677 294.951C27.1637 294.617 26.6952 294.371 26.1917 294.227C25.6881 294.083 25.1603 294.046 24.6416 294.117C24.1228 294.187 23.6243 294.365 23.1772 294.638L10.7045 279.083C11.3339 278.49 11.8354 277.774 12.178 276.979C12.5207 276.184 12.6973 275.327 12.6969 274.46C12.6969 274.267 12.6969 274.073 12.6664 273.885L53.5763 266.826C53.8294 267.905 54.3138 268.917 54.9959 269.79C55.6779 270.663 56.5412 271.377 57.5259 271.882C58.5107 272.387 59.5932 272.671 60.6984 272.715C61.8036 272.759 62.9051 272.56 63.9263 272.134C64.9475 271.708 65.864 271.065 66.6123 270.248C67.3605 269.431 67.9227 268.461 68.2595 267.404C68.5964 266.348 68.7 265.231 68.5632 264.13C68.4263 263.029 68.0522 261.972 67.467 261.031L83.589 249.528C84.4669 250.487 85.6776 251.073 86.9726 251.165C88.2676 251.258 89.549 250.85 90.5535 250.025C91.5581 249.2 92.2097 248.021 92.3748 246.73C92.54 245.438 92.2062 244.133 91.4417 243.08L101.607 233.529L118.38 247.759C117.251 249.311 116.747 251.232 116.967 253.14C117.187 255.048 118.114 256.803 119.566 258.056C121.017 259.309 122.886 259.968 124.8 259.903C126.714 259.838 128.534 259.052 129.897 257.703L150.568 275.908C150.152 276.534 149.931 277.271 149.932 278.023C149.933 278.421 149.994 278.816 150.115 279.195L141.078 283.533L120.336 274.924C120.421 274.605 120.466 274.276 120.468 273.946C120.467 273.016 120.128 272.118 119.516 271.42C118.903 270.722 118.058 270.271 117.138 270.152C116.219 270.032 115.287 270.251 114.517 270.769C113.747 271.287 113.191 272.069 112.953 272.967C112.714 273.866 112.81 274.821 113.222 275.654C113.633 276.487 114.333 277.142 115.19 277.496C116.048 277.85 117.004 277.88 117.882 277.579C118.759 277.279 119.498 276.668 119.96 275.862L139.854 284.124L125.205 291.137C124.64 290.16 123.825 289.351 122.846 288.793C121.866 288.236 120.755 287.95 119.629 287.964C118.502 287.979 117.4 288.294 116.435 288.876C115.469 289.459 114.676 290.288 114.135 291.279L90.3336 280.627C90.4378 280.279 90.4909 279.916 90.4912 279.552C90.4908 278.938 90.3428 278.333 90.0598 277.788C89.7767 277.243 89.3669 276.775 88.8651 276.423C88.3632 276.071 87.784 275.845 87.1767 275.765C86.5694 275.684 85.9517 275.752 85.3761 275.962C84.8004 276.172 84.2838 276.518 83.8698 276.971C83.4558 277.424 83.1566 277.97 82.9977 278.563C82.8388 279.156 82.8249 279.779 82.957 280.379C83.0891 280.979 83.3635 281.538 83.7568 282.009L68.5953 298.665C67.6045 297.932 66.3822 297.585 65.1554 297.687C63.9285 297.79 62.7806 298.336 61.9248 299.223C61.0689 300.111 60.5635 301.279 60.5022 302.512C60.4409 303.745 60.828 304.959 61.5916 305.927L47.3247 319.877C46.8466 319.504 46.2865 319.25 45.6911 319.138C45.0956 319.025 44.482 319.057 43.9012 319.23C43.3204 319.403 42.7892 319.713 42.3518 320.133C41.9143 320.553 41.5833 321.073 41.3862 321.647C41.1891 322.222 41.1316 322.835 41.2185 323.436C41.3054 324.038 41.5341 324.61 41.8858 325.104C42.2374 325.599 42.7018 326.003 43.2402 326.281C43.7787 326.56 44.3757 326.706 44.9816 326.706C45.6903 326.708 46.3855 326.512 46.9888 326.139C47.5922 325.766 48.0798 325.232 48.3967 324.596C48.7137 323.961 48.8474 323.249 48.7828 322.541C48.7182 321.833 48.4579 321.158 48.0312 320.59L62.2929 306.641C63.2794 307.455 64.5355 307.867 65.8112 307.795C67.0868 307.722 68.2885 307.17 69.1768 306.249C70.0651 305.328 70.5749 304.106 70.6047 302.825C70.6344 301.544 70.182 300.299 69.3375 299.337L84.4835 282.687C84.9081 282.983 85.3885 283.189 85.8951 283.292C86.4018 283.396 86.9243 283.394 87.4305 283.288C87.9367 283.182 88.416 282.974 88.8391 282.676C89.2623 282.378 89.6204 281.997 89.8915 281.555L113.703 292.207C113.36 293.175 113.255 294.212 113.397 295.229C113.539 296.246 113.925 297.214 114.521 298.05C115.116 298.886 115.905 299.564 116.819 300.028C117.733 300.492 118.745 300.728 119.77 300.715C120.794 300.702 121.8 300.44 122.702 299.953C123.604 299.466 124.375 298.767 124.949 297.916C125.524 297.065 125.885 296.088 126.001 295.067C126.117 294.047 125.985 293.013 125.617 292.054L141.078 284.649L150.1 288.39L140.606 320.121C139.992 320.023 139.364 320.077 138.776 320.277C138.188 320.478 137.657 320.82 137.231 321.273C136.805 321.726 136.495 322.276 136.33 322.877C136.164 323.477 136.147 324.109 136.281 324.718C136.414 325.326 136.694 325.893 137.096 326.368C137.498 326.843 138.009 327.213 138.586 327.444C139.162 327.676 139.787 327.763 140.405 327.697C141.022 327.632 141.615 327.416 142.131 327.068L160.006 347.307L151.752 357.638C150.91 357.049 149.958 356.637 148.954 356.426C147.949 356.215 146.913 356.209 145.906 356.41C144.9 356.61 143.944 357.012 143.096 357.592C142.248 358.172 141.525 358.917 140.972 359.784L111.406 343.474C111.818 342.516 111.927 341.455 111.717 340.433C111.508 339.41 110.991 338.477 110.237 337.759C109.482 337.041 108.525 336.573 107.496 336.417C106.468 336.262 105.416 336.427 104.484 336.889L91.8584 316.569C93.0602 315.704 93.9849 314.506 94.5197 313.123C95.0545 311.74 95.1764 310.23 94.8705 308.779C94.5646 307.327 93.8441 305.996 92.7969 304.948C91.7496 303.9 90.4209 303.18 88.9728 302.876C87.5246 302.573 86.0195 302.698 84.6411 303.237C83.2627 303.776 82.0705 304.706 81.2099 305.913C80.3493 307.119 79.8575 308.551 79.7944 310.033C79.7313 311.516 80.0997 312.984 80.8546 314.26L51.9346 334.137C51.3848 333.456 50.7006 332.896 49.925 332.493C49.1493 332.09 48.2989 331.851 47.4271 331.793C46.5552 331.734 45.6807 331.857 44.8585 332.154C44.0362 332.45 43.2839 332.914 42.6487 333.516L19.3246 312.369C19.9761 311.498 20.3324 310.441 20.3411 309.352C20.3383 309.079 20.3145 308.806 20.27 308.537L37.4034 303.95C37.777 304.864 38.4834 305.602 39.3795 306.014C40.2756 306.426 41.2943 306.48 42.229 306.167C43.1637 305.853 43.9445 305.195 44.413 304.325C44.8816 303.456 45.0029 302.44 44.7523 301.484C44.5017 300.528 43.898 299.703 43.0635 299.177C42.2291 298.651 41.2264 298.463 40.2587 298.651C39.2911 298.839 38.4309 299.389 37.8525 300.189C37.2741 300.989 37.0209 301.98 37.1442 302.961L20.0057 307.548C19.622 306.529 18.9226 305.659 18.0101 305.068C17.0975 304.476 16.0199 304.193 14.9353 304.261C13.8507 304.328 12.8163 304.743 11.9838 305.443C11.1513 306.143 10.5646 307.093 10.3097 308.152C10.0547 309.211 10.1451 310.324 10.5674 311.328C10.9898 312.332 11.7219 313.174 12.6564 313.73C13.5909 314.287 14.6785 314.528 15.7597 314.419C16.8409 314.309 17.8587 313.856 18.6639 313.124L41.9676 334.29C41.2662 335.205 40.8257 336.293 40.693 337.439C40.5604 338.585 40.7405 339.746 41.2143 340.797C41.688 341.849 42.4376 342.751 43.383 343.409C44.3284 344.066 45.4341 344.454 46.5821 344.531C47.7301 344.607 48.8773 344.37 49.9012 343.844C50.9252 343.318 51.7874 342.522 52.3959 341.543C53.0044 340.564 53.3363 339.438 53.3562 338.284C53.3761 337.131 53.0833 335.993 52.5089 334.994L81.4289 315.117C82.6043 316.613 84.2963 317.613 86.171 317.92L83.4568 346.069C82.4458 346.087 81.4838 346.508 80.7823 347.239C80.0807 347.969 79.6972 348.949 79.7161 349.962C79.735 350.976 80.1547 351.941 80.8829 352.644C81.6111 353.348 82.5882 353.732 83.5992 353.714H83.7873L95.1368 415.088C93.9623 415.431 92.9507 416.188 92.2879 417.219C91.625 418.25 91.3553 419.487 91.5283 420.701C91.7013 421.916 92.3054 423.027 93.2297 423.831C94.154 424.634 95.3363 425.077 96.5598 425.077C96.9871 425.076 97.4125 425.019 97.8254 424.909L117.022 477.144C115.705 477.751 114.635 478.791 113.989 480.092C113.343 481.393 113.161 482.876 113.472 484.296C113.783 485.715 114.569 486.985 115.699 487.894C116.83 488.804 118.236 489.298 119.686 489.295C120.417 489.294 121.143 489.165 121.83 488.913L156.489 565.633C155.107 566.375 153.987 567.527 153.281 568.931C152.576 570.335 152.319 571.923 152.546 573.479C152.773 575.034 153.473 576.482 154.55 577.624C155.627 578.767 157.03 579.548 158.566 579.862C160.102 580.176 161.698 580.008 163.135 579.38C164.572 578.752 165.782 577.695 166.598 576.352C167.415 575.01 167.798 573.448 167.698 571.879C167.597 570.31 167.016 568.811 166.034 567.585L188.397 546.994C189.129 547.612 190.067 547.928 191.022 547.879C191.977 547.829 192.877 547.418 193.541 546.728C194.205 546.038 194.583 545.121 194.598 544.162C194.613 543.203 194.265 542.275 193.623 541.564C192.981 540.853 192.094 540.413 191.141 540.333C190.188 540.254 189.241 540.54 188.49 541.134C187.74 541.728 187.242 542.586 187.099 543.534C186.955 544.482 187.176 545.449 187.716 546.24L165.353 566.841C164.381 565.909 163.179 565.253 161.871 564.94L164.84 547.382C164.956 547.382 165.068 547.382 165.185 547.382C166.533 547.382 167.826 546.845 168.779 545.889C169.732 544.933 170.268 543.637 170.268 542.285C170.268 540.933 169.732 539.637 168.779 538.681C167.826 537.725 166.533 537.188 165.185 537.188C164.909 537.191 164.634 537.215 164.362 537.26L158.446 515.273L172.911 501.787L177.709 507.755C176.786 508.829 176.18 510.14 175.957 511.539C175.735 512.939 175.905 514.374 176.448 515.682C176.992 516.991 177.887 518.122 179.035 518.95C180.183 519.778 181.537 520.269 182.947 520.369C184.358 520.469 185.768 520.174 187.02 519.517C188.273 518.86 189.319 517.867 190.041 516.648C190.763 515.429 191.133 514.033 191.109 512.616C191.085 511.198 190.669 509.815 189.907 508.621L203.513 501.445C203.832 501.896 204.244 502.272 204.721 502.547C205.198 502.823 205.73 502.991 206.278 503.041L207.157 522.994C205.867 523.183 204.699 523.862 203.894 524.891C203.089 525.92 202.709 527.219 202.833 528.521C202.957 529.823 203.575 531.027 204.559 531.884C205.544 532.742 206.819 533.187 208.121 533.129C209.424 533.07 210.654 532.511 211.558 531.568C212.461 530.626 212.969 529.371 212.976 528.063C212.982 526.756 212.488 525.496 211.594 524.544C210.7 523.592 209.476 523.021 208.174 522.948L207.289 502.995C208.071 502.857 208.789 502.479 209.346 501.912C209.902 501.346 210.269 500.619 210.394 499.834C210.519 499.049 210.397 498.244 210.045 497.531C209.692 496.819 209.127 496.235 208.428 495.859L215.035 478.327C215.606 478.495 216.199 478.581 216.794 478.582C218.479 478.582 220.095 477.911 221.286 476.716C222.478 475.521 223.147 473.901 223.147 472.211C223.147 470.521 222.478 468.901 221.286 467.706C220.095 466.511 218.479 465.84 216.794 465.84H216.647L214.004 440.25C214.807 440.084 215.558 439.726 216.193 439.205C216.829 438.685 217.329 438.019 217.652 437.262C217.974 436.506 218.109 435.683 218.046 434.863C217.982 434.043 217.722 433.251 217.287 432.554L248.682 408.161C249.218 408.689 249.897 409.047 250.634 409.19C251.372 409.332 252.135 409.253 252.827 408.963C253.52 408.672 254.112 408.182 254.528 407.556C254.945 406.929 255.167 406.193 255.168 405.44C255.167 404.769 254.992 404.11 254.659 403.528L317.064 355.202C318.41 356.642 320.26 357.505 322.226 357.609C324.192 357.712 326.122 357.049 327.612 355.759C329.101 354.468 330.035 352.649 330.218 350.683C330.4 348.717 329.817 346.757 328.591 345.212L361.516 313.373C362.274 314.046 363.181 314.528 364.162 314.778C365.143 315.027 366.17 315.038 367.156 314.81C368.142 314.581 369.059 314.119 369.831 313.462C370.603 312.806 371.207 311.973 371.593 311.035C371.979 310.097 372.136 309.079 372.05 308.068C371.964 307.057 371.638 306.081 371.1 305.221C370.561 304.362 369.826 303.644 368.954 303.127C368.083 302.611 367.101 302.311 366.09 302.253L365.074 250.715C366.371 250.584 367.569 249.959 368.419 248.967C369.269 247.976 369.707 246.695 369.642 245.389C369.577 244.083 369.013 242.852 368.068 241.951C367.124 241.05 365.87 240.547 364.566 240.547C363.262 240.547 362.008 241.05 361.063 241.951C360.118 242.852 359.555 244.083 359.489 245.389C359.424 246.695 359.862 247.976 360.712 248.967C361.562 249.959 362.76 250.584 364.057 250.715L365.074 302.242C363.931 302.359 362.841 302.785 361.92 303.473C360.999 304.161 360.281 305.087 359.842 306.152C359.404 307.217 359.261 308.381 359.43 309.521C359.598 310.66 360.072 311.733 360.799 312.624L327.879 344.463C326.728 343.41 325.281 342.737 323.735 342.536C322.19 342.336 320.62 342.617 319.239 343.342L313.018 333.103C313.821 332.519 314.476 331.755 314.932 330.871C315.387 329.988 315.63 329.01 315.64 328.016C315.651 327.021 315.429 326.038 314.992 325.145C314.555 324.252 313.916 323.475 313.126 322.874C312.335 322.274 311.415 321.867 310.44 321.687C309.464 321.508 308.461 321.56 307.509 321.839C306.557 322.118 305.684 322.618 304.959 323.296C304.234 323.975 303.678 324.815 303.335 325.748L273.856 317.451C273.936 317.048 273.977 316.638 273.978 316.228C273.977 315.443 273.83 314.665 273.546 313.934L293.526 304.347C293.908 304.991 294.427 305.543 295.045 305.963C295.664 306.383 296.368 306.661 297.106 306.778C297.844 306.894 298.599 306.846 299.316 306.636C300.034 306.426 300.696 306.061 301.257 305.565C301.817 305.069 302.262 304.456 302.559 303.768C302.856 303.081 302.998 302.336 302.975 301.587C302.952 300.838 302.765 300.103 302.427 299.435C302.088 298.767 301.607 298.182 301.018 297.722L310.273 283.247L321.155 292.671C320.551 293.526 320.227 294.548 320.23 295.596C320.228 296.77 320.63 297.908 321.368 298.819C322.106 299.729 323.134 300.357 324.28 300.595C325.426 300.834 326.618 300.668 327.657 300.127C328.695 299.586 329.515 298.702 329.979 297.625C330.443 296.548 330.522 295.343 330.202 294.214C329.883 293.085 329.185 292.101 328.226 291.429C327.268 290.756 326.107 290.436 324.94 290.522C323.773 290.608 322.671 291.095 321.821 291.901L310.827 282.381L319.6 268.655C320.971 269.41 322.54 269.724 324.094 269.555C325.649 269.385 327.114 268.74 328.291 267.707L340.688 280.138C340.161 280.785 339.801 281.551 339.638 282.37C339.476 283.189 339.517 284.035 339.758 284.834C339.998 285.634 340.431 286.361 341.017 286.954C341.604 287.546 342.327 287.985 343.122 288.232L337.531 315.993H337.282C336.322 315.989 335.395 316.348 334.686 316.997C333.977 317.646 333.538 318.539 333.454 319.498C333.371 320.457 333.65 321.413 334.237 322.175C334.823 322.937 335.674 323.451 336.62 323.614C337.567 323.776 338.539 323.576 339.346 323.053C340.152 322.53 340.733 321.723 340.973 320.79C341.213 319.858 341.095 318.869 340.642 318.021C340.189 317.172 339.434 316.524 338.527 316.207L344.118 288.446C344.286 288.446 344.454 288.446 344.626 288.446C345.441 288.446 346.243 288.25 346.967 287.874C347.69 287.498 348.312 286.953 348.781 286.286C349.251 285.618 349.553 284.848 349.663 284.039C349.773 283.229 349.688 282.405 349.414 281.636C349.141 280.867 348.687 280.175 348.091 279.619C347.494 279.062 346.774 278.657 345.989 278.439C345.204 278.22 344.379 278.193 343.582 278.361C342.785 278.529 342.04 278.887 341.409 279.404L329.008 266.974C330.305 265.497 330.982 263.574 330.897 261.609C330.811 259.643 329.971 257.786 328.55 256.429L346.848 234.559C347.449 234.97 348.132 235.247 348.85 235.371C349.567 235.495 350.303 235.463 351.007 235.277C351.712 235.091 352.368 234.755 352.931 234.292C353.495 233.83 353.953 233.251 354.274 232.596C354.595 231.94 354.772 231.223 354.792 230.493C354.813 229.763 354.677 229.038 354.394 228.365C354.11 227.692 353.686 227.088 353.15 226.594C352.613 226.101 351.977 225.728 351.285 225.502L357.242 198.169C357.524 198.211 357.81 198.234 358.095 198.235C358.703 198.236 359.308 198.146 359.89 197.97L366.426 215.013C365.851 215.324 365.365 215.778 365.015 216.331C364.666 216.885 364.464 217.519 364.429 218.173C364.394 218.827 364.527 219.48 364.816 220.067C365.105 220.655 365.54 221.158 366.078 221.529C366.617 221.9 367.242 222.125 367.892 222.184C368.543 222.243 369.198 222.134 369.794 221.866C370.39 221.598 370.908 221.181 371.297 220.655C371.686 220.129 371.934 219.511 372.017 218.861L417.313 218.647C417.439 219.904 418.026 221.07 418.96 221.917C419.895 222.765 421.11 223.234 422.37 223.234C422.663 223.233 422.956 223.206 423.244 223.152L428.972 243.539C427.581 244.034 426.363 244.924 425.466 246.1C424.569 247.276 424.032 248.688 423.92 250.165L388.789 249.971C388.671 249.05 388.222 248.204 387.527 247.591C386.832 246.978 385.939 246.639 385.013 246.638C384.796 246.637 384.58 246.658 384.367 246.699L381.318 236.949C382.118 236.487 382.724 235.748 383.021 234.871C383.319 233.995 383.289 233.039 382.936 232.183C382.583 231.327 381.932 230.629 381.103 230.219C380.275 229.809 379.327 229.714 378.434 229.954C377.542 230.193 376.767 230.749 376.253 231.519C375.74 232.289 375.523 233.22 375.643 234.138C375.763 235.057 376.212 235.9 376.907 236.511C377.601 237.122 378.493 237.459 379.417 237.459C379.74 237.458 380.061 237.415 380.372 237.331L383.392 247.015C382.793 247.295 382.277 247.727 381.894 248.267C381.512 248.808 381.276 249.439 381.211 250.098C381.145 250.757 381.251 251.423 381.519 252.028C381.787 252.634 382.207 253.16 382.739 253.553C383.27 253.947 383.895 254.196 384.551 254.274C385.207 254.353 385.872 254.259 386.482 254.002C387.091 253.745 387.623 253.334 388.026 252.809C388.428 252.283 388.688 251.662 388.779 251.006L423.91 251.199C424.031 253.174 424.911 255.025 426.365 256.362L410.426 276.295C409.448 275.629 408.305 275.249 407.124 275.199C405.944 275.149 404.772 275.43 403.742 276.01C402.712 276.591 401.863 277.448 401.292 278.486C400.721 279.523 400.45 280.7 400.509 281.884C400.568 283.067 400.956 284.211 401.628 285.186C402.299 286.161 403.229 286.929 404.312 287.403C405.395 287.877 406.589 288.039 407.759 287.87C408.928 287.701 410.028 287.209 410.934 286.448L436.739 312.716C436.027 313.575 435.617 314.644 435.57 315.759C435.524 316.874 435.844 317.974 436.481 318.889C437.118 319.804 438.037 320.485 439.097 320.825C440.157 321.166 441.299 321.149 442.348 320.775C443.397 320.402 444.295 319.694 444.904 318.76C445.512 317.825 445.799 316.716 445.718 315.603C445.637 314.49 445.195 313.434 444.457 312.597C443.72 311.761 442.73 311.19 441.638 310.973L444.611 279.781C445.576 279.743 446.49 279.338 447.168 278.65C447.847 277.961 448.239 277.039 448.265 276.072C448.292 275.104 447.951 274.163 447.311 273.438C446.672 272.713 445.781 272.258 444.82 272.167C443.859 272.075 442.899 272.353 442.135 272.944C441.37 273.536 440.859 274.396 440.703 275.351C440.547 276.307 440.759 277.286 441.296 278.09C441.833 278.895 442.655 279.465 443.595 279.685L440.627 310.876C439.476 310.882 438.362 311.279 437.465 312.003L411.656 285.734C412.73 284.494 413.282 282.885 413.198 281.244C413.114 279.604 412.399 278.06 411.204 276.937L427.143 257.004C428.62 258.036 430.413 258.511 432.206 258.344C433.999 258.177 435.675 257.379 436.937 256.092L454.38 271.127C453.429 272.4 452.898 273.939 452.861 275.529C452.823 277.119 453.281 278.681 454.17 279.998C455.06 281.314 456.337 282.32 457.823 282.875C459.309 283.43 460.931 283.506 462.463 283.093C463.995 282.68 465.359 281.798 466.368 280.57C467.376 279.342 467.977 277.83 468.088 276.243C468.198 274.657 467.813 273.075 466.985 271.719C466.157 270.362 464.927 269.299 463.468 268.676L476.398 231.664C476.924 231.803 477.465 231.875 478.009 231.878C479.126 231.879 480.224 231.585 481.191 231.025C482.159 230.464 482.961 229.657 483.518 228.686C484.074 227.715 484.365 226.613 484.361 225.493C484.357 224.373 484.057 223.273 483.493 222.306L514.045 201.038C514.599 201.689 515.307 202.189 516.104 202.494C516.901 202.798 517.762 202.896 518.607 202.779C519.452 202.662 520.254 202.334 520.939 201.824C521.624 201.315 522.171 200.64 522.528 199.864C522.885 199.087 523.041 198.232 522.982 197.379C522.923 196.526 522.651 195.701 522.191 194.981C521.731 194.26 521.097 193.668 520.349 193.258C519.6 192.848 518.761 192.633 517.908 192.634L517.918 192.654ZM130.883 74.0343C131.566 72.9949 131.986 71.8038 132.106 70.5646C132.226 69.3254 132.042 68.0756 131.571 66.9238C131.099 65.7719 130.355 64.753 129.401 63.9555C128.448 63.158 127.315 62.6061 126.1 62.3477L127.493 52.5672L144.926 58.6169C144.879 58.8673 144.855 59.1215 144.855 59.3763C144.855 60.3132 145.198 61.2174 145.819 61.9173C146.44 62.6173 147.295 63.0642 148.223 63.1731C149.151 63.2821 150.087 63.0455 150.852 62.5084C151.618 61.9712 152.16 61.1709 152.376 60.2594C152.591 59.3479 152.466 58.3887 152.023 57.5639C151.58 56.7391 150.85 56.1061 149.972 55.7853C149.095 55.4644 148.13 55.4779 147.261 55.8233C146.393 56.1687 145.681 56.8218 145.261 57.6587L127.64 51.5427L128.814 43.3269H128.845C129.856 43.3499 130.834 42.9692 131.565 42.2686C132.296 41.568 132.72 40.6049 132.743 39.5911C132.766 38.5773 132.386 37.5959 131.687 36.8628C130.989 36.1297 130.028 35.7049 129.017 35.6819L127.218 15.1832C128.813 14.9401 130.289 14.1939 131.432 13.0528L164.296 41.9661C163.914 42.5421 163.696 43.211 163.663 43.9017C163.631 44.5924 163.786 45.279 164.112 45.8883C164.438 46.4976 164.923 47.0069 165.514 47.3618C166.106 47.7167 166.783 47.904 167.472 47.9037L170.059 66.3995C169.141 66.6218 168.302 67.0967 167.637 67.7708C166.973 68.4448 166.509 69.2914 166.297 70.2153C166.086 71.1392 166.136 72.1038 166.442 73.0009C166.747 73.8979 167.296 74.6917 168.026 75.2932L159.376 88.4579C158.117 87.7597 156.658 87.511 155.24 87.7527C153.822 87.9944 152.527 88.7121 151.569 89.7881L130.883 74.0343ZM90.7606 242.336C89.8554 241.537 88.6963 241.087 87.4904 241.066C86.2845 241.045 85.1105 241.454 84.1782 242.221C83.2458 242.988 82.6157 244.063 82.4007 245.253C82.1857 246.443 82.3998 247.671 83.0045 248.717L66.8724 260.19C65.6734 258.71 63.966 257.732 62.0853 257.449C60.2046 257.166 58.2864 257.598 56.7072 258.661L27.8227 221.073C28.4947 220.396 28.889 219.491 28.9276 218.537C28.9662 217.583 28.6462 216.649 28.0311 215.92L41.7084 200.809C42.5798 201.464 43.6382 201.821 44.7275 201.828C45.0311 201.827 45.3339 201.798 45.6321 201.741L51.8939 223.657C50.7106 224.104 49.687 224.895 48.954 225.928C48.221 226.961 47.8118 228.19 47.7788 229.457C47.7458 230.725 48.0905 231.973 48.7687 233.044C49.447 234.114 50.4281 234.957 51.5865 235.465C52.745 235.973 54.0282 236.124 55.2723 235.897C56.5164 235.67 57.6648 235.076 58.5708 234.192C59.4767 233.307 60.0991 232.172 60.3583 230.931C60.6175 229.69 60.5019 228.399 60.0261 227.225L78.4353 218C78.7414 218.451 79.1405 218.831 79.6057 219.115C80.0708 219.398 80.5911 219.578 81.1316 219.643C81.672 219.708 82.22 219.656 82.7386 219.49C83.2572 219.324 83.7344 219.049 84.138 218.683L100.855 232.867L90.7606 242.336ZM279.656 209.835C279.506 210.44 279.507 211.072 279.658 211.677C279.81 212.281 280.107 212.839 280.525 213.301L270.654 224.962L252.703 215.044C253.232 213.849 253.283 212.496 252.846 211.265C252.409 210.033 251.517 209.017 250.354 208.427C249.191 207.836 247.846 207.716 246.597 208.092C245.349 208.468 244.292 209.31 243.645 210.445C242.998 211.58 242.811 212.921 243.122 214.19C243.433 215.46 244.219 216.561 245.317 217.266C246.415 217.971 247.741 218.226 249.021 217.978C250.301 217.731 251.437 216.999 252.194 215.936L269.983 225.752L264.189 232.591C263.246 231.91 262.134 231.501 260.974 231.41C259.815 231.319 258.653 231.549 257.616 232.075C256.578 232.601 255.704 233.402 255.089 234.392C254.475 235.382 254.143 236.522 254.131 237.688L218.624 240.196L221.094 215.579C222.442 215.579 223.735 215.042 224.688 214.086C225.641 213.13 226.176 211.834 226.176 210.482C226.176 209.13 225.641 207.834 224.688 206.878C223.735 205.922 222.442 205.385 221.094 205.385C220.655 205.388 220.217 205.446 219.793 205.559L213.561 188.898C215.206 188.153 216.532 186.844 217.302 185.208L279.656 209.835ZM270.283 283.273L267.706 309.882H267.6C265.915 309.882 264.299 310.553 263.107 311.748C261.916 312.943 261.246 314.563 261.246 316.253C261.245 316.485 261.257 316.716 261.282 316.946L228.458 323.241C228.033 321.606 227.079 320.159 225.747 319.126C224.415 318.092 222.778 317.53 221.094 317.527C220.456 317.53 219.821 317.612 219.203 317.772L211.823 295.224C212.508 294.894 213.078 294.365 213.461 293.707C213.843 293.048 214.021 292.29 213.97 291.53C213.919 290.769 213.642 290.041 213.176 289.44C212.709 288.839 212.073 288.391 211.35 288.155L215.615 265.001C215.828 265.001 216.042 265.032 216.265 265.032C217.848 265.026 219.371 264.429 220.538 263.357C221.704 262.285 222.429 260.815 222.572 259.234C222.714 257.654 222.263 256.077 221.308 254.813C220.352 253.548 218.96 252.687 217.404 252.397L218.522 241.24L254.207 238.692C254.33 239.531 254.62 240.337 255.059 241.061C255.498 241.786 256.077 242.415 256.763 242.911C257.449 243.407 258.227 243.76 259.051 243.95C259.875 244.139 260.729 244.16 261.562 244.013L269.724 275.99C268.975 276.294 268.341 276.83 267.916 277.52C267.49 278.21 267.294 279.017 267.357 279.826C267.419 280.634 267.736 281.402 268.262 282.018C268.788 282.634 269.496 283.066 270.283 283.252V283.273ZM183.457 324.658C183.352 323.621 182.932 322.642 182.253 321.854L207.925 294.873C208.576 295.349 209.36 295.606 210.166 295.607C210.398 295.605 210.63 295.583 210.857 295.54L218.237 318.083C216.911 318.622 215.763 319.525 214.925 320.687C214.086 321.85 213.591 323.226 213.495 324.658H183.457ZM185.17 374.233L161.353 347.276L175.63 329.438C176.454 329.976 177.416 330.263 178.4 330.264C178.517 330.264 178.634 330.264 178.746 330.264L186.156 373.774C185.807 373.878 185.475 374.033 185.17 374.233ZM187.544 243.427L217.49 241.312L216.392 252.285H216.265C214.723 252.28 213.231 252.839 212.069 253.857C210.907 254.875 210.155 256.282 209.953 257.816C209.75 259.349 210.112 260.904 210.969 262.19C211.827 263.476 213.123 264.405 214.613 264.802L210.349 287.962H210.166C209.642 287.959 209.123 288.065 208.641 288.272L184.87 248.518C185.683 247.94 186.349 247.178 186.814 246.293C187.278 245.409 187.528 244.427 187.544 243.427ZM203.3 184.683C203.988 186.483 205.33 187.957 207.055 188.807C208.781 189.658 210.764 189.823 212.606 189.27L218.842 205.905C217.893 206.377 217.114 207.134 216.615 208.07C216.116 209.007 215.921 210.077 216.057 211.13C216.194 212.183 216.655 213.167 217.377 213.945C218.099 214.722 219.044 215.255 220.082 215.467L217.597 240.262L187.467 242.392C187.323 241.414 186.952 240.483 186.385 239.674C185.818 238.864 185.07 238.199 184.201 237.731C183.332 237.262 182.367 237.004 181.38 236.976C180.394 236.949 179.416 237.152 178.522 237.571L170.349 223.086L189.866 208.775C190.738 209.747 191.95 210.346 193.25 210.448C194.55 210.55 195.839 210.146 196.851 209.322C197.863 208.497 198.52 207.314 198.687 206.017C198.853 204.72 198.516 203.408 197.745 202.354C196.974 201.299 195.828 200.582 194.545 200.35C193.261 200.119 191.938 200.391 190.849 201.11C189.76 201.83 188.989 202.941 188.694 204.215C188.4 205.489 188.605 206.828 189.267 207.954L169.846 222.215L160.219 205.161C161.534 204.305 162.551 203.061 163.13 201.6C163.708 200.139 163.819 198.534 163.447 197.007L203.3 184.683ZM149.368 202.485C150.313 204.187 151.871 205.462 153.722 206.052C155.573 206.641 157.579 206.499 159.33 205.656L168.987 222.816L154.969 233.096C154.364 232.389 153.61 231.824 152.763 231.441C151.915 231.058 150.994 230.866 150.064 230.88C149.135 230.893 148.219 231.112 147.383 231.519C146.547 231.927 145.811 232.514 145.226 233.239L123.879 218.545C124.224 217.917 124.432 217.221 124.488 216.506C124.544 215.79 124.448 215.071 124.204 214.396L149.368 202.485ZM102.369 232.826L116.092 219.931C116.6 220.376 117.192 220.716 117.832 220.929C118.472 221.143 119.148 221.226 119.821 221.175C120.494 221.124 121.15 220.939 121.75 220.631C122.351 220.323 122.885 219.898 123.32 219.381L144.667 234.08C144.107 235.055 143.815 236.162 143.821 237.288C143.826 238.413 144.129 239.517 144.698 240.487C145.267 241.457 146.083 242.259 147.061 242.81C148.04 243.362 149.146 243.643 150.269 243.626C151.391 243.61 152.489 243.295 153.45 242.715C154.412 242.134 155.203 241.309 155.743 240.322C156.283 239.335 156.553 238.223 156.525 237.098C156.497 235.973 156.173 234.875 155.584 233.917L169.505 223.723L177.638 238.101C176.847 238.637 176.187 239.345 175.707 240.172C175.228 240.999 174.94 241.924 174.866 242.878C174.791 243.832 174.932 244.791 175.279 245.683C175.625 246.575 176.167 247.377 176.865 248.029L155.701 274.751C155.013 274.338 154.211 274.154 153.412 274.226C152.613 274.299 151.857 274.623 151.254 275.154L130.573 256.943C131.73 255.393 132.257 253.46 132.048 251.535C131.839 249.61 130.909 247.836 129.447 246.571C127.984 245.307 126.097 244.647 124.167 244.723C122.238 244.8 120.409 245.608 119.05 246.984L102.369 232.826ZM142.324 284.058L150.552 280.113C150.949 280.721 151.509 281.203 152.169 281.504L150.405 287.411L142.324 284.058ZM142.903 326.39C143.291 325.941 143.569 325.407 143.715 324.831C143.861 324.254 143.871 323.652 143.743 323.071C143.616 322.491 143.355 321.948 142.982 321.486C142.608 321.024 142.132 320.657 141.592 320.412L151.055 288.782L166.41 295.158C166.269 295.634 166.197 296.129 166.197 296.626C166.196 297.869 166.649 299.07 167.47 300.001C168.291 300.933 169.424 301.532 170.654 301.684C171.885 301.837 173.128 301.534 174.151 300.831C175.174 300.129 175.906 299.076 176.208 297.87C176.511 296.664 176.363 295.389 175.794 294.285C175.224 293.181 174.272 292.323 173.116 291.874C171.959 291.425 170.679 291.415 169.517 291.846C168.354 292.277 167.388 293.12 166.801 294.215L151.345 287.804L153.144 281.795C153.343 281.827 153.543 281.844 153.744 281.846C154.492 281.846 155.223 281.627 155.847 281.214C156.47 280.801 156.959 280.213 157.252 279.523C157.545 278.833 157.628 278.072 157.493 277.335C157.357 276.598 157.008 275.917 156.489 275.378L177.673 248.656C178.602 249.283 179.68 249.651 180.797 249.724C181.914 249.796 183.03 249.57 184.031 249.069L207.808 288.797C207.018 289.43 206.511 290.351 206.399 291.359C206.286 292.366 206.577 293.377 207.208 294.169L181.541 321.151C180.517 320.374 179.237 320.015 177.959 320.145C176.681 320.276 175.5 320.887 174.653 321.856C173.806 322.824 173.356 324.079 173.394 325.366C173.432 326.654 173.955 327.879 174.857 328.796L160.692 346.497L142.903 326.39ZM160.692 348.082L184.392 374.911C183.824 375.571 183.498 376.406 183.468 377.278C183.439 378.15 183.708 379.006 184.23 379.703C184.752 380.401 185.497 380.898 186.34 381.113C187.183 381.328 188.074 381.247 188.865 380.884C189.656 380.521 190.299 379.897 190.688 379.117C191.077 378.337 191.188 377.447 191.003 376.594C190.818 375.742 190.347 374.979 189.67 374.432C188.993 373.884 188.149 373.586 187.279 373.585H187.142L179.737 330.07C180.724 329.797 181.607 329.231 182.268 328.446C182.929 327.661 183.338 326.694 183.442 325.672H213.48C213.608 327.591 214.453 329.392 215.846 330.715C217.239 332.037 219.079 332.784 220.997 332.807L222.319 356.323C221.163 356.512 220.107 357.096 219.331 357.975C218.554 358.855 218.105 359.977 218.058 361.15C218.011 362.324 218.371 363.478 219.075 364.417C219.779 365.356 220.785 366.022 221.922 366.302L218.207 393.473H218.029C217.21 393.473 216.404 393.671 215.678 394.051C214.952 394.431 214.328 394.982 213.86 395.655C213.392 396.329 213.093 397.106 212.989 397.92C212.885 398.735 212.978 399.562 213.262 400.333L192.743 410.368C191.919 408.969 190.593 407.939 189.036 407.488C187.48 407.038 185.81 407.202 184.37 407.946C182.929 408.69 181.827 409.958 181.289 411.49C180.751 413.023 180.817 414.704 181.475 416.188L169.033 422.977L160.092 402.973C161.238 402.315 162.087 401.24 162.464 399.971C162.841 398.703 162.717 397.338 162.118 396.158C161.519 394.978 160.491 394.075 159.246 393.634C158.002 393.194 156.636 393.25 155.431 393.791C154.227 394.332 153.276 395.317 152.775 396.542C152.274 397.767 152.263 399.138 152.742 400.371C153.221 401.604 154.155 402.606 155.35 403.168C156.545 403.73 157.91 403.81 159.162 403.391L168.138 423.466L144.677 436.259C143.992 435.169 143.043 434.271 141.919 433.647C140.795 433.023 139.532 432.695 138.247 432.691C138.069 432.691 137.902 432.691 137.739 432.691L135.447 415.709C136.212 415.499 136.893 415.055 137.394 414.439C137.895 413.822 138.193 413.064 138.244 412.271C138.295 411.477 138.099 410.687 137.681 410.01C137.264 409.334 136.646 408.805 135.915 408.498L145.907 371.358C147.536 371.68 149.225 371.459 150.718 370.73C152.21 370.001 153.425 368.803 154.177 367.318C154.928 365.834 155.176 364.144 154.883 362.505C154.589 360.866 153.77 359.369 152.55 358.239L160.692 348.082ZM183.528 460.351L162.639 487.363L148.87 470.233C149.522 469.53 149.886 468.606 149.889 467.646C149.893 466.685 149.534 465.759 148.887 465.052C148.239 464.344 147.349 463.908 146.395 463.829C145.44 463.75 144.491 464.035 143.737 464.627L132.804 454.113L135.665 447.543C137.516 448.217 139.555 448.146 141.355 447.346C143.155 446.546 144.577 445.079 145.322 443.252L182.105 455.545C181.909 456.405 181.941 457.301 182.196 458.145C182.452 458.989 182.924 459.751 183.564 460.356L183.528 460.351ZM98.7606 415.378L108.367 388.651C108.912 388.8 109.474 388.878 110.039 388.881H110.105L112.24 412.427C111.291 412.638 110.457 413.203 109.908 414.007C109.358 414.812 109.135 415.795 109.281 416.759C109.428 417.723 109.935 418.594 110.698 419.198C111.462 419.801 112.426 420.09 113.394 420.008C114.363 419.925 115.264 419.477 115.915 418.753C116.566 418.029 116.919 417.084 116.901 416.109C116.884 415.135 116.498 414.203 115.821 413.503C115.144 412.804 114.227 412.388 113.256 412.34L111.122 388.789C112.058 388.631 112.947 388.264 113.724 387.715C114.5 387.165 115.143 386.449 115.605 385.617C116.068 384.785 116.338 383.859 116.396 382.909C116.454 381.958 116.298 381.007 115.94 380.124L140.819 367.734C141.742 369.317 143.198 370.515 144.926 371.114L134.933 408.263C134.765 408.24 134.595 408.228 134.425 408.227C133.414 408.227 132.445 408.63 131.73 409.347C131.015 410.064 130.613 411.036 130.613 412.05C130.613 413.064 131.015 414.036 131.73 414.753C132.445 415.47 133.414 415.872 134.425 415.872L136.712 432.844C135.17 433.162 133.763 433.95 132.685 435.102C131.607 436.254 130.912 437.712 130.694 439.276C130.476 440.84 130.747 442.434 131.469 443.837C132.19 445.241 133.328 446.386 134.725 447.115L132.011 453.333L100.555 423.084C101.022 422.484 101.35 421.786 101.513 421.042C101.677 420.298 101.671 419.527 101.498 418.785C101.325 418.044 100.989 417.35 100.513 416.756C100.038 416.162 99.4352 415.682 98.7504 415.353L98.7606 415.378ZM84.7936 353.52C85.585 353.262 86.2703 352.752 86.7449 352.066C87.2194 351.381 87.457 350.559 87.4213 349.725C87.3856 348.892 87.0784 348.093 86.547 347.451C86.0155 346.809 85.2889 346.359 84.4784 346.17L87.2028 318.032H87.4315C88.6836 318.034 89.9167 317.724 91.0198 317.13L103.64 337.445C103.057 337.894 102.577 338.464 102.235 339.116C101.893 339.769 101.695 340.488 101.657 341.225C101.619 341.961 101.741 342.697 102.014 343.381C102.286 344.066 102.704 344.683 103.238 345.19C103.772 345.697 104.409 346.082 105.106 346.318C105.802 346.554 106.542 346.635 107.273 346.557C108.004 346.479 108.709 346.242 109.34 345.864C109.972 345.486 110.513 344.975 110.928 344.366L140.499 360.676C140.052 361.637 139.809 362.682 139.786 363.743C139.764 364.803 139.961 365.857 140.367 366.837L115.487 379.227C114.711 377.926 113.497 376.946 112.064 376.464C110.63 375.981 109.072 376.029 107.67 376.598L103.32 367.872C104.346 367.048 105.017 365.86 105.195 364.554C105.372 363.248 105.041 361.923 104.272 360.854C103.502 359.785 102.353 359.054 101.06 358.812C99.7681 358.569 98.4324 358.834 97.3295 359.552C96.2266 360.269 95.4411 361.384 95.1353 362.667C94.8295 363.949 95.0269 365.3 95.6867 366.44C96.3466 367.58 97.4183 368.422 98.6801 368.792C99.9419 369.162 101.297 369.032 102.466 368.428L106.766 377.056C105.775 377.655 104.966 378.513 104.427 379.539C103.888 380.565 103.638 381.719 103.706 382.877C103.773 384.034 104.155 385.151 104.81 386.107C105.465 387.063 106.368 387.821 107.421 388.299L97.8152 415.026C97.4118 414.922 96.9968 414.869 96.5802 414.868C96.4378 414.868 96.2956 414.868 96.1584 414.868L84.7936 353.52ZM98.7911 424.552C99.1772 424.365 99.5376 424.128 99.8635 423.849L131.589 454.357L121.764 476.89C120.546 476.463 119.225 476.423 117.983 476.778L98.7911 424.552ZM163.376 537.535C162.372 537.916 161.514 538.606 160.925 539.506C160.337 540.406 160.047 541.47 160.099 542.545C160.15 543.62 160.539 544.652 161.211 545.491C161.883 546.331 162.803 546.935 163.838 547.219L160.87 564.776C160.615 564.75 160.359 564.736 160.103 564.736C159.188 564.741 158.282 564.914 157.429 565.245L122.781 488.485C123.786 487.932 124.623 487.117 125.204 486.126C125.784 485.135 126.086 484.005 126.079 482.855C126.071 481.706 125.753 480.58 125.159 479.597C124.565 478.614 123.717 477.811 122.705 477.272L132.362 455.081L143.035 465.346C142.512 466.058 142.252 466.931 142.3 467.815C142.347 468.699 142.699 469.538 143.296 470.19C143.893 470.842 144.697 471.266 145.571 471.389C146.445 471.512 147.334 471.327 148.087 470.865L162.003 488.194L157.216 494.387C156.387 493.85 155.445 493.514 154.464 493.405C153.483 493.297 152.491 493.419 151.565 493.763C150.64 494.106 149.807 494.66 149.132 495.382C148.458 496.104 147.96 496.974 147.679 497.922C147.398 498.87 147.341 499.871 147.512 500.846C147.684 501.82 148.079 502.741 148.667 503.535C149.255 504.33 150.02 504.976 150.9 505.423C151.78 505.869 152.752 506.104 153.739 506.109C154.126 506.108 154.513 506.07 154.893 505.997L157.297 514.941L151.076 520.741C150.328 520.126 149.376 519.819 148.411 519.881C147.446 519.944 146.541 520.372 145.879 521.079C145.216 521.785 144.847 522.718 144.845 523.688C144.843 524.657 145.209 525.592 145.868 526.301C146.527 527.011 147.43 527.443 148.395 527.509C149.36 527.576 150.314 527.272 151.064 526.66C151.813 526.048 152.303 525.173 152.434 524.212C152.565 523.251 152.326 522.277 151.767 521.485L157.597 516.052L163.376 537.535ZM158.146 514.156L155.884 505.732C156.919 505.366 157.842 504.737 158.562 503.905C159.281 503.074 159.773 502.07 159.989 500.99C160.205 499.911 160.137 498.794 159.793 497.749C159.448 496.704 158.839 495.766 158.024 495.029L162.669 489.02L172.27 500.976L158.146 514.156ZM215.615 465.957C214.293 466.201 213.083 466.859 212.159 467.837C211.234 468.814 210.643 470.061 210.471 471.397C210.299 472.733 210.554 474.089 211.199 475.271C211.845 476.452 212.849 477.397 214.065 477.97L207.457 495.508C207.178 495.44 206.891 495.406 206.603 495.406C205.592 495.406 204.623 495.809 203.908 496.525C203.193 497.242 202.791 498.215 202.791 499.228C202.79 499.675 202.87 500.119 203.025 500.538L189.302 507.786C188.645 507.012 187.84 506.377 186.935 505.918C186.03 505.46 185.043 505.187 184.031 505.116C183.02 505.045 182.005 505.177 181.045 505.504C180.085 505.831 179.199 506.347 178.441 507.021L173.673 501.084L188.784 486.996C189.763 487.859 191.036 488.312 192.339 488.26C193.642 488.209 194.876 487.657 195.784 486.719C196.693 485.781 197.207 484.529 197.221 483.221C197.235 481.913 196.746 480.651 195.858 479.694C194.969 478.737 193.747 478.159 192.446 478.08C191.144 478.001 189.862 478.427 188.864 479.27C187.867 480.112 187.231 481.307 187.087 482.606C186.943 483.906 187.303 485.211 188.092 486.252L173.033 500.288L163.32 488.204L184.362 460.988C185.239 461.539 186.264 461.808 187.298 461.76C188.332 461.711 189.327 461.347 190.149 460.716C190.971 460.085 191.581 459.217 191.898 458.229C192.215 457.241 192.223 456.179 191.922 455.186C191.621 454.192 191.024 453.315 190.212 452.671C189.4 452.027 188.412 451.647 187.378 451.582C186.345 451.517 185.317 451.77 184.431 452.307C183.545 452.844 182.843 453.639 182.42 454.587L145.632 442.288C145.798 441.66 145.883 441.012 145.887 440.362C145.884 439.258 145.643 438.168 145.18 437.166L168.56 424.425L172.077 432.289C171.261 432.799 170.669 433.601 170.421 434.532C170.172 435.464 170.286 436.455 170.739 437.306C171.191 438.156 171.95 438.803 172.86 439.114C173.77 439.425 174.764 439.378 175.641 438.982C176.517 438.586 177.211 437.87 177.582 436.98C177.953 436.091 177.972 435.093 177.637 434.189C177.301 433.286 176.636 432.543 175.776 432.113C174.915 431.682 173.924 431.596 173.002 431.871L169.444 423.935L181.968 417.101C182.484 417.899 183.171 418.571 183.98 419.067C184.789 419.564 185.699 419.872 186.642 419.97C187.586 420.068 188.539 419.952 189.432 419.632C190.325 419.312 191.135 418.795 191.803 418.12L208.758 432.426C208.237 433.192 207.933 434.086 207.881 435.012C207.829 435.938 208.029 436.861 208.461 437.681C208.893 438.501 209.54 439.188 210.332 439.666C211.124 440.145 212.032 440.398 212.957 440.398L215.615 465.957ZM212.962 430.169C211.633 430.165 210.356 430.682 209.404 431.611L192.448 417.299C193.219 416.223 193.634 414.93 193.632 413.604C193.63 412.809 193.48 412.021 193.19 411.28L213.709 401.25C214.149 401.961 214.757 402.551 215.479 402.97C216.201 403.389 217.015 403.624 217.849 403.653C218.682 403.682 219.51 403.505 220.259 403.137C221.009 402.77 221.656 402.223 222.145 401.545C222.633 400.867 222.948 400.079 223.061 399.25C223.174 398.421 223.082 397.577 222.793 396.792C222.504 396.008 222.026 395.307 221.403 394.751C220.779 394.195 220.029 393.801 219.218 393.605L222.929 366.435H223.112C224.421 366.434 225.679 365.926 226.624 365.018L241.399 377.673C240.549 378.809 240.032 380.159 239.905 381.573C239.778 382.987 240.046 384.409 240.679 385.679C241.312 386.949 242.285 388.017 243.49 388.763C244.694 389.51 246.082 389.905 247.498 389.905C247.742 389.905 248.006 389.905 248.23 389.869L250.192 401.795C249.643 401.964 249.14 402.255 248.719 402.646C248.298 403.037 247.971 403.518 247.761 404.053C247.552 404.589 247.465 405.165 247.509 405.738C247.552 406.312 247.724 406.868 248.011 407.366L216.616 431.759C216.146 431.259 215.58 430.859 214.952 430.584C214.324 430.309 213.647 430.164 212.962 430.158V430.169ZM303.041 326.757C302.963 327.16 302.924 327.57 302.924 327.981C302.924 329.67 303.593 331.291 304.785 332.485C305.976 333.68 307.592 334.351 309.277 334.351C310.27 334.352 311.249 334.116 312.133 333.663L318.355 343.908C316.727 345.058 315.613 346.8 315.25 348.763C314.888 350.726 315.305 352.753 316.413 354.412L254.014 402.733C253.301 402.025 252.339 401.628 251.335 401.627H251.223L249.262 389.691C250.415 389.422 251.491 388.887 252.402 388.128C253.314 387.37 254.037 386.409 254.513 385.321C254.99 384.234 255.207 383.05 255.148 381.864C255.089 380.678 254.756 379.521 254.173 378.487C253.591 377.453 252.777 376.569 251.794 375.905C250.812 375.241 249.689 374.816 248.514 374.663C247.339 374.51 246.145 374.634 245.027 375.025C243.908 375.416 242.896 376.062 242.07 376.914L227.3 364.264C227.891 363.411 228.208 362.397 228.209 361.359C228.208 361.065 228.181 360.771 228.128 360.482L264.098 350.385C264.471 351.256 265.152 351.956 266.011 352.352C266.869 352.748 267.843 352.81 268.744 352.527C269.646 352.244 270.411 351.636 270.891 350.821C271.372 350.005 271.533 349.04 271.345 348.112C271.157 347.183 270.632 346.358 269.872 345.795C269.112 345.233 268.171 344.972 267.231 345.065C266.291 345.158 265.419 345.597 264.783 346.297C264.147 346.997 263.792 347.909 263.788 348.856C263.789 349.027 263.803 349.197 263.828 349.366L227.854 359.468C227.495 358.55 226.879 357.757 226.079 357.183C225.28 356.61 224.332 356.281 223.351 356.236L222.029 332.72C223.874 332.492 225.573 331.595 226.805 330.198C228.036 328.801 228.717 327.001 228.718 325.137C228.716 324.825 228.694 324.513 228.652 324.204L261.48 317.91C261.836 319.209 262.594 320.362 263.646 321.202C264.697 322.042 265.987 322.525 267.33 322.581C268.673 322.638 269.999 322.265 271.118 321.517C272.236 320.769 273.088 319.684 273.551 318.419L303.041 326.757ZM310.024 281.728L295.9 269.496C296.658 268.421 296.974 267.094 296.784 265.791C296.594 264.488 295.911 263.308 294.877 262.495C293.844 261.683 292.538 261.3 291.231 261.426C289.923 261.551 288.714 262.176 287.854 263.171C286.993 264.166 286.547 265.455 286.607 266.77C286.667 268.086 287.23 269.328 288.178 270.239C289.126 271.151 290.387 271.662 291.7 271.667C293.014 271.672 294.279 271.17 295.234 270.266L309.465 282.6L300.164 297.181C299.256 296.722 298.232 296.546 297.224 296.676C296.216 296.807 295.27 297.237 294.508 297.912C293.747 298.587 293.204 299.476 292.951 300.463C292.698 301.45 292.746 302.491 293.089 303.45L273.109 313.047C272.647 312.25 272.016 311.564 271.262 311.036C270.508 310.508 269.649 310.151 268.743 309.989L271.295 283.375C272.306 283.356 273.268 282.936 273.97 282.206C274.672 281.477 275.056 280.497 275.038 279.483C275.02 278.469 274.601 277.504 273.873 276.801C273.145 276.097 272.168 275.711 271.157 275.73C271.008 275.729 270.858 275.74 270.71 275.76L262.553 243.779C263.574 243.429 264.489 242.824 265.212 242.021C265.935 241.218 266.442 240.244 266.685 239.19C266.927 238.136 266.898 237.037 266.599 235.997C266.3 234.958 265.742 234.012 264.977 233.249L270.898 226.256L293.175 238.56C292.715 239.643 292.643 240.852 292.971 241.983C293.3 243.113 294.008 244.094 294.977 244.76C295.945 245.426 297.113 245.735 298.283 245.635C299.453 245.535 300.552 245.032 301.394 244.212L317.12 257.463C315.925 259.091 315.425 261.127 315.728 263.125C316.031 265.122 317.113 266.917 318.736 268.115L310.024 281.728ZM323.239 254.334C322.212 254.334 321.197 254.543 320.253 254.947C319.309 255.35 318.456 255.941 317.745 256.683L302.024 243.432C302.754 242.317 303.019 240.959 302.762 239.651C302.505 238.342 301.747 237.186 300.65 236.432C299.553 235.677 298.205 235.384 296.895 235.615C295.585 235.846 294.417 236.583 293.643 237.668L271.549 225.436L281.282 213.938C281.744 214.235 282.264 214.429 282.807 214.506C283.35 214.583 283.903 214.542 284.429 214.384C284.955 214.227 285.44 213.958 285.852 213.595C286.264 213.232 286.594 212.784 286.817 212.281L344.672 229.401C344.615 229.712 344.586 230.028 344.586 230.344C344.583 231.677 345.102 232.957 346.029 233.911L327.732 255.786C326.431 254.837 324.863 254.325 323.254 254.324L323.239 254.334Z" fill="#26ACA5"/>
<path d="M244.473 258.401C247.28 258.401 249.556 256.119 249.556 253.304C249.556 250.489 247.28 248.208 244.473 248.208C241.666 248.208 239.391 250.489 239.391 253.304C239.391 256.119 241.666 258.401 244.473 258.401Z" fill="#26ACA5"/>
<path d="M244.726 345.044C246.831 345.044 248.538 343.333 248.538 341.221C248.538 339.11 246.831 337.399 244.726 337.399C242.621 337.399 240.914 339.11 240.914 341.221C240.914 343.333 242.621 345.044 244.726 345.044Z" fill="#26ACA5"/>
<g filter="url(#filter0_d_116_21)">
<circle cx="61" cy="265" r="8" fill="white"/>
</g>
<g filter="url(#filter1_d_116_21)">
<circle cx="88" cy="311" r="8" fill="white"/>
</g>
<g filter="url(#filter2_d_116_21)">
<circle cx="181" cy="245" r="8" fill="white"/>
</g>
<g filter="url(#filter3_d_116_21)">
<circle cx="138" cy="440" r="8" fill="white"/>
</g>
<g filter="url(#filter4_d_116_21)">
<circle cx="160" cy="572" r="8" fill="white"/>
</g>
<g filter="url(#filter5_d_116_21)">
<circle cx="121" cy="482" r="8" fill="white"/>
</g>
<g filter="url(#filter6_d_116_21)">
<circle cx="82" cy="352" r="7" fill="white"/>
</g>
<g filter="url(#filter7_d_116_21)">
<circle cx="192" cy="205" r="7" fill="white"/>
</g>
<g filter="url(#filter8_d_116_21)">
<circle cx="344" cy="283" r="7" fill="white"/>
</g>
<g filter="url(#filter9_d_116_21)">
<circle cx="123" cy="161" r="7" fill="white"/>
</g>
<g filter="url(#filter10_d_116_21)">
<circle cx="217" cy="474" r="8" fill="white"/>
</g>
</g>
<defs>
<filter id="filter0_d_116_21" x="49" y="257" width="24" height="24" filterUnits="userSpaceOnUse" color-interpolation-filters="sRGB">
<feFlood flood-opacity="0" result="BackgroundImageFix"/>
<feColorMatrix in="SourceAlpha" type="matrix" values="0 0 0 0 0 0 0 0 0 0 0 0 0 0 0 0 0 0 127 0" result="hardAlpha"/>
<feOffset dy="4"/>
<feGaussianBlur stdDeviation="2"/>
<feComposite in2="hardAlpha" operator="out"/>
<feColorMatrix type="matrix" values="0 0 0 0 0 0 0 0 0 0 0 0 0 0 0 0 0 0 0.25 0"/>
<feBlend mode="normal" in2="BackgroundImageFix" result="effect1_dropShadow_116_21"/>
<feBlend mode="normal" in="SourceGraphic" in2="effect1_dropShadow_116_21" result="shape"/>
</filter>
<filter id="filter1_d_116_21" x="76" y="303" width="24" height="24" filterUnits="userSpaceOnUse" color-interpolation-filters="sRGB">
<feFlood flood-opacity="0" result="BackgroundImageFix"/>
<feColorMatrix in="SourceAlpha" type="matrix" values="0 0 0 0 0 0 0 0 0 0 0 0 0 0 0 0 0 0 127 0" result="hardAlpha"/>
<feOffset dy="4"/>
<feGaussianBlur stdDeviation="2"/>
<feComposite in2="hardAlpha" operator="out"/>
<feColorMatrix type="matrix" values="0 0 0 0 0 0 0 0 0 0 0 0 0 0 0 0 0 0 0.25 0"/>
<feBlend mode="normal" in2="BackgroundImageFix" result="effect1_dropShadow_116_21"/>
<feBlend mode="normal" in="SourceGraphic" in2="effect1_dropShadow_116_21" result="shape"/>
</filter>
<filter id="filter2_d_116_21" x="169" y="237" width="24" height="24" filterUnits="userSpaceOnUse" color-interpolation-filters="sRGB">
<feFlood flood-opacity="0" result="BackgroundImageFix"/>
<feColorMatrix in="SourceAlpha" type="matrix" values="0 0 0 0 0 0 0 0 0 0 0 0 0 0 0 0 0 0 127 0" result="hardAlpha"/>
<feOffset dy="4"/>
<feGaussianBlur stdDeviation="2"/>
<feComposite in2="hardAlpha" operator="out"/>
<feColorMatrix type="matrix" values="0 0 0 0 0 0 0 0 0 0 0 0 0 0 0 0 0 0 0.25 0"/>
<feBlend mode="normal" in2="BackgroundImageFix" result="effect1_dropShadow_116_21"/>
<feBlend mode="normal" in="SourceGraphic" in2="effect1_dropShadow_116_21" result="shape"/>
</filter>
<filter id="filter3_d_116_21" x="126" y="432" width="24" height="24" filterUnits="userSpaceOnUse" color-interpolation-filters="sRGB">
<feFlood flood-opacity="0" result="BackgroundImageFix"/>
<feColorMatrix in="SourceAlpha" type="matrix" values="0 0 0 0 0 0 0 0 0 0 0 0 0 0 0 0 0 0 127 0" result="hardAlpha"/>
<feOffset dy="4"/>
<feGaussianBlur stdDeviation="2"/>
<feComposite in2="hardAlpha" operator="out"/>
<feColorMatrix type="matrix" values="0 0 0 0 0 0 0 0 0 0 0 0 0 0 0 0 0 0 0.25 0"/>
<feBlend mode="normal" in2="BackgroundImageFix" result="effect1_dropShadow_116_21"/>
<feBlend mode="normal" in="SourceGraphic" in2="effect1_dropShadow_116_21" result="shape"/>
</filter>
<filter id="filter4_d_116_21" x="148" y="564" width="24" height="24" filterUnits="userSpaceOnUse" color-interpolation-filters="sRGB">
<feFlood flood-opacity="0" result="BackgroundImageFix"/>
<feColorMatrix in="SourceAlpha" type="matrix" values="0 0 0 0 0 0 0 0 0 0 0 0 0 0 0 0 0 0 127 0" result="hardAlpha"/>
<feOffset dy="4"/>
<feGaussianBlur stdDeviation="2"/>
<feComposite in2="hardAlpha" operator="out"/>
<feColorMatrix type="matrix" values="0 0 0 0 0 0 0 0 0 0 0 0 0 0 0 0 0 0 0.25 0"/>
<feBlend mode="normal" in2="BackgroundImageFix" result="effect1_dropShadow_116_21"/>
<feBlend mode="normal" in="SourceGraphic" in2="effect1_dropShadow_116_21" result="shape"/>
</filter>
<filter id="filter5_d_116_21" x="109" y="474" width="24" height="24" filterUnits="userSpaceOnUse" color-interpolation-filters="sRGB">
<feFlood flood-opacity="0" result="BackgroundImageFix"/>
<feColorMatrix in="SourceAlpha" type="matrix" values="0 0 0 0 0 0 0 0 0 0 0 0 0 0 0 0 0 0 127 0" result="hardAlpha"/>
<feOffset dy="4"/>
<feGaussianBlur stdDeviation="2"/>
<feComposite in2="hardAlpha" operator="out"/>
<feColorMatrix type="matrix" values="0 0 0 0 0 0 0 0 0 0 0 0 0 0 0 0 0 0 0.25 0"/>
<feBlend mode="normal" in2="BackgroundImageFix" result="effect1_dropShadow_116_21"/>
<feBlend mode="normal" in="SourceGraphic" in2="effect1_dropShadow_116_21" result="shape"/>
</filter>
<filter id="filter6_d_116_21" x="71" y="345" width="22" height="22" filterUnits="userSpaceOnUse" color-interpolation-filters="sRGB">
<feFlood flood-opacity="0" result="BackgroundImageFix"/>
<feColorMatrix in="SourceAlpha" type="matrix" values="0 0 0 0 0 0 0 0 0 0 0 0 0 0 0 0 0 0 127 0" result="hardAlpha"/>
<feOffset dy="4"/>
<feGaussianBlur stdDeviation="2"/>
<feComposite in2="hardAlpha" operator="out"/>
<feColorMatrix type="matrix" values="0 0 0 0 0 0 0 0 0 0 0 0 0 0 0 0 0 0 0.25 0"/>
<feBlend mode="normal" in2="BackgroundImageFix" result="effect1_dropShadow_116_21"/>
<feBlend mode="normal" in="SourceGraphic" in2="effect1_dropShadow_116_21" result="shape"/>
</filter>
<filter id="filter7_d_116_21" x="181" y="198" width="22" height="22" filterUnits="userSpaceOnUse" color-interpolation-filters="sRGB">
<feFlood flood-opacity="0" result="BackgroundImageFix"/>
<feColorMatrix in="SourceAlpha" type="matrix" values="0 0 0 0 0 0 0 0 0 0 0 0 0 0 0 0 0 0 127 0" result="hardAlpha"/>
<feOffset dy="4"/>
<feGaussianBlur stdDeviation="2"/>
<feComposite in2="hardAlpha" operator="out"/>
<feColorMatrix type="matrix" values="0 0 0 0 0 0 0 0 0 0 0 0 0 0 0 0 0 0 0.25 0"/>
<feBlend mode="normal" in2="BackgroundImageFix" result="effect1_dropShadow_116_21"/>
<feBlend mode="normal" in="SourceGraphic" in2="effect1_dropShadow_116_21" result="shape"/>
</filter>
<filter id="filter8_d_116_21" x="333" y="276" width="22" height="22" filterUnits="userSpaceOnUse" color-interpolation-filters="sRGB">
<feFlood flood-opacity="0" result="BackgroundImageFix"/>
<feColorMatrix in="SourceAlpha" type="matrix" values="0 0 0 0 0 0 0 0 0 0 0 0 0 0 0 0 0 0 127 0" result="hardAlpha"/>
<feOffset dy="4"/>
<feGaussianBlur stdDeviation="2"/>
<feComposite in2="hardAlpha" operator="out"/>
<feColorMatrix type="matrix" values="0 0 0 0 0 0 0 0 0 0 0 0 0 0 0 0 0 0 0.25 0"/>
<feBlend mode="normal" in2="BackgroundImageFix" result="effect1_dropShadow_116_21"/>
<feBlend mode="normal" in="SourceGraphic" in2="effect1_dropShadow_116_21" result="shape"/>
</filter>
<filter id="filter9_d_116_21" x="112" y="154" width="22" height="22" filterUnits="userSpaceOnUse" color-interpolation-filters="sRGB">
<feFlood flood-opacity="0" result="BackgroundImageFix"/>
<feColorMatrix in="SourceAlpha" type="matrix" values="0 0 0 0 0 0 0 0 0 0 0 0 0 0 0 0 0 0 127 0" result="hardAlpha"/>
<feOffset dy="4"/>
<feGaussianBlur stdDeviation="2"/>
<feComposite in2="hardAlpha" operator="out"/>
<feColorMatrix type="matrix" values="0 0 0 0 0 0 0 0 0 0 0 0 0 0 0 0 0 0 0.25 0"/>
<feBlend mode="normal" in2="BackgroundImageFix" result="effect1_dropShadow_116_21"/>
<feBlend mode="normal" in="SourceGraphic" in2="effect1_dropShadow_116_21" result="shape"/>
</filter>
<filter id="filter10_d_116_21" x="205" y="466" width="24" height="24" filterUnits="userSpaceOnUse" color-interpolation-filters="sRGB">
<feFlood flood-opacity="0" result="BackgroundImageFix"/>
<feColorMatrix in="SourceAlpha" type="matrix" values="0 0 0 0 0 0 0 0 0 0 0 0 0 0 0 0 0 0 127 0" result="hardAlpha"/>
<feOffset dy="4"/>
<feGaussianBlur stdDeviation="2"/>
<feComposite in2="hardAlpha" operator="out"/>
<feColorMatrix type="matrix" values="0 0 0 0 0 0 0 0 0 0 0 0 0 0 0 0 0 0 0.25 0"/>
<feBlend mode="normal" in2="BackgroundImageFix" result="effect1_dropShadow_116_21"/>
<feBlend mode="normal" in="SourceGraphic" in2="effect1_dropShadow_116_21" result="shape"/>
</filter>
<clipPath id="clip0_116_21">
<rect width="523" height="580" fill="white"/>
</clipPath>
</defs>
</svg>
