<?xml version="1.0" encoding="UTF-8" standalone="no"?>
<svg
   xmlns:dc="http://purl.org/dc/elements/1.1/"
   xmlns:cc="http://creativecommons.org/ns#"
   xmlns:rdf="http://www.w3.org/1999/02/22-rdf-syntax-ns#"
   xmlns:svg="http://www.w3.org/2000/svg"
   xmlns="http://www.w3.org/2000/svg"
   viewBox="0 0 1122.6667 793.33331"
   height="793.33331"
   width="1122.6667"
   xml:space="preserve"
   id="svg2"
   version="1.1"><metadata
     id="metadata8"><rdf:RDF><cc:Work
         rdf:about=""><dc:format>image/svg+xml</dc:format><dc:type
           rdf:resource="http://purl.org/dc/dcmitype/StillImage" /></cc:Work></rdf:RDF></metadata><defs
     id="defs6" /><g
     transform="matrix(1.3333333,0,0,1.3333333,0,1.65e-5)"
     id="g10"><g
       id="g12"><path
         id="path14"
         style="fill:#151616;fill-opacity:1;fill-rule:evenodd;stroke:#151616;stroke-width:0.56690001;stroke-linecap:butt;stroke-linejoin:miter;stroke-miterlimit:4;stroke-dasharray:none;stroke-opacity:1"
         d="m 132.715,216.688 c 3.039,0 5.504,2.453 5.504,5.476 0,3.024 -2.465,5.473 -5.504,5.473 -3.039,0 -5.504,-2.449 -5.504,-5.473 0,-3.023 2.465,-5.476 5.504,-5.476 z" /><path
         id="path16"
         style="fill:#151616;fill-opacity:1;fill-rule:evenodd;stroke:#151616;stroke-width:0.56690001;stroke-linecap:butt;stroke-linejoin:miter;stroke-miterlimit:4;stroke-dasharray:none;stroke-opacity:1"
         d="m 130.477,230.711 -0.211,-0.16 c -1.676,-0.473 -3.899,-1.461 -4.957,-2.778 v 9.543 h -12.301 l -4.403,4.762 c 6.18,0 12.356,0 18.536,0 1.703,0.059 3.332,-1.363 3.336,-3.285 z" /><path
         id="path18"
         style="fill:#151616;fill-opacity:1;fill-rule:evenodd;stroke:#151616;stroke-width:0.56690001;stroke-linecap:butt;stroke-linejoin:miter;stroke-miterlimit:4;stroke-dasharray:none;stroke-opacity:1"
         d="m 134.855,230.711 0.211,-0.16 c 1.672,-0.473 3.895,-1.461 4.957,-2.778 v 9.543 h 12.297 l 4.403,4.762 c -6.176,0 -12.356,0 -18.532,0 -1.707,0.059 -3.332,-1.363 -3.336,-3.285 z" /><path
         id="path20"
         style="fill:#151616;fill-opacity:1;fill-rule:evenodd;stroke:#151616;stroke-width:0.56690001;stroke-linecap:butt;stroke-linejoin:miter;stroke-miterlimit:4;stroke-dasharray:none;stroke-opacity:1"
         d="m 102.918,246.008 c 0.012,0 0.02,0 0.031,0 8.086,0 16.192,0 24.274,0 1.781,0.039 3.297,1.363 3.3,3.293 l -0.23,48.379 h -5.359 v -46.196 h -19.922 c -0.414,13.223 -10.469,22.504 -23.25,22.704 1.433,37.343 17.445,70.402 50.851,98.347 l 0.102,-0.082 0.098,0.082 c 33.406,-27.945 49.417,-61.004 50.855,-98.347 -12.781,-0.2 -22.84,-9.481 -23.25,-22.704 h -20.02 v 46.196 h -5.359 l -0.23,-48.379 c 0,-1.93 1.519,-3.254 3.3,-3.293 8.082,0 16.286,0 24.371,0 0.008,0 0.02,0 0.028,0 1.711,0.07 3.101,1.387 3.211,3.281 0.254,13.18 8.265,19.09 19.961,20.301 0.019,0 0.043,0.004 0.054,0.004 1.875,0.183 3.293,1.578 3.235,3.344 -0.004,0.031 -0.004,0.062 -0.004,0.089 -1.59,37.582 -16.106,72.168 -53.504,104.231 -0.82,0.66 -1.297,1.113 -2.512,1.293 v 0.035 l -0.136,-0.016 -0.098,0.012 -0.098,-0.012 -0.14,0.016 v -0.035 c -1.211,-0.18 -1.688,-0.633 -2.512,-1.293 -37.395,-32.063 -51.91,-66.649 -53.5,-104.231 0,-0.027 0,-0.058 -0.004,-0.089 -0.059,-1.766 1.359,-3.161 3.234,-3.344 0.008,0 0.035,-0.004 0.051,-0.004 11.699,-1.211 19.711,-7.121 19.965,-20.301 0.109,-1.894 1.5,-3.211 3.207,-3.281 z m 22.062,64.324 h 5.208 v 32.695 c 0,1.414 1.144,4.559 2.574,4.559 1.429,0 2.48,-3.137 2.48,-4.559 v -32.695 h 5.207 v 32.074 c 0,4.258 -3.39,11.711 -7.687,11.711 -4.293,0 -7.782,-7.437 -7.782,-11.711 z" /><path
         id="path22"
         style="fill:#151616;fill-opacity:1;fill-rule:evenodd;stroke:#151616;stroke-width:0.56690001;stroke-linecap:butt;stroke-linejoin:miter;stroke-miterlimit:4;stroke-dasharray:none;stroke-opacity:1"
         d="m 112.094,267.285 h 8.402 v 5.465 l -6.152,0.004 v 28.476 h 24.554 c 7.872,0 14.887,-6.406 14.887,-14.242 0,-6.164 -3.41,-12.433 -8.949,-14.402 v -5.293 c 8.684,2.082 14.602,10.527 14.602,19.781 0,6.989 -4.321,13.43 -10.36,16.977 5.949,1.48 9.086,5.453 9.098,15.554 v 10.961 l -0.028,0.399 c -0.175,1.449 -1.312,2.613 -2.75,2.848 -1.437,-0.235 -2.574,-1.399 -2.753,-2.848 l -0.024,-0.399 v -9.281 c 0,-11.711 -4.926,-14.164 -13.101,-14.515 -0.153,0.003 -0.309,0.007 -0.457,0.007 h -24.719 v 23.786 c 0,1.625 -1.207,2.992 -2.774,3.246 h -0.004 l -0.054,-0.008 -0.078,-0.02 h -0.012 l -0.07,-0.015 -0.071,-0.02 h -0.008 l -0.066,-0.016 -0.012,-0.003 -0.058,-0.016 -0.02,-0.008 -0.051,-0.015 -0.027,-0.012 -0.078,-0.024 -0.031,-0.011 -0.043,-0.02 -0.024,-0.008 -0.05,-0.019 -0.016,-0.008 -0.059,-0.027 -0.008,-0.004 -0.062,-0.028 -0.004,-0.004 -0.062,-0.031 h -0.004 l -0.063,-0.031 -0.012,-0.008 -0.05,-0.027 -0.016,-0.012 -0.047,-0.023 -0.058,-0.039 -0.063,-0.039 -0.059,-0.04 -0.042,-0.031 -0.016,-0.012 -0.051,-0.035 -0.008,-0.007 -0.054,-0.04 v -0.003 L 110,333.102 v -0.004 l -0.051,-0.039 -0.011,-0.012 -0.043,-0.035 -0.016,-0.016 -0.039,-0.035 -0.02,-0.02 -0.031,-0.027 -0.023,-0.027 -0.055,-0.055 h -0.004 l -0.019,-0.023 -0.032,-0.036 -0.051,-0.058 h -0.003 l -0.008,-0.012 -0.043,-0.047 -0.004,-0.008 -0.043,-0.054 H 109.5 l -0.039,-0.055 -0.008,-0.008 -0.008,-0.011 -0.039,-0.055 -0.031,-0.043 -0.016,-0.02 -0.023,-0.039 -0.02,-0.027 -0.019,-0.031 -0.024,-0.035 -0.015,-0.028 -0.024,-0.043 -0.011,-0.019 -0.028,-0.051 -0.007,-0.012 -0.032,-0.058 -0.004,-0.004 -0.031,-0.067 -0.031,-0.062 -0.004,-0.012 -0.008,-0.019 -0.023,-0.055 -0.02,-0.047 -0.012,-0.023 -0.015,-0.047 -0.012,-0.028 -0.016,-0.039 -0.011,-0.039 -0.012,-0.031 -0.016,-0.047 -0.003,-0.019 -0.02,-0.055 -0.004,-0.016 -0.016,-0.066 -0.003,-0.004 -0.016,-0.07 v -0.004 l -0.016,-0.071 -0.004,-0.007 -0.011,-0.063 -0.004,-0.016 -0.008,-0.058 -0.004,-0.024 -0.008,-0.05 -0.004,-0.032 -0.004,-0.039 -0.003,-0.043 -0.004,-0.035 -0.004,-0.051 -0.004,-0.023 v -0.059 l -0.004,-0.082 v -0.007 l -0.004,-0.079 v -59.988 c 0,-1.808 0.496,-3.289 3.305,-3.289 z" /><path
         id="path24"
         style="fill:#151616;fill-opacity:1;fill-rule:evenodd;stroke:#151616;stroke-width:1.99979997;stroke-linecap:butt;stroke-linejoin:miter;stroke-miterlimit:4;stroke-dasharray:none;stroke-opacity:1"
         d="m 506.605,258.813 c 1.024,0 2.336,0 3.942,-0.012 1.594,-0.02 3.215,-0.035 4.84,-0.035 1.668,0 3.383,0 5.164,-0.012 1.793,-0.016 3.586,-0.031 5.394,-0.031 -0.093,1.062 -0.172,2.039 -0.25,2.918 -0.078,0.898 -0.136,1.781 -0.183,2.629 -0.047,0.867 -0.078,1.73 -0.094,2.613 -0.016,0.863 -0.016,1.824 -0.016,2.844 l -1.714,0.093 c -0.278,-1.625 -0.571,-3 -0.899,-4.113 -0.309,-1.129 -0.769,-2.039 -1.375,-2.75 -0.601,-0.695 -1.422,-1.207 -2.441,-1.516 -1.035,-0.293 -2.379,-0.449 -4.078,-0.449 h -5.168 v 35.551 c 0,0.73 0.062,1.332 0.187,1.809 0.125,0.484 0.387,0.882 0.82,1.207 0.418,0.308 1.067,0.543 1.918,0.695 0.864,0.156 2.039,0.262 3.508,0.324 l -0.094,1.625 c -0.632,0 -1.343,0 -2.148,-0.015 -0.805,-0.016 -1.625,-0.032 -2.457,-0.032 -0.852,0 -1.688,0 -2.52,-0.015 -0.836,-0.016 -1.609,-0.032 -2.336,-0.032 -0.601,0 -1.25,0.016 -1.96,0.032 -0.711,0.015 -1.438,0.015 -2.165,0.015 -0.71,0 -1.437,0.016 -2.164,0.032 -0.726,0.015 -1.378,0.015 -1.949,0.015 l -0.137,-1.547 c 1.391,-0.078 2.504,-0.215 3.352,-0.402 0.852,-0.184 1.484,-0.477 1.902,-0.91 0.418,-0.418 0.696,-0.992 0.836,-1.684 0.137,-0.715 0.2,-1.64 0.2,-2.797 v -33.871 h -5.024 c -1.687,0 -3.062,0.156 -4.098,0.449 -1.035,0.309 -1.882,0.821 -2.519,1.516 -0.633,0.711 -1.113,1.621 -1.438,2.75 -0.339,1.113 -0.632,2.488 -0.91,4.113 l -1.715,-0.093 v -2.844 c 0,-1.36 -0.031,-2.66 -0.078,-3.899 -0.047,-1.234 -0.14,-2.656 -0.293,-4.261 1.809,0 3.598,0.015 5.348,0.031 1.746,0.012 3.445,0.012 5.07,0.012 1.637,0 3.059,0.015 4.297,0.035 1.235,0.012 2.395,0.012 3.445,0.012 z m 229.59,-13.125 h 8.821 l -9.469,9.351 h -5.574 z m -280.566,0 h 8.816 l -9.465,9.351 h -5.574 z m 260.297,49.125 c 0,1.035 0.062,1.89 0.199,2.554 0.141,0.645 0.402,1.172 0.82,1.559 0.403,0.371 0.973,0.633 1.715,0.789 0.742,0.152 1.735,0.23 2.969,0.23 h 3.309 c 1.746,0 3.167,-0.152 4.281,-0.433 1.097,-0.289 2.023,-0.774 2.781,-1.449 0.758,-0.684 1.422,-1.579 2.008,-2.692 0.59,-1.129 1.238,-2.504 1.933,-4.129 l 1.762,0.403 c -0.246,0.882 -0.461,1.824 -0.68,2.816 -0.214,0.988 -0.402,1.977 -0.585,2.934 -0.188,0.976 -0.325,1.886 -0.45,2.722 -0.125,0.848 -0.199,1.543 -0.23,2.086 -6.012,0 -10.867,-0.015 -14.61,-0.047 -3.722,-0.031 -6.507,-0.047 -8.347,-0.047 -0.539,0 -1.188,0.016 -1.93,0.032 -0.742,0.015 -1.5,0.015 -2.289,0.015 -0.773,0 -1.547,0.016 -2.285,0.032 -0.727,0.015 -1.363,0.015 -1.871,0.015 l -0.141,-1.547 c 1.391,-0.078 2.504,-0.23 3.356,-0.414 0.836,-0.203 1.48,-0.512 1.949,-0.914 0.445,-0.402 0.754,-0.976 0.894,-1.668 0.153,-0.715 0.231,-1.64 0.231,-2.797 v -30.468 c 0,-0.727 -0.063,-1.329 -0.199,-1.809 -0.141,-0.492 -0.418,-0.895 -0.821,-1.207 -0.402,-0.324 -0.988,-0.555 -1.761,-0.711 -0.774,-0.137 -1.809,-0.246 -3.106,-0.309 l 0.137,-1.636 c 0.57,0 1.238,0.015 1.965,0.031 0.742,0.012 1.5,0.012 2.242,0.012 0.785,0 1.543,0.015 2.285,0.035 0.742,0.012 1.438,0.012 2.07,0.012 1.176,0 3.649,-0.012 7.422,-0.047 3.77,-0.028 8.578,-0.043 14.406,-0.043 -0.187,1.543 -0.324,3.168 -0.417,4.851 -0.079,1.684 -0.141,3.496 -0.168,5.395 l -1.825,0.047 c -0.265,-1.578 -0.574,-2.875 -0.898,-3.899 -0.34,-1.031 -0.805,-1.851 -1.406,-2.469 -0.606,-0.621 -1.391,-1.054 -2.348,-1.316 -0.977,-0.262 -2.227,-0.387 -3.758,-0.387 h -6.476 c -0.914,0 -1.5,0.094 -1.746,0.282 -0.266,0.168 -0.387,0.648 -0.387,1.39 v 15.676 l 15.301,-0.449 0.324,0.304 -0.09,3.758 c -2.754,-0.234 -5.457,-0.402 -8.133,-0.492 -2.672,-0.094 -5.148,-0.156 -7.402,-0.219 z M 689.18,277.98 v -13.585 c 0,-0.727 -0.043,-1.329 -0.153,-1.809 -0.109,-0.492 -0.339,-0.895 -0.726,-1.207 -0.371,-0.324 -0.93,-0.555 -1.656,-0.711 -0.727,-0.137 -1.715,-0.246 -2.981,-0.309 l 0.09,-1.636 c 0.48,0 1.066,0.015 1.75,0.031 0.664,0.012 1.391,0.012 2.148,0.012 0.774,0 1.575,0.015 2.395,0.035 0.82,0.012 1.594,0.012 2.305,0.012 0.57,0 1.203,0 1.898,-0.012 0.695,-0.02 1.379,-0.035 2.043,-0.035 0.695,0 1.344,0 1.945,-0.012 0.606,-0.016 1.129,-0.031 1.547,-0.031 l 0.094,1.543 c -1.176,0.093 -2.137,0.234 -2.828,0.433 -0.715,0.203 -1.27,0.492 -1.656,0.914 -0.403,0.403 -0.665,0.973 -0.805,1.684 -0.121,0.726 -0.199,1.652 -0.199,2.766 v 30.48 c 0,0.73 0.062,1.332 0.187,1.809 0.121,0.484 0.367,0.882 0.738,1.207 0.387,0.308 0.946,0.543 1.704,0.695 0.757,0.156 1.761,0.262 3.027,0.324 l -0.074,1.625 c -0.496,0 -1.082,0 -1.782,-0.015 -0.695,-0.016 -1.421,-0.032 -2.207,-0.032 -0.789,0 -1.593,0 -2.414,-0.015 -0.804,-0.016 -1.574,-0.032 -2.3,-0.032 -0.606,0 -1.254,0.016 -1.918,0.032 -0.68,0.015 -1.36,0.015 -2.024,0.015 -0.668,0 -1.285,0.016 -1.871,0.032 -0.59,0.015 -1.098,0.015 -1.531,0.015 l -0.125,-1.547 c 1.176,-0.078 2.105,-0.23 2.801,-0.414 0.695,-0.203 1.234,-0.512 1.636,-0.914 0.387,-0.402 0.649,-0.976 0.774,-1.668 0.105,-0.715 0.168,-1.64 0.168,-2.797 v -14.222 h -24.223 v 15.902 c 0,0.73 0.047,1.332 0.156,1.809 0.11,0.484 0.356,0.882 0.727,1.207 0.371,0.308 0.93,0.543 1.656,0.695 0.727,0.156 1.715,0.262 2.981,0.324 l -0.094,1.625 c -0.477,0 -1.051,0 -1.731,-0.015 -0.679,-0.016 -1.406,-0.032 -2.179,-0.047 -0.77,-0.016 -1.559,-0.032 -2.379,-0.047 -0.805,-0.016 -1.574,-0.031 -2.301,-0.031 -0.574,0 -1.207,0.015 -1.902,0.031 -0.696,0.015 -1.391,0.015 -2.09,0.015 -0.664,0 -1.297,0.016 -1.899,0.032 -0.605,0.015 -1.113,0.015 -1.547,0.015 l -0.078,-1.543 c 1.176,-0.082 2.118,-0.234 2.828,-0.422 0.715,-0.199 1.254,-0.507 1.657,-0.91 0.386,-0.402 0.648,-0.961 0.789,-1.668 0.137,-0.711 0.199,-1.64 0.199,-2.8 v -30.418 c 0,-0.727 -0.062,-1.329 -0.184,-1.809 -0.125,-0.492 -0.371,-0.895 -0.742,-1.207 -0.371,-0.324 -0.945,-0.555 -1.703,-0.711 -0.754,-0.137 -1.762,-0.246 -3.027,-0.309 l 0.094,-1.636 c 0.601,0 1.265,0 1.992,0 0.742,0 1.515,0.015 2.285,0.031 0.762,0.012 1.515,0.012 2.242,0.012 0.742,0 1.438,0 2.07,0 h 1.903 c 0.699,0 1.39,0 2.074,-0.012 0.68,-0.016 1.312,-0.031 1.914,-0.031 h 1.547 l 0.14,1.543 c -1.191,0.093 -2.117,0.234 -2.816,0.433 -0.695,0.203 -1.234,0.492 -1.637,0.914 -0.386,0.403 -0.648,0.973 -0.757,1.684 -0.125,0.726 -0.188,1.652 -0.188,2.766 v 11.917 z m -69.129,1.672 c 0,2.903 0.312,5.625 0.926,8.172 0.613,2.555 1.527,4.766 2.765,6.653 1.242,1.898 2.797,3.382 4.649,4.496 1.867,1.097 4.062,1.64 6.582,1.64 1.382,0 2.703,-0.218 3.953,-0.668 1.269,-0.461 2.379,-1.207 3.355,-2.226 0.914,-0.973 1.711,-2.149 2.391,-3.555 0.668,-1.406 1.344,-3.059 2.012,-4.961 l 1.527,0.449 c -0.445,1.993 -0.785,3.864 -1.031,5.625 -0.262,1.75 -0.485,3.618 -0.653,5.61 -2.023,0.699 -4.007,1.238 -5.992,1.64 -1.972,0.387 -3.957,0.586 -5.941,0.586 -2.887,0 -5.551,-0.539 -7.977,-1.59 -2.441,-1.054 -4.543,-2.55 -6.32,-4.484 -1.762,-1.93 -3.149,-4.266 -4.141,-7 -1.004,-2.723 -1.5,-5.766 -1.5,-9.121 0,-3.863 0.602,-7.234 1.801,-10.125 1.203,-2.875 2.82,-5.289 4.887,-7.219 2.047,-1.933 4.422,-3.371 7.125,-4.328 2.703,-0.941 5.562,-1.422 8.566,-1.422 1.555,0 3.223,0.141 5,0.403 1.762,0.277 3.422,0.648 4.949,1.144 -0.16,1.934 -0.25,3.754 -0.289,5.484 -0.039,1.75 -0.05,3.575 -0.05,5.508 l -1.606,0.184 c -0.105,-1.777 -0.406,-3.324 -0.902,-4.637 -0.496,-1.316 -1.16,-2.398 -1.996,-3.262 -0.825,-0.867 -1.789,-1.5 -2.887,-1.902 -1.098,-0.418 -2.297,-0.617 -3.59,-0.617 -2.559,0 -4.793,0.476 -6.738,1.437 -1.93,0.942 -3.563,2.27 -4.871,3.973 -1.317,1.715 -2.309,3.77 -2.989,6.168 -0.679,2.395 -1.015,5.055 -1.015,7.945 z m -41.528,7.649 c 0,2.179 0.36,4.035 1.086,5.597 0.727,1.563 1.684,2.829 2.871,3.805 1.208,0.985 2.551,1.695 4.067,2.176 1.5,0.465 3.062,0.695 4.652,0.695 1.641,0 3.184,-0.246 4.668,-0.738 1.485,-0.5 2.801,-1.301 3.946,-2.414 1.14,-1.098 2.054,-2.52 2.734,-4.25 0.68,-1.734 1.019,-3.82 1.019,-6.277 v -19.012 c 0,-1.332 -0.093,-2.399 -0.293,-3.215 -0.203,-0.82 -0.558,-1.453 -1.082,-1.902 -0.527,-0.461 -1.265,-0.774 -2.195,-0.957 -0.945,-0.172 -2.148,-0.309 -3.633,-0.403 l 0.094,-1.64 c 1.066,0 2.332,0.015 3.832,0.047 1.484,0.031 3.063,0.046 4.684,0.046 1.328,0 2.722,-0.015 4.175,-0.058 1.434,-0.047 2.641,-0.078 3.614,-0.078 l 0.047,1.543 c -1.329,0.125 -2.411,0.265 -3.246,0.433 -0.817,0.168 -1.481,0.492 -1.993,0.977 -0.496,0.476 -0.836,1.187 -1.004,2.133 -0.187,0.925 -0.281,2.207 -0.281,3.847 v 19.149 c 0,2.953 -0.492,5.461 -1.496,7.515 -0.992,2.055 -2.305,3.743 -3.914,5.055 -1.621,1.313 -3.445,2.258 -5.484,2.844 -2.028,0.601 -4.114,0.894 -6.215,0.894 -2.086,0 -4.082,-0.293 -5.981,-0.867 -1.902,-0.57 -3.586,-1.449 -5.058,-2.625 -1.465,-1.172 -2.625,-2.656 -3.508,-4.437 -0.879,-1.778 -1.313,-3.879 -1.313,-6.289 v -24.192 c 0,-0.726 -0.062,-1.344 -0.203,-1.855 -0.136,-0.508 -0.414,-0.942 -0.863,-1.282 -0.434,-0.359 -1.066,-0.621 -1.871,-0.804 -0.82,-0.168 -1.902,-0.293 -3.262,-0.356 l 0.094,-1.64 c 0.543,0 1.176,0.015 1.914,0.035 0.742,0.012 1.516,0.012 2.336,0.012 0.852,0 1.699,0.015 2.566,0.031 0.852,0.015 1.653,0.015 2.411,0.015 0.605,0 1.285,0 2.023,-0.015 0.73,-0.016 1.488,-0.031 2.242,-0.031 0.742,0 1.469,0 2.152,-0.012 0.68,-0.02 1.266,-0.035 1.793,-0.035 l 0.122,1.547 c -1.297,0.093 -2.348,0.246 -3.168,0.449 -0.805,0.218 -1.438,0.543 -1.903,1.004 -0.449,0.449 -0.758,1.05 -0.926,1.793 -0.171,0.726 -0.25,1.656 -0.25,2.781 z M 283.566,257.918 c 2.825,0 5.434,0.523 7.817,1.559 2.383,1.039 4.418,2.539 6.097,4.468 1.688,1.934 3.02,4.25 3.965,6.989 0.946,2.734 1.426,5.796 1.426,9.168 0,3.355 -0.465,6.441 -1.414,9.273 -0.93,2.813 -2.246,5.254 -3.937,7.309 -1.692,2.058 -3.715,3.648 -6.086,4.793 -2.356,1.144 -4.993,1.734 -7.868,1.734 -2.832,0 -5.441,-0.527 -7.8,-1.563 -2.368,-1.054 -4.407,-2.535 -6.11,-4.468 -1.703,-1.93 -3.023,-4.266 -3.98,-7 -0.946,-2.723 -1.426,-5.782 -1.426,-9.168 0,-3.356 0.48,-6.43 1.414,-9.258 0.93,-2.832 2.25,-5.258 3.938,-7.313 1.691,-2.054 3.718,-3.664 6.086,-4.808 2.355,-1.145 4.992,-1.715 7.878,-1.715 z m -0.238,2.441 c -1.797,0 -3.515,0.34 -5.164,1.024 -1.652,0.676 -3.113,1.777 -4.367,3.277 -1.266,1.512 -2.277,3.473 -3.02,5.871 -0.761,2.399 -1.132,5.317 -1.132,8.766 0,4.031 0.425,7.433 1.277,10.183 0.863,2.754 1.969,4.961 3.312,6.633 1.36,1.668 2.879,2.875 4.555,3.586 1.676,0.696 3.34,1.055 5.004,1.055 1.797,0 3.516,-0.344 5.168,-1.024 1.648,-0.664 3.113,-1.761 4.363,-3.277 1.266,-1.515 2.278,-3.461 3.024,-5.859 0.757,-2.41 1.132,-5.332 1.132,-8.762 0,-4.051 -0.425,-7.449 -1.281,-10.187 -0.863,-2.75 -1.969,-4.961 -3.312,-6.649 -1.36,-1.668 -2.875,-2.855 -4.555,-3.566 -1.676,-0.715 -3.34,-1.071 -5.004,-1.071 z M 435.23,294.91 c 0,1.035 0.063,1.883 0.204,2.547 0.136,0.648 0.402,1.176 0.816,1.563 0.402,0.371 0.977,0.632 1.719,0.785 0.738,0.156 1.73,0.234 2.965,0.234 h 3.308 c 1.746,0 3.172,-0.152 4.285,-0.434 1.094,-0.292 2.024,-0.769 2.782,-1.453 0.754,-0.679 1.421,-1.574 2.007,-2.687 0.586,-1.129 1.239,-2.504 1.934,-4.125 l 1.762,0.398 c -0.246,0.883 -0.465,1.825 -0.684,2.813 -0.215,0.992 -0.398,1.98 -0.586,2.941 -0.183,0.973 -0.324,1.883 -0.445,2.719 -0.125,0.848 -0.203,1.543 -0.234,2.086 -6.012,0 -10.868,-0.016 -14.606,-0.047 -3.727,-0.031 -6.508,-0.047 -8.348,-0.047 -0.543,0 -1.191,0.016 -1.933,0.031 -0.742,0.016 -1.5,0.016 -2.285,0.016 -0.774,0 -1.547,0.016 -2.289,0.031 -0.727,0.016 -1.36,0.016 -1.872,0.016 l -0.14,-1.543 c 1.394,-0.082 2.508,-0.234 3.355,-0.422 0.836,-0.199 1.485,-0.508 1.95,-0.91 0.449,-0.402 0.753,-0.973 0.894,-1.672 0.156,-0.707 0.234,-1.637 0.234,-2.797 v -30.465 c 0,-0.726 -0.062,-1.328 -0.203,-1.808 -0.136,-0.496 -0.418,-0.899 -0.816,-1.207 -0.402,-0.325 -0.992,-0.555 -1.766,-0.711 -0.773,-0.141 -1.808,-0.246 -3.105,-0.309 l 0.14,-1.637 c 0.571,0 1.235,0.012 1.961,0.028 0.743,0.019 1.5,0.019 2.243,0.019 0.789,0 1.546,0.012 2.285,0.028 0.746,0.015 1.441,0.015 2.074,0.015 1.172,0 3.648,-0.015 7.418,-0.043 3.773,-0.035 8.578,-0.047 14.406,-0.047 -0.183,1.543 -0.324,3.168 -0.418,4.852 -0.074,1.687 -0.137,3.492 -0.168,5.395 l -1.824,0.046 c -0.262,-1.574 -0.574,-2.875 -0.898,-3.894 -0.34,-1.035 -0.801,-1.856 -1.407,-2.473 -0.601,-0.621 -1.39,-1.051 -2.347,-1.312 -0.973,-0.266 -2.227,-0.387 -3.758,-0.387 h -6.477 c -0.91,0 -1.5,0.09 -1.746,0.277 -0.262,0.168 -0.387,0.649 -0.387,1.391 v 15.672 l 15.305,-0.445 0.324,0.308 -0.093,3.754 c -2.75,-0.23 -5.457,-0.402 -8.129,-0.492 -2.676,-0.094 -5.149,-0.156 -7.407,-0.219 z m -29.425,-34.551 c -1.239,0.094 -2.242,0.235 -3.016,0.434 -0.773,0.199 -1.359,0.496 -1.793,0.914 -0.414,0.398 -0.711,0.973 -0.848,1.68 -0.156,0.73 -0.234,1.66 -0.234,2.769 v 28.754 c 0,1.035 0.063,1.883 0.203,2.547 0.141,0.648 0.403,1.176 0.817,1.563 0.402,0.371 0.976,0.632 1.718,0.785 0.743,0.156 1.731,0.234 2.969,0.234 h 2.348 c 1.761,0 3.183,-0.152 4.312,-0.434 1.114,-0.292 2.059,-0.769 2.828,-1.453 0.774,-0.679 1.438,-1.574 2.008,-2.687 0.574,-1.129 1.207,-2.504 1.903,-4.125 l 1.73,0.398 c -0.246,0.883 -0.477,1.825 -0.68,2.813 -0.215,0.992 -0.414,1.98 -0.586,2.941 -0.187,0.973 -0.339,1.883 -0.464,2.719 -0.122,0.848 -0.184,1.543 -0.215,2.086 h -6.895 c -1.992,0 -3.711,0 -5.16,-0.016 -1.441,-0.015 -2.691,-0.031 -3.711,-0.031 -1.023,0 -1.918,0 -2.676,-0.016 -0.758,-0.015 -1.422,-0.031 -1.992,-0.031 h -1.578 c -0.602,0 -1.27,0.016 -1.996,0.031 -0.727,0.016 -1.453,0.016 -2.18,0.016 -0.722,0 -1.406,0.016 -2.051,0.031 -0.652,0.016 -1.191,0.016 -1.609,0.016 l -0.141,-1.543 c 1.239,-0.082 2.243,-0.234 3.016,-0.422 0.773,-0.199 1.359,-0.508 1.793,-0.91 0.418,-0.402 0.711,-0.973 0.848,-1.672 0.156,-0.707 0.234,-1.637 0.234,-2.797 v -30.465 c 0,-0.726 -0.062,-1.328 -0.203,-1.808 -0.137,-0.496 -0.414,-0.899 -0.816,-1.207 -0.403,-0.325 -0.993,-0.555 -1.762,-0.711 -0.774,-0.141 -1.809,-0.246 -3.11,-0.309 l 0.141,-1.637 c 0.477,0 1.082,0.012 1.793,0.028 0.711,0.019 1.469,0.019 2.289,0.019 0.801,0 1.637,0.012 2.484,0.028 0.836,0.015 1.625,0.015 2.352,0.015 0.574,0 1.219,0 1.945,-0.015 0.727,-0.016 1.457,-0.028 2.184,-0.028 0.726,0 1.391,0 2.039,-0.019 0.633,-0.016 1.16,-0.028 1.578,-0.028 z m -38.746,25.86 h -15.086 l -3.493,8.922 c -0.605,1.714 -0.898,2.812 -0.898,3.257 0,0.79 0.371,1.332 1.113,1.641 0.727,0.293 2.055,0.492 3.957,0.59 l -0.14,1.621 c -1.114,0 -2.364,-0.016 -3.754,-0.047 -1.391,-0.031 -2.766,-0.047 -4.129,-0.047 -1.113,0 -2.27,0.016 -3.461,0.047 -1.191,0.031 -2.352,0.047 -3.461,0.047 l -0.094,-1.547 c 1.176,-0.074 2.149,-0.23 2.907,-0.418 0.753,-0.199 1.406,-0.57 1.96,-1.097 0.559,-0.524 1.098,-1.25 1.594,-2.161 0.492,-0.929 1.082,-2.152 1.746,-3.695 l 12.535,-30.652 c 0.356,-0.91 0.743,-1.7 1.161,-2.383 0.402,-0.68 0.757,-1.422 1.066,-2.192 l 2.844,-0.375 c 0.34,1.458 0.695,2.786 1.066,3.989 0.371,1.207 0.727,2.304 1.067,3.308 l 10.187,29.524 c 0.449,1.332 0.863,2.367 1.219,3.125 0.371,0.758 0.789,1.344 1.269,1.746 0.481,0.402 1.098,0.68 1.84,0.836 0.742,0.152 1.699,0.273 2.875,0.371 l -0.14,1.621 c -1.266,0 -2.657,-0.016 -4.188,-0.047 -1.531,-0.031 -3.062,-0.047 -4.59,-0.047 -1.269,0 -2.551,0.016 -3.851,0.047 -1.297,0.031 -2.578,0.047 -3.848,0.047 l -0.137,-1.547 c 1.684,-0.109 2.887,-0.324 3.614,-0.601 0.726,-0.297 1.097,-0.817 1.097,-1.606 0,-0.344 -0.058,-0.715 -0.183,-1.164 -0.125,-0.43 -0.278,-0.926 -0.45,-1.465 z m -14.051,-2.625 h 13.187 l -5.937,-17.93 h -0.141 z m -32.426,4.48 c 0,-0.879 -0.016,-1.621 -0.047,-2.242 -0.031,-0.617 -0.121,-1.234 -0.293,-1.855 -0.156,-0.614 -0.418,-1.293 -0.742,-2.008 -0.34,-0.727 -0.805,-1.637 -1.406,-2.719 -0.821,-1.453 -1.809,-3.199 -2.969,-5.254 -1.16,-2.058 -2.629,-4.562 -4.406,-7.516 -0.696,-1.187 -1.297,-2.148 -1.793,-2.871 -0.492,-0.746 -1.035,-1.332 -1.59,-1.781 -0.559,-0.433 -1.207,-0.758 -1.965,-0.941 -0.758,-0.203 -1.715,-0.34 -2.906,-0.434 l 0.094,-1.637 c 1.265,0 2.671,0.012 4.187,0.047 1.531,0.028 3.063,0.043 4.609,0.043 1.266,0 2.547,-0.015 3.864,-0.043 1.312,-0.035 2.613,-0.047 3.879,-0.047 l 0.125,1.543 c -1.625,0.125 -2.754,0.325 -3.371,0.59 -0.618,0.278 -0.926,0.68 -0.926,1.219 0,0.371 0.105,0.789 0.324,1.27 0.199,0.496 0.492,1.082 0.848,1.777 l 8.242,15.16 7.973,-14.406 c 0.48,-0.864 0.851,-1.606 1.113,-2.196 0.25,-0.585 0.387,-1.093 0.387,-1.511 0,-0.571 -0.34,-0.992 -1.02,-1.239 -0.68,-0.261 -1.887,-0.449 -3.602,-0.57 l 0.094,-1.637 c 1.113,0 2.285,0.012 3.524,0.047 1.238,0.028 2.535,0.043 3.894,0.043 1.129,0 2.274,-0.015 3.465,-0.043 1.203,-0.035 2.348,-0.047 3.477,-0.047 l 0.121,1.543 c -1.172,0.094 -2.145,0.25 -2.918,0.45 -0.758,0.214 -1.453,0.586 -2.059,1.097 -0.601,0.508 -1.203,1.207 -1.793,2.071 -0.586,0.882 -1.297,2.027 -2.144,3.445 -1.532,2.566 -2.864,4.84 -3.993,6.816 -1.109,1.981 -1.992,3.606 -2.625,4.871 -0.636,1.239 -1.113,2.243 -1.437,2.985 -0.34,0.758 -0.574,1.422 -0.727,1.996 -0.156,0.57 -0.23,1.125 -0.25,1.652 -0.015,0.528 -0.027,1.172 -0.027,1.934 v 8.965 c 0,0.726 0.059,1.328 0.184,1.808 0.125,0.477 0.386,0.879 0.82,1.203 0.414,0.309 1.066,0.543 1.914,0.696 0.867,0.156 2.043,0.265 3.512,0.324 l -0.094,1.625 c -0.633,0 -1.344,0 -2.149,-0.016 -0.804,-0.015 -1.621,-0.031 -2.457,-0.031 -0.851,0 -1.683,0 -2.519,-0.016 -0.836,-0.015 -1.609,-0.031 -2.336,-0.031 -0.602,0 -1.25,0.016 -1.961,0.031 -0.715,0.016 -1.441,0.016 -2.168,0.016 -0.707,0 -1.434,0.016 -2.16,0.031 -0.727,0.016 -1.375,0.016 -1.949,0.016 l -0.141,-1.543 c 1.395,-0.082 2.504,-0.223 3.356,-0.406 0.851,-0.184 1.484,-0.477 1.902,-0.91 0.418,-0.418 0.695,-0.989 0.832,-1.688 0.141,-0.707 0.203,-1.637 0.203,-2.797 z m -88.453,8.203 c 0,0.758 0.031,1.391 0.098,1.926 0.066,0.52 0.277,0.957 0.664,1.293 0.371,0.359 0.968,0.617 1.781,0.777 0.793,0.18 1.941,0.293 3.43,0.325 v 1.699 c -1.524,0 -3.059,-0.016 -4.645,-0.051 -1.586,-0.031 -3.121,-0.047 -4.644,-0.047 -0.598,0 -1.262,0.016 -1.993,0.031 -0.726,0.016 -1.453,0.016 -2.183,0.016 -0.696,0 -1.36,0.016 -1.989,0.035 -0.632,0.016 -1.168,0.016 -1.617,0.016 l -0.082,-1.617 c 1.231,-0.082 2.219,-0.242 2.961,-0.438 0.742,-0.211 1.309,-0.535 1.731,-0.957 0.406,-0.422 0.679,-1.019 0.824,-1.746 0.148,-0.742 0.211,-1.715 0.211,-2.93 v -31.89 c 0,-0.762 -0.063,-1.395 -0.196,-1.895 -0.128,-0.519 -0.386,-0.937 -0.773,-1.261 -0.391,-0.34 -0.988,-0.586 -1.781,-0.743 -0.793,-0.148 -1.844,-0.261 -3.172,-0.328 l 0.098,-1.711 c 0.5,0 1.101,0.012 1.781,0.032 0.68,0.015 1.406,0.015 2.199,0.015 0.793,0 1.586,0.016 2.41,0.031 0.828,0.016 1.617,0.016 2.379,0.016 1.262,0 2.524,-0.082 3.805,-0.258 1.293,-0.179 2.59,-0.262 3.914,-0.262 1.894,0 3.805,0.165 5.695,0.473 1.895,0.32 3.61,0.891 5.149,1.715 1.519,0.824 2.765,1.941 3.718,3.332 0.942,1.406 1.411,3.203 1.411,5.391 0,1.457 -0.227,2.828 -0.68,4.125 -0.453,1.293 -1.102,2.472 -1.926,3.527 -0.809,1.07 -1.781,1.992 -2.914,2.801 -1.117,0.808 -2.363,1.453 -3.723,1.972 1.02,1.926 2.008,3.77 2.996,5.536 0.969,1.781 1.875,3.398 2.719,4.867 0.84,1.457 1.602,2.754 2.281,3.855 0.68,1.114 1.247,1.973 1.684,2.602 0.598,0.828 1.113,1.488 1.566,1.976 0.438,0.485 0.926,0.871 1.442,1.133 0.515,0.274 1.133,0.469 1.828,0.598 0.695,0.129 1.586,0.242 2.703,0.34 l -0.098,1.699 c -0.953,0 -2.183,-0.016 -3.722,-0.051 -1.535,-0.031 -3.008,-0.047 -4.434,-0.047 -0.437,0 -0.922,0.016 -1.441,0.031 -0.531,0.016 -1,0.032 -1.453,0.067 -0.309,-0.664 -0.813,-1.633 -1.473,-2.914 -0.664,-1.278 -1.441,-2.766 -2.363,-4.465 -0.922,-1.684 -1.926,-3.527 -3.043,-5.52 -1.102,-1.988 -2.246,-4.011 -3.446,-6.066 -0.195,-0.309 -0.371,-0.598 -0.55,-0.859 -0.18,-0.243 -0.407,-0.45 -0.664,-0.629 -0.274,-0.18 -0.629,-0.309 -1.067,-0.406 -0.437,-0.098 -1.039,-0.145 -1.75,-0.145 h -1.422 c -0.261,0 -0.566,0 -0.937,-0.016 -0.356,-0.015 -0.793,-0.05 -1.297,-0.082 z m 0,-17.343 c 0.262,0.027 0.504,0.043 0.762,0.062 0.242,0.016 0.5,0.031 0.761,0.031 h 1.504 c 3.739,0 6.617,-0.859 8.657,-2.574 2.039,-1.695 3.058,-4.465 3.058,-8.285 0,-3.234 -0.969,-5.578 -2.914,-7.066 -1.941,-1.493 -4.531,-2.239 -7.75,-2.239 -0.984,0 -1.746,0.102 -2.297,0.278 -0.551,0.16 -0.953,0.422 -1.215,0.777 -0.257,0.34 -0.402,0.773 -0.468,1.281 -0.067,0.5 -0.098,1.067 -0.098,1.696 z m 316.008,-21.11 c 2.824,0 5.429,0.528 7.812,1.563 2.383,1.035 4.422,2.531 6.098,4.465 1.691,1.933 3.023,4.253 3.969,6.988 0.941,2.734 1.422,5.797 1.422,9.164 0,3.355 -0.465,6.449 -1.411,9.273 -0.929,2.817 -2.25,5.258 -3.941,7.317 -1.688,2.054 -3.715,3.648 -6.082,4.789 -2.356,1.144 -4.992,1.73 -7.867,1.73 -2.836,0 -5.446,-0.523 -7.801,-1.558 -2.371,-1.051 -4.406,-2.535 -6.109,-4.469 -1.707,-1.934 -3.024,-4.266 -3.981,-7 -0.945,-2.723 -1.426,-5.785 -1.426,-9.168 0,-3.355 0.481,-6.43 1.414,-9.262 0.93,-2.824 2.246,-5.254 3.938,-7.308 1.691,-2.059 3.715,-3.664 6.082,-4.809 2.359,-1.144 4.992,-1.715 7.883,-1.715 z m -0.242,2.442 c -1.793,0 -3.512,0.339 -5.165,1.023 -1.648,0.676 -3.113,1.777 -4.363,3.274 -1.265,1.515 -2.277,3.48 -3.023,5.875 -0.758,2.398 -1.133,5.316 -1.133,8.765 0,4.035 0.426,7.434 1.277,10.188 0.867,2.75 1.973,4.961 3.317,6.629 1.359,1.668 2.875,2.875 4.554,3.585 1.676,0.696 3.34,1.051 5.004,1.051 1.797,0 3.512,-0.34 5.164,-1.019 1.653,-0.664 3.118,-1.762 4.368,-3.278 1.265,-1.511 2.273,-3.461 3.019,-5.855 0.758,-2.414 1.133,-5.336 1.133,-8.77 0,-4.046 -0.426,-7.449 -1.277,-10.183 -0.868,-2.75 -1.969,-4.961 -3.317,-6.645 -1.355,-1.672 -2.875,-2.863 -4.551,-3.574 -1.675,-0.711 -3.339,-1.066 -5.007,-1.066 z" /><path
         id="path26"
         style="fill:#151616;fill-opacity:1;fill-rule:evenodd;stroke:none"
         d="m 224.637,328.777 h 9.168 c 1.359,0 2.593,0.153 3.711,0.453 1.117,0.301 2.07,0.75 2.867,1.352 0.797,0.602 1.418,1.359 1.863,2.27 0.445,0.914 0.668,1.968 0.668,3.171 v 0.059 c 0,1.223 -0.223,2.305 -0.668,3.246 -0.445,0.942 -1.078,1.731 -1.894,2.371 -0.813,0.641 -1.789,1.121 -2.922,1.442 -1.137,0.32 -2.391,0.48 -3.77,0.48 h -2.211 v 5.531 h -6.812 z m 8.644,9.985 c 0.875,0 1.578,-0.192 2.11,-0.571 0.535,-0.375 0.8,-0.933 0.8,-1.671 v -0.059 c 0,-0.738 -0.25,-1.293 -0.757,-1.672 -0.504,-0.379 -1.211,-0.57 -2.125,-0.57 h -1.86 v 4.543 z m 26.535,-9.985 h 17.375 v 5.59 h -10.679 v 2.067 h 9.953 v 4.918 h -9.953 v 2.211 h 10.824 v 5.589 h -17.52 z m 34.801,0 h 9.953 c 1.825,0 3.325,0.211 4.496,0.625 1.176,0.418 2.122,0.985 2.84,1.703 0.621,0.622 1.086,1.321 1.395,2.098 0.312,0.774 0.469,1.688 0.469,2.735 v 0.058 c 0,1.492 -0.36,2.754 -1.079,3.785 -0.718,1.028 -1.699,1.84 -2.941,2.442 l 4.746,6.929 h -7.769 l -3.844,-5.824 h -1.453 v 5.824 h -6.813 z m 9.75,9.692 c 0.817,0 1.457,-0.176 1.922,-0.524 0.465,-0.347 0.699,-0.832 0.699,-1.453 v -0.058 c 0,-0.661 -0.234,-1.153 -0.699,-1.473 -0.465,-0.32 -1.098,-0.477 -1.891,-0.477 h -2.968 v 3.985 z m 26.508,-9.692 h 17.055 v 5.821 h -10.246 v 2.59 h 9.519 v 5.296 h -9.519 v 6.668 h -6.809 z m 44.723,20.809 c -1.571,0 -3.032,-0.27 -4.379,-0.813 -1.348,-0.543 -2.52,-1.293 -3.52,-2.242 -1,-0.949 -1.781,-2.07 -2.344,-3.363 -0.562,-1.289 -0.843,-2.672 -0.843,-4.145 v -0.058 c 0,-1.477 0.285,-2.856 0.859,-4.149 0.57,-1.289 1.356,-2.414 2.356,-3.375 1,-0.961 2.179,-1.718 3.535,-2.269 1.359,-0.555 2.824,-0.832 4.394,-0.832 1.574,0 3.032,0.273 4.383,0.816 1.348,0.543 2.52,1.289 3.52,2.242 1,0.95 1.781,2.071 2.343,3.36 0.563,1.293 0.844,2.672 0.844,4.148 v 0.059 c 0,1.473 -0.285,2.855 -0.859,4.148 -0.571,1.289 -1.36,2.414 -2.356,3.375 -1,0.961 -2.179,1.715 -3.539,2.27 -1.355,0.551 -2.82,0.828 -4.394,0.828 z m 0.058,-6.023 c 0.641,0 1.223,-0.125 1.746,-0.379 0.528,-0.25 0.973,-0.586 1.34,-1.004 0.367,-0.418 0.653,-0.899 0.844,-1.442 0.195,-0.543 0.293,-1.113 0.293,-1.715 v -0.058 c 0,-0.602 -0.102,-1.18 -0.309,-1.731 -0.203,-0.554 -0.488,-1.043 -0.855,-1.472 -0.371,-0.426 -0.817,-0.766 -1.34,-1.016 -0.523,-0.254 -1.117,-0.379 -1.777,-0.379 -0.637,0 -1.219,0.125 -1.746,0.379 -0.524,0.25 -0.969,0.586 -1.336,1.004 -0.371,0.414 -0.653,0.895 -0.844,1.438 -0.195,0.542 -0.293,1.117 -0.293,1.718 v 0.059 c 0,0.601 0.101,1.18 0.305,1.73 0.207,0.555 0.492,1.043 0.859,1.469 0.371,0.43 0.816,0.77 1.34,1.02 0.523,0.254 1.117,0.379 1.773,0.379 z m 28.399,-14.786 h 9.953 c 1.824,0 3.324,0.211 4.496,0.625 1.176,0.418 2.121,0.985 2.84,1.703 0.621,0.622 1.086,1.321 1.398,2.098 0.309,0.774 0.465,1.688 0.465,2.735 v 0.058 c 0,1.492 -0.359,2.754 -1.078,3.785 -0.719,1.028 -1.699,1.84 -2.938,2.442 l 4.743,6.929 h -7.77 l -3.844,-5.824 h -1.453 v 5.824 h -6.812 z m 9.75,9.692 c 0.816,0 1.457,-0.176 1.922,-0.524 0.464,-0.347 0.699,-0.832 0.699,-1.453 v -0.058 c 0,-0.661 -0.235,-1.153 -0.699,-1.473 -0.465,-0.32 -1.098,-0.477 -1.891,-0.477 h -2.969 v 3.985 z m 26.508,-9.692 h 7.101 l 4.363,7.161 4.368,-7.161 h 7.101 v 20.375 h -6.781 v -10.101 l -4.688,7.246 h -0.113 l -4.687,-7.246 v 10.101 h -6.664 z m 47.808,-0.144 h 6.754 l 8.586,20.519 h -7.395 l -1.074,-2.738 h -7.133 l -1.046,2.738 h -7.278 z m 5.18,12.949 -1.86,-4.945 -1.863,4.945 z m 26.449,-12.805 h 6.375 l 7.246,8.993 v -8.993 h 6.754 v 20.375 h -6.055 l -7.566,-9.402 v 9.402 h -6.754 z m 48.246,20.809 c -1.414,0 -2.758,-0.25 -4.027,-0.754 -1.274,-0.508 -2.395,-1.223 -3.364,-2.156 -0.968,-0.93 -1.742,-2.047 -2.312,-3.348 -0.574,-1.297 -0.859,-2.734 -0.859,-4.305 v -0.058 c 0,-1.516 0.277,-2.922 0.828,-4.219 0.554,-1.301 1.32,-2.426 2.301,-3.379 0.98,-0.949 2.128,-1.691 3.449,-2.226 1.316,-0.532 2.734,-0.801 4.25,-0.801 1.125,0 2.156,0.133 3.097,0.394 0.942,0.262 1.793,0.625 2.563,1.09 0.766,0.469 1.445,1.024 2.035,1.676 0.594,0.648 1.102,1.363 1.527,2.137 l -5.617,3.289 c -0.387,-0.735 -0.867,-1.332 -1.437,-1.789 -0.575,-0.457 -1.325,-0.684 -2.258,-0.684 -0.582,0 -1.106,0.117 -1.57,0.348 -0.465,0.234 -0.864,0.554 -1.196,0.961 -0.328,0.41 -0.586,0.883 -0.769,1.426 -0.184,0.542 -0.278,1.117 -0.278,1.718 v 0.059 c 0,0.66 0.094,1.265 0.278,1.82 0.183,0.551 0.445,1.028 0.785,1.426 0.34,0.394 0.742,0.707 1.207,0.93 0.465,0.222 0.98,0.336 1.543,0.336 0.973,0 1.746,-0.239 2.328,-0.715 0.582,-0.477 1.086,-1.09 1.516,-1.848 l 5.617,3.172 c -0.43,0.758 -0.934,1.469 -1.516,2.141 -0.582,0.668 -1.265,1.25 -2.051,1.746 -0.785,0.492 -1.679,0.886 -2.679,1.179 -0.996,0.289 -2.129,0.434 -3.391,0.434 z m 26.391,-20.809 h 17.375 v 5.59 h -10.68 v 2.067 h 9.953 v 4.918 h -9.953 v 2.211 h 10.824 v 5.589 h -17.519 z m 56.105,0 h 9.168 c 1.36,0 2.594,0.153 3.711,0.453 1.113,0.301 2.07,0.75 2.867,1.352 0.793,0.602 1.414,1.359 1.86,2.27 0.449,0.914 0.672,1.968 0.672,3.171 v 0.059 c 0,1.223 -0.223,2.305 -0.672,3.246 -0.446,0.942 -1.075,1.731 -1.891,2.371 -0.812,0.641 -1.789,1.121 -2.926,1.442 -1.133,0.32 -2.39,0.48 -3.765,0.48 h -2.215 v 5.531 h -6.809 z m 8.645,9.985 c 0.871,0 1.574,-0.192 2.109,-0.571 0.535,-0.375 0.801,-0.933 0.801,-1.671 v -0.059 c 0,-0.738 -0.254,-1.293 -0.758,-1.672 -0.504,-0.379 -1.211,-0.57 -2.125,-0.57 h -1.863 v 4.543 z m 26.535,-9.985 h 6.808 v 14.551 h 9.579 v 5.824 h -16.387 z m 35.586,13.157 -7.684,-13.157 h 7.625 l 3.492,6.696 3.524,-6.696 h 7.539 l -7.684,13.067 v 7.308 h -6.812 z" /></g></g></svg>