<?xml version="1.0" encoding="UTF-8" standalone="no"?>
<svg
   xmlns:dc="http://purl.org/dc/elements/1.1/"
   xmlns:cc="http://creativecommons.org/ns#"
   xmlns:rdf="http://www.w3.org/1999/02/22-rdf-syntax-ns#"
   xmlns:svg="http://www.w3.org/2000/svg"
   xmlns="http://www.w3.org/2000/svg"
   viewBox="0 0 1122.6667 793.33331"
   height="793.33331"
   width="1122.6667"
   xml:space="preserve"
   id="svg2"
   version="1.1"><metadata
     id="metadata8"><rdf:RDF><cc:Work
         rdf:about=""><dc:format>image/svg+xml</dc:format><dc:type
           rdf:resource="http://purl.org/dc/dcmitype/StillImage" /></cc:Work></rdf:RDF></metadata><defs
     id="defs6" /><g
     transform="matrix(1.3333333,0,0,1.3333333,0,1.65e-5)"
     id="g10"><g
       id="g12"><path
         id="path14"
         style="fill:#151616;fill-opacity:1;fill-rule:evenodd;stroke:none"
         d="m 413.641,86.188 c 5.257,0 9.519,4.238 9.519,9.472 0,5.231 -4.262,9.473 -9.519,9.473 -5.258,0 -9.52,-4.242 -9.52,-9.473 0,-5.234 4.262,-9.472 9.52,-9.472 z" /><path
         id="path16"
         style="fill:#151616;fill-opacity:1;fill-rule:evenodd;stroke:none"
         d="m 409.77,110.441 -0.364,-0.269 c -2.898,-0.824 -6.742,-2.531 -8.578,-4.813 v 16.516 h -21.277 l -7.617,8.238 c 10.691,0 21.375,0 32.062,0 2.949,0.098 5.766,-2.363 5.774,-5.687 z" /><path
         id="path18"
         style="fill:#151616;fill-opacity:1;fill-rule:evenodd;stroke:none"
         d="m 417.344,110.441 0.363,-0.269 c 2.898,-0.824 6.742,-2.531 8.574,-4.813 v 16.516 h 21.282 l 7.613,8.238 c -10.688,0 -21.375,0 -32.063,0 -2.945,0.098 -5.761,-2.363 -5.769,-5.687 z" /><path
         id="path20"
         style="fill:#151616;fill-opacity:1;fill-rule:evenodd;stroke:none"
         d="m 362.094,136.91 c 0.019,0 0.039,0 0.054,0 13.985,0 28.008,0 41.993,0 3.082,0.067 5.707,2.356 5.711,5.699 l -0.399,83.688 h -9.273 v -79.914 h -34.461 c -0.715,22.875 -18.114,38.93 -40.223,39.277 2.481,64.602 30.18,121.793 87.973,170.137 l 0.172,-0.149 0.172,0.149 c 57.792,-48.344 85.492,-105.535 87.972,-170.137 -22.109,-0.347 -39.508,-16.402 -40.219,-39.277 h -34.632 v 79.914 h -9.274 l -0.398,-83.688 c 0.004,-3.343 2.633,-5.632 5.711,-5.699 13.984,0 28.175,0 42.16,0 0.015,0 0.035,0 0.051,0 2.957,0.117 5.363,2.399 5.554,5.676 0.434,22.801 14.297,33.023 34.535,35.121 0.028,0 0.075,0.004 0.086,0.008 3.246,0.312 5.7,2.723 5.594,5.781 0,0.055 -0.004,0.106 -0.008,0.156 -2.746,65.012 -27.855,124.848 -92.55,180.309 -1.422,1.148 -2.247,1.93 -4.344,2.242 v 0.059 l -0.238,-0.028 -0.172,0.02 -0.172,-0.02 -0.239,0.028 v -0.059 c -2.097,-0.312 -2.921,-1.094 -4.343,-2.242 -64.692,-55.461 -89.805,-115.297 -92.555,-180.309 0,-0.05 -0.004,-0.101 -0.004,-0.156 -0.105,-3.058 2.348,-5.469 5.594,-5.781 0.012,-0.004 0.058,-0.008 0.09,-0.008 20.238,-2.098 34.093,-12.32 34.535,-35.121 0.187,-3.277 2.594,-5.559 5.547,-5.676 z m 38.168,111.274 h 9.004 v 56.566 c 0,2.441 1.984,7.883 4.461,7.883 2.472,0 4.289,-5.426 4.289,-7.883 v -56.566 h 9.004 v 55.488 c 0,7.367 -5.868,20.262 -13.293,20.262 -7.43,0 -13.465,-12.871 -13.465,-20.262 z" /><path
         id="path22"
         style="fill:#151616;fill-opacity:1;fill-rule:evenodd;stroke:none"
         d="m 377.973,173.719 h 14.531 v 9.453 l -10.641,0.004 v 49.269 h 42.477 c 13.621,0 25.75,-11.086 25.75,-24.64 0,-10.664 -5.899,-21.512 -15.481,-24.918 v -9.157 c 15.02,3.606 25.258,18.211 25.258,34.223 0,12.09 -7.472,23.231 -17.918,29.371 10.289,2.555 15.723,9.43 15.739,26.903 v 18.964 l -0.043,0.692 c -0.309,2.508 -2.274,4.523 -4.762,4.922 -2.488,-0.399 -4.453,-2.414 -4.762,-4.922 l -0.043,-0.692 v -16.054 c 0,-20.262 -8.519,-24.508 -22.664,-25.11 -0.266,0.004 -0.535,0.008 -0.793,0.008 h -42.758 v 41.149 c 0,2.812 -2.086,5.175 -4.8,5.617 h -0.004 l -0.094,-0.02 -0.031,-0.004 -0.11,-0.023 h -0.019 l -0.121,-0.027 -0.125,-0.032 -0.012,-0.004 -0.113,-0.031 -0.024,-0.008 -0.094,-0.027 -0.039,-0.008 -0.082,-0.027 -0.05,-0.02 -0.071,-0.023 -0.062,-0.024 -0.055,-0.019 -0.074,-0.027 -0.043,-0.02 -0.086,-0.035 -0.031,-0.012 -0.098,-0.043 -0.016,-0.008 -0.109,-0.05 -0.004,-0.004 -0.113,-0.055 h -0.008 l -0.102,-0.055 -0.019,-0.011 -0.09,-0.051 -0.031,-0.016 -0.074,-0.047 -0.047,-0.023 -0.063,-0.039 -0.051,-0.035 -0.05,-0.032 -0.067,-0.043 -0.039,-0.027 -0.074,-0.051 -0.027,-0.019 -0.082,-0.063 -0.11,-0.082 -0.004,-0.004 -0.097,-0.078 -0.008,-0.004 -0.086,-0.074 -0.016,-0.016 -0.078,-0.066 -0.027,-0.023 -0.063,-0.059 -0.035,-0.035 -0.055,-0.051 -0.14,-0.141 -0.035,-0.039 -0.059,-0.062 -0.086,-0.098 -0.008,-0.004 -0.011,-0.015 -0.078,-0.09 -0.004,-0.008 -0.075,-0.094 -0.004,-0.004 -0.074,-0.093 -0.011,-0.012 -0.008,-0.016 -0.071,-0.097 -0.054,-0.075 -0.028,-0.039 -0.043,-0.062 -0.031,-0.051 -0.035,-0.055 -0.039,-0.062 -0.023,-0.043 -0.047,-0.074 -0.02,-0.032 -0.047,-0.089 -0.011,-0.02 -0.055,-0.101 -0.004,-0.008 -0.055,-0.114 -0.004,-0.003 -0.05,-0.11 -0.008,-0.015 -0.016,-0.036 -0.039,-0.089 -0.035,-0.086 -0.02,-0.043 -0.027,-0.075 -0.02,-0.054 -0.023,-0.063 -0.023,-0.07 -0.02,-0.051 -0.023,-0.082 -0.012,-0.035 -0.031,-0.098 -0.008,-0.023 -0.027,-0.113 -0.004,-0.008 -0.032,-0.125 v -0.004 l -0.027,-0.121 -0.004,-0.016 -0.019,-0.109 -0.004,-0.031 -0.02,-0.094 -0.004,-0.047 -0.015,-0.082 -0.008,-0.059 -0.016,-0.14 -0.004,-0.059 -0.011,-0.129 -0.004,-0.101 -0.008,-0.145 v -0.016 l -0.004,-0.132 V 179.41 c 0,-3.129 0.859,-5.687 5.719,-5.687 z" /><path
         id="path24"
         style="fill:#151616;fill-opacity:1;fill-rule:evenodd;stroke:#151616;stroke-width:1.99979997;stroke-linecap:butt;stroke-linejoin:miter;stroke-miterlimit:4;stroke-dasharray:none;stroke-opacity:1"
         d="m 432.301,396.176 c 0.804,0 1.836,0 3.101,-0.012 1.254,-0.012 2.528,-0.023 3.805,-0.023 1.313,0 2.664,0 4.063,-0.012 1.41,-0.012 2.82,-0.027 4.242,-0.027 -0.071,0.839 -0.133,1.605 -0.196,2.3 -0.058,0.703 -0.105,1.399 -0.144,2.067 -0.035,0.679 -0.063,1.359 -0.074,2.054 -0.012,0.68 -0.012,1.434 -0.012,2.235 l -1.348,0.074 c -0.218,-1.277 -0.449,-2.355 -0.707,-3.234 -0.242,-0.887 -0.605,-1.606 -1.082,-2.164 -0.472,-0.543 -1.117,-0.946 -1.922,-1.192 -0.812,-0.23 -1.871,-0.351 -3.207,-0.351 h -4.062 v 27.964 c 0,0.575 0.047,1.047 0.144,1.422 0.098,0.379 0.305,0.696 0.645,0.95 0.328,0.242 0.84,0.425 1.508,0.546 0.683,0.122 1.605,0.207 2.761,0.258 l -0.074,1.278 c -0.496,0 -1.058,0 -1.691,-0.016 -0.629,-0.012 -1.274,-0.02 -1.93,-0.02 -0.672,0 -1.328,0 -1.984,-0.015 -0.657,-0.012 -1.266,-0.024 -1.836,-0.024 -0.473,0 -0.985,0.012 -1.543,0.024 -0.559,0.015 -1.133,0.015 -1.703,0.015 -0.559,0 -1.129,0.008 -1.703,0.02 -0.571,0.016 -1.082,0.016 -1.532,0.016 l -0.109,-1.219 c 1.094,-0.059 1.969,-0.168 2.637,-0.317 0.672,-0.144 1.168,-0.375 1.496,-0.714 0.328,-0.329 0.547,-0.782 0.656,-1.325 0.113,-0.562 0.16,-1.289 0.16,-2.203 v -26.64 h -3.953 c -1.324,0 -2.406,0.121 -3.223,0.351 -0.812,0.246 -1.48,0.649 -1.98,1.192 -0.5,0.558 -0.875,1.277 -1.129,2.164 -0.27,0.879 -0.5,1.957 -0.719,3.234 l -1.351,-0.074 v -2.235 c 0,-1.07 -0.024,-2.093 -0.059,-3.066 -0.039,-0.969 -0.109,-2.09 -0.23,-3.355 1.422,0 2.832,0.015 4.203,0.027 1.375,0.012 2.715,0.012 3.992,0.012 1.285,0 2.406,0.011 3.379,0.023 0.973,0.012 1.883,0.012 2.711,0.012 z m 180.601,-10.324 h 6.938 l -7.445,7.355 h -4.387 z m -220.703,0 h 6.938 l -7.446,7.355 h -4.386 z m 204.758,38.644 c 0,0.813 0.051,1.484 0.16,2.004 0.106,0.512 0.313,0.926 0.641,1.23 0.316,0.29 0.765,0.497 1.351,0.622 0.582,0.117 1.364,0.179 2.332,0.179 h 2.606 c 1.371,0 2.492,-0.121 3.367,-0.34 0.863,-0.23 1.594,-0.609 2.188,-1.14 0.597,-0.539 1.121,-1.242 1.582,-2.117 0.461,-0.891 0.972,-1.969 1.519,-3.246 l 1.387,0.316 c -0.195,0.691 -0.363,1.434 -0.535,2.211 -0.172,0.777 -0.317,1.555 -0.461,2.312 -0.149,0.766 -0.258,1.481 -0.356,2.141 -0.093,0.668 -0.156,1.211 -0.179,1.641 -4.731,0 -8.551,-0.016 -11.493,-0.036 -2.929,-0.027 -5.117,-0.039 -6.566,-0.039 -0.426,0 -0.934,0.012 -1.52,0.024 -0.582,0.015 -1.179,0.015 -1.8,0.015 -0.606,0 -1.215,0.008 -1.797,0.02 -0.57,0.016 -1.07,0.016 -1.473,0.016 l -0.109,-1.219 c 1.094,-0.059 1.969,-0.18 2.64,-0.324 0.657,-0.161 1.164,-0.403 1.532,-0.719 0.351,-0.317 0.593,-0.77 0.703,-1.313 0.121,-0.562 0.183,-1.289 0.183,-2.203 v -23.965 c 0,-0.574 -0.05,-1.046 -0.156,-1.421 -0.109,-0.391 -0.328,-0.707 -0.644,-0.95 -0.321,-0.254 -0.782,-0.437 -1.387,-0.558 -0.609,-0.11 -1.422,-0.196 -2.445,-0.246 l 0.109,-1.289 c 0.449,0 0.973,0.015 1.543,0.027 0.586,0.012 1.18,0.012 1.766,0.012 0.621,0 1.214,0.011 1.796,0.023 0.586,0.012 1.133,0.012 1.629,0.012 0.926,0 2.871,-0.012 5.84,-0.035 2.965,-0.024 6.746,-0.039 11.332,-0.039 -0.148,1.218 -0.254,2.496 -0.328,3.816 -0.062,1.328 -0.109,2.75 -0.133,4.246 l -1.437,0.035 c -0.207,-1.238 -0.449,-2.261 -0.703,-3.062 -0.27,-0.817 -0.633,-1.461 -1.11,-1.946 -0.472,-0.488 -1.093,-0.828 -1.847,-1.035 -0.766,-0.207 -1.75,-0.304 -2.954,-0.304 h -5.093 c -0.719,0 -1.18,0.074 -1.375,0.222 -0.207,0.133 -0.305,0.508 -0.305,1.094 v 12.328 l 12.039,-0.351 0.254,0.242 -0.074,2.953 c -2.164,-0.18 -4.289,-0.313 -6.395,-0.387 -2.105,-0.074 -4.051,-0.121 -5.824,-0.168 z m -21.039,-13.242 v -10.688 c 0,-0.574 -0.035,-1.046 -0.121,-1.421 -0.086,-0.391 -0.266,-0.707 -0.57,-0.95 -0.293,-0.254 -0.731,-0.437 -1.301,-0.558 -0.571,-0.11 -1.348,-0.196 -2.348,-0.246 l 0.074,-1.289 c 0.375,0 0.84,0.015 1.375,0.027 0.524,0.012 1.094,0.012 1.688,0.012 0.609,0 1.242,0.011 1.887,0.023 0.644,0.012 1.253,0.012 1.812,0.012 0.449,0 0.949,0 1.492,-0.012 0.551,-0.012 1.082,-0.023 1.61,-0.023 0.543,0 1.054,0 1.531,-0.012 0.473,-0.012 0.887,-0.027 1.215,-0.027 l 0.074,1.218 c -0.926,0.071 -1.68,0.18 -2.227,0.34 -0.558,0.156 -1,0.387 -1.3,0.719 -0.317,0.312 -0.524,0.766 -0.633,1.324 -0.098,0.57 -0.16,1.301 -0.16,2.176 v 23.976 c 0,0.575 0.05,1.047 0.148,1.422 0.098,0.379 0.293,0.696 0.582,0.95 0.305,0.242 0.742,0.425 1.34,0.546 0.594,0.122 1.383,0.207 2.383,0.258 l -0.063,1.278 c -0.386,0 -0.851,0 -1.398,-0.016 -0.547,-0.012 -1.117,-0.02 -1.738,-0.02 -0.622,0 -1.254,0 -1.899,-0.015 -0.629,-0.012 -1.238,-0.024 -1.808,-0.024 -0.477,0 -0.985,0.012 -1.508,0.024 -0.535,0.015 -1.071,0.015 -1.594,0.015 -0.523,0 -1.008,0.008 -1.473,0.02 -0.461,0.016 -0.863,0.016 -1.203,0.016 l -0.097,-1.219 c 0.925,-0.059 1.656,-0.18 2.203,-0.324 0.547,-0.161 0.968,-0.403 1.289,-0.719 0.3,-0.317 0.508,-0.77 0.605,-1.313 0.086,-0.562 0.133,-1.289 0.133,-2.203 v -11.187 h -19.051 v 12.511 c 0,0.575 0.035,1.047 0.121,1.422 0.086,0.379 0.282,0.696 0.571,0.95 0.293,0.242 0.73,0.425 1.3,0.546 0.575,0.122 1.352,0.207 2.348,0.258 l -0.074,1.278 c -0.375,0 -0.824,0 -1.36,-0.016 -0.535,-0.012 -1.109,-0.02 -1.714,-0.035 -0.61,-0.012 -1.227,-0.024 -1.875,-0.035 -0.629,-0.012 -1.239,-0.028 -1.809,-0.028 -0.453,0 -0.949,0.016 -1.496,0.028 -0.547,0.011 -1.094,0.011 -1.645,0.011 -0.519,0 -1.019,0.012 -1.492,0.024 -0.476,0.015 -0.875,0.015 -1.219,0.015 l -0.058,-1.218 c 0.922,-0.063 1.664,-0.18 2.223,-0.328 0.562,-0.161 0.988,-0.403 1.304,-0.719 0.301,-0.317 0.508,-0.754 0.617,-1.313 0.11,-0.558 0.161,-1.289 0.161,-2.199 v -23.93 c 0,-0.574 -0.051,-1.046 -0.149,-1.421 -0.094,-0.391 -0.289,-0.707 -0.582,-0.95 -0.293,-0.254 -0.742,-0.437 -1.336,-0.558 -0.598,-0.11 -1.387,-0.196 -2.387,-0.246 l 0.075,-1.289 c 0.476,0 0.996,0 1.57,0 0.582,0 1.191,0.015 1.797,0.027 0.597,0.012 1.191,0.012 1.765,0.012 0.582,0 1.129,0 1.629,0 h 1.496 c 0.547,0 1.094,0 1.629,-0.012 0.536,-0.012 1.032,-0.027 1.508,-0.027 H 561 l 0.109,1.218 c -0.937,0.071 -1.664,0.18 -2.211,0.34 -0.55,0.156 -0.972,0.387 -1.289,0.719 -0.304,0.312 -0.511,0.766 -0.597,1.324 -0.098,0.57 -0.145,1.301 -0.145,2.176 v 9.375 z m -54.379,1.312 c 0,2.286 0.246,4.426 0.731,6.43 0.48,2.008 1.199,3.75 2.175,5.231 0.977,1.496 2.2,2.664 3.657,3.539 1.468,0.863 3.195,1.289 5.175,1.289 1.09,0 2.125,-0.172 3.11,-0.524 1,-0.363 1.871,-0.949 2.64,-1.75 0.719,-0.765 1.348,-1.691 1.879,-2.797 0.524,-1.105 1.059,-2.406 1.582,-3.902 l 1.203,0.352 c -0.351,1.57 -0.617,3.039 -0.812,4.425 -0.203,1.375 -0.379,2.848 -0.512,4.414 -1.594,0.547 -3.152,0.973 -4.715,1.29 -1.55,0.304 -3.113,0.46 -4.672,0.46 -2.269,0 -4.367,-0.425 -6.277,-1.25 -1.918,-0.828 -3.574,-2.007 -4.969,-3.527 -1.386,-1.519 -2.476,-3.355 -3.257,-5.508 -0.789,-2.14 -1.18,-4.535 -1.18,-7.175 0,-3.04 0.473,-5.688 1.418,-7.965 0.945,-2.258 2.219,-4.157 3.84,-5.68 1.613,-1.516 3.48,-2.648 5.609,-3.402 2.125,-0.743 4.375,-1.118 6.734,-1.118 1.223,0 2.54,0.11 3.934,0.317 1.387,0.219 2.691,0.512 3.895,0.898 -0.125,1.52 -0.196,2.953 -0.227,4.317 -0.031,1.375 -0.039,2.808 -0.039,4.332 l -1.266,0.144 c -0.082,-1.398 -0.316,-2.617 -0.711,-3.648 -0.386,-1.035 -0.91,-1.887 -1.57,-2.567 -0.644,-0.679 -1.406,-1.179 -2.269,-1.496 -0.864,-0.328 -1.805,-0.484 -2.825,-0.484 -2.011,0 -3.769,0.375 -5.297,1.129 -1.519,0.742 -2.804,1.785 -3.832,3.125 -1.039,1.351 -1.816,2.969 -2.351,4.851 -0.535,1.883 -0.801,3.977 -0.801,6.25 z m -32.664,6.02 c 0,1.715 0.281,3.172 0.852,4.402 0.57,1.227 1.324,2.223 2.261,2.992 0.946,0.774 2.004,1.336 3.196,1.711 1.179,0.368 2.41,0.547 3.66,0.547 1.289,0 2.504,-0.191 3.672,-0.582 1.168,-0.39 2.203,-1.019 3.101,-1.898 0.903,-0.863 1.617,-1.981 2.153,-3.34 0.535,-1.363 0.804,-3.004 0.804,-4.938 v -14.957 c 0,-1.046 -0.074,-1.886 -0.234,-2.531 -0.156,-0.644 -0.438,-1.14 -0.848,-1.496 -0.414,-0.363 -1,-0.605 -1.73,-0.75 -0.739,-0.137 -1.688,-0.246 -2.856,-0.316 l 0.074,-1.289 c 0.836,0 1.836,0.011 3.016,0.035 1.168,0.023 2.406,0.039 3.684,0.039 1.043,0 2.14,-0.016 3.281,-0.051 1.133,-0.035 2.082,-0.062 2.848,-0.062 l 0.035,1.218 c -1.047,0.098 -1.899,0.207 -2.555,0.34 -0.644,0.133 -1.164,0.387 -1.566,0.766 -0.391,0.375 -0.657,0.933 -0.793,1.679 -0.145,0.727 -0.215,1.739 -0.215,3.028 v 15.062 c 0,2.325 -0.391,4.293 -1.18,5.91 -0.781,1.618 -1.812,2.946 -3.078,3.977 -1.277,1.035 -2.711,1.777 -4.316,2.238 -1.594,0.473 -3.235,0.703 -4.887,0.703 -1.645,0 -3.211,-0.23 -4.707,-0.679 -1.496,-0.449 -2.82,-1.145 -3.977,-2.067 -1.156,-0.925 -2.066,-2.093 -2.761,-3.492 -0.692,-1.398 -1.032,-3.051 -1.032,-4.949 v -19.027 c 0,-0.571 -0.05,-1.059 -0.16,-1.461 -0.109,-0.399 -0.328,-0.739 -0.679,-1.008 -0.34,-0.281 -0.84,-0.488 -1.473,-0.633 -0.645,-0.133 -1.492,-0.23 -2.563,-0.277 l 0.071,-1.289 c 0.425,0 0.925,0.011 1.507,0.023 0.586,0.012 1.192,0.012 1.836,0.012 0.672,0 1.34,0.012 2.02,0.023 0.668,0.016 1.301,0.016 1.898,0.016 0.473,0 1.008,0 1.59,-0.016 0.574,-0.011 1.168,-0.023 1.766,-0.023 0.582,0 1.156,0 1.691,-0.012 0.532,-0.012 0.996,-0.023 1.41,-0.023 l 0.094,1.214 c -1.019,0.075 -1.847,0.196 -2.492,0.352 -0.633,0.172 -1.129,0.426 -1.492,0.789 -0.356,0.356 -0.598,0.828 -0.731,1.414 -0.136,0.57 -0.195,1.301 -0.195,2.188 z M 256.852,395.473 c 2.222,0 4.273,0.41 6.148,1.226 1.875,0.817 3.477,1.996 4.797,3.516 1.328,1.519 2.375,3.344 3.117,5.496 0.746,2.152 1.121,4.559 1.121,7.211 0,2.637 -0.363,5.066 -1.109,7.293 -0.731,2.215 -1.77,4.133 -3.098,5.754 -1.332,1.617 -2.922,2.867 -4.785,3.765 -1.855,0.903 -3.93,1.364 -6.191,1.364 -2.227,0 -4.282,-0.414 -6.137,-1.227 -1.863,-0.828 -3.465,-1.996 -4.805,-3.516 -1.34,-1.519 -2.379,-3.355 -3.133,-5.507 -0.742,-2.141 -1.121,-4.547 -1.121,-7.211 0,-2.637 0.379,-5.059 1.114,-7.282 0.73,-2.226 1.769,-4.136 3.097,-5.753 1.332,-1.618 2.922,-2.883 4.785,-3.782 1.856,-0.898 3.93,-1.347 6.2,-1.347 z m -0.188,1.918 c -1.414,0 -2.766,0.269 -4.062,0.804 -1.297,0.535 -2.45,1.399 -3.434,2.578 -0.996,1.192 -1.793,2.735 -2.379,4.622 -0.598,1.882 -0.891,4.179 -0.891,6.894 0,3.172 0.336,5.848 1.008,8.012 0.68,2.164 1.547,3.902 2.606,5.215 1.07,1.312 2.261,2.261 3.582,2.82 1.32,0.551 2.629,0.832 3.937,0.832 1.414,0 2.766,-0.273 4.063,-0.805 1.297,-0.523 2.449,-1.386 3.433,-2.578 0.996,-1.191 1.793,-2.722 2.379,-4.609 0.598,-1.895 0.891,-4.196 0.891,-6.895 0,-3.183 -0.336,-5.859 -1.008,-8.011 -0.68,-2.165 -1.547,-3.903 -2.605,-5.231 -1.071,-1.312 -2.262,-2.246 -3.582,-2.805 -1.321,-0.562 -2.629,-0.843 -3.938,-0.843 z m 119.492,27.179 c 0,0.813 0.047,1.481 0.157,2.004 0.109,0.512 0.316,0.926 0.644,1.231 0.316,0.289 0.766,0.496 1.352,0.617 0.582,0.121 1.359,0.183 2.332,0.183 h 2.605 c 1.371,0 2.492,-0.121 3.367,-0.339 0.864,-0.231 1.594,-0.61 2.188,-1.145 0.597,-0.535 1.121,-1.238 1.582,-2.117 0.461,-0.883 0.972,-1.969 1.519,-3.242 l 1.387,0.312 c -0.195,0.696 -0.367,1.438 -0.535,2.215 -0.172,0.777 -0.316,1.555 -0.465,2.313 -0.144,0.765 -0.254,1.48 -0.351,2.136 -0.098,0.668 -0.157,1.215 -0.184,1.645 -4.727,0 -8.547,-0.016 -11.488,-0.039 -2.93,-0.024 -5.118,-0.035 -6.567,-0.035 -0.426,0 -0.937,0.011 -1.519,0.023 -0.582,0.012 -1.18,0.012 -1.801,0.012 -0.606,0 -1.215,0.011 -1.801,0.023 -0.57,0.016 -1.066,0.016 -1.469,0.016 L 367,429.168 c 1.094,-0.066 1.969,-0.188 2.637,-0.332 0.66,-0.156 1.168,-0.402 1.531,-0.719 0.355,-0.312 0.598,-0.765 0.707,-1.312 0.121,-0.559 0.184,-1.289 0.184,-2.2 v -23.964 c 0,-0.571 -0.051,-1.047 -0.161,-1.426 -0.109,-0.387 -0.328,-0.703 -0.644,-0.949 -0.316,-0.254 -0.777,-0.434 -1.387,-0.559 -0.605,-0.109 -1.422,-0.191 -2.441,-0.242 l 0.109,-1.289 c 0.449,0 0.973,0.012 1.543,0.023 0.586,0.016 1.18,0.016 1.766,0.016 0.617,0 1.215,0.012 1.797,0.023 0.586,0.012 1.132,0.012 1.629,0.012 0.925,0 2.871,-0.012 5.835,-0.035 2.969,-0.027 6.75,-0.039 11.336,-0.039 -0.148,1.215 -0.257,2.492 -0.332,3.82 -0.058,1.324 -0.105,2.746 -0.132,4.242 l -1.434,0.035 c -0.207,-1.238 -0.449,-2.257 -0.707,-3.062 -0.266,-0.816 -0.629,-1.461 -1.106,-1.945 -0.472,-0.489 -1.093,-0.828 -1.847,-1.032 -0.766,-0.211 -1.75,-0.304 -2.953,-0.304 h -5.098 c -0.715,0 -1.18,0.07 -1.371,0.218 -0.207,0.133 -0.305,0.508 -0.305,1.094 v 12.328 l 12.035,-0.351 0.258,0.242 -0.074,2.953 c -2.164,-0.18 -4.293,-0.316 -6.395,-0.387 -2.105,-0.074 -4.05,-0.121 -5.824,-0.172 z m -23.148,-27.179 c -0.973,0.074 -1.762,0.183 -2.371,0.343 -0.61,0.157 -1.071,0.387 -1.41,0.715 -0.329,0.317 -0.559,0.766 -0.668,1.324 -0.121,0.575 -0.184,1.305 -0.184,2.18 v 22.617 c 0,0.813 0.051,1.481 0.16,2.004 0.11,0.512 0.313,0.926 0.641,1.231 0.316,0.289 0.769,0.496 1.351,0.617 0.582,0.121 1.364,0.183 2.336,0.183 h 1.848 c 1.387,0 2.504,-0.121 3.391,-0.339 0.875,-0.231 1.617,-0.61 2.226,-1.145 0.61,-0.535 1.129,-1.238 1.578,-2.117 0.453,-0.883 0.949,-1.969 1.496,-3.242 l 1.364,0.312 c -0.196,0.696 -0.375,1.438 -0.536,2.215 -0.171,0.777 -0.328,1.555 -0.46,2.313 -0.149,0.765 -0.27,1.48 -0.368,2.136 -0.093,0.668 -0.144,1.215 -0.168,1.645 h -5.425 c -1.567,0 -2.918,0 -4.059,-0.016 -1.133,-0.012 -2.117,-0.023 -2.918,-0.023 -0.805,0 -1.508,0 -2.105,-0.012 -0.594,-0.012 -1.118,-0.023 -1.567,-0.023 h -1.242 c -0.473,0 -0.996,0.011 -1.566,0.023 -0.575,0.012 -1.145,0.012 -1.715,0.012 -0.574,0 -1.11,0.011 -1.617,0.023 -0.512,0.016 -0.938,0.016 -1.266,0.016 l -0.109,-1.215 c 0.972,-0.066 1.761,-0.188 2.371,-0.332 0.609,-0.156 1.07,-0.402 1.41,-0.719 0.328,-0.312 0.558,-0.765 0.668,-1.312 0.121,-0.559 0.183,-1.289 0.183,-2.2 v -23.964 c 0,-0.571 -0.047,-1.047 -0.156,-1.426 -0.113,-0.387 -0.328,-0.703 -0.648,-0.949 -0.313,-0.254 -0.778,-0.434 -1.383,-0.559 -0.61,-0.109 -1.422,-0.191 -2.445,-0.242 l 0.109,-1.289 c 0.379,0 0.851,0.012 1.41,0.023 0.559,0.016 1.156,0.016 1.801,0.016 0.633,0 1.289,0.012 1.957,0.023 0.656,0.012 1.277,0.012 1.848,0.012 0.449,0 0.96,0 1.531,-0.012 0.574,-0.011 1.144,-0.023 1.715,-0.023 0.574,0 1.093,0 1.605,-0.016 0.5,-0.011 0.914,-0.023 1.242,-0.023 z m -30.481,20.343 H 310.66 l -2.746,7.016 c -0.473,1.348 -0.707,2.215 -0.707,2.566 0,0.622 0.293,1.047 0.875,1.289 0.574,0.231 1.617,0.387 3.113,0.461 l -0.109,1.278 c -0.875,0 -1.859,-0.012 -2.953,-0.035 -1.094,-0.024 -2.176,-0.036 -3.246,-0.036 -0.875,0 -1.789,0.012 -2.723,0.036 -0.937,0.023 -1.851,0.035 -2.726,0.035 l -0.071,-1.215 c 0.922,-0.063 1.688,-0.184 2.285,-0.328 0.594,-0.16 1.106,-0.449 1.543,-0.863 0.438,-0.415 0.864,-0.985 1.254,-1.704 0.387,-0.73 0.852,-1.691 1.375,-2.906 l 9.86,-24.113 c 0.281,-0.715 0.582,-1.336 0.91,-1.871 0.316,-0.535 0.597,-1.117 0.84,-1.727 l 2.238,-0.293 c 0.266,1.145 0.547,2.192 0.84,3.137 0.293,0.949 0.57,1.812 0.836,2.605 l 8.015,23.223 c 0.352,1.047 0.68,1.859 0.961,2.457 0.289,0.594 0.621,1.059 0.996,1.371 0.375,0.317 0.864,0.535 1.446,0.66 0.586,0.118 1.339,0.215 2.261,0.289 l -0.109,1.278 c -0.996,0 -2.09,-0.012 -3.293,-0.035 -1.203,-0.024 -2.41,-0.036 -3.613,-0.036 -0.996,0 -2.004,0.012 -3.028,0.036 -1.019,0.023 -2.027,0.035 -3.027,0.035 l -0.109,-1.215 c 1.324,-0.086 2.273,-0.254 2.847,-0.477 0.571,-0.23 0.86,-0.64 0.86,-1.261 0,-0.27 -0.047,-0.563 -0.145,-0.914 -0.097,-0.34 -0.219,-0.727 -0.351,-1.157 z m -11.05,-2.066 h 10.371 l -4.668,-14.105 h -0.11 z m -25.508,3.527 c 0,-0.695 -0.012,-1.277 -0.035,-1.765 -0.024,-0.485 -0.098,-0.969 -0.231,-1.457 -0.125,-0.485 -0.332,-1.02 -0.586,-1.582 -0.265,-0.571 -0.633,-1.289 -1.105,-2.141 -0.645,-1.141 -1.422,-2.516 -2.336,-4.133 -0.91,-1.617 -2.067,-3.586 -3.465,-5.91 -0.547,-0.934 -1.02,-1.687 -1.41,-2.262 -0.391,-0.582 -0.817,-1.047 -1.254,-1.398 -0.438,-0.34 -0.945,-0.594 -1.543,-0.742 -0.594,-0.157 -1.348,-0.266 -2.285,-0.34 l 0.074,-1.289 c 0.996,0 2.102,0.012 3.293,0.039 1.203,0.023 2.406,0.035 3.625,0.035 0.996,0 2.004,-0.012 3.039,-0.035 1.035,-0.027 2.055,-0.039 3.051,-0.039 l 0.097,1.215 c -1.277,0.101 -2.164,0.257 -2.648,0.464 -0.488,0.219 -0.73,0.536 -0.73,0.961 0,0.289 0.085,0.618 0.253,0.997 0.161,0.39 0.391,0.851 0.668,1.398 l 6.485,11.926 6.273,-11.332 c 0.375,-0.68 0.668,-1.262 0.875,-1.727 0.196,-0.461 0.305,-0.863 0.305,-1.187 0,-0.453 -0.27,-0.782 -0.805,-0.977 -0.535,-0.207 -1.484,-0.351 -2.832,-0.449 l 0.074,-1.289 c 0.875,0 1.797,0.012 2.77,0.039 0.977,0.023 1.996,0.035 3.066,0.035 0.887,0 1.786,-0.012 2.723,-0.035 0.949,-0.027 1.848,-0.039 2.738,-0.039 l 0.094,1.215 c -0.922,0.074 -1.687,0.199 -2.297,0.355 -0.597,0.168 -1.144,0.461 -1.617,0.863 -0.477,0.399 -0.949,0.95 -1.41,1.629 -0.461,0.692 -1.024,1.594 -1.692,2.711 -1.203,2.02 -2.25,3.805 -3.136,5.364 -0.875,1.554 -1.567,2.832 -2.067,3.828 -0.5,0.972 -0.875,1.765 -1.133,2.347 -0.265,0.598 -0.449,1.121 -0.57,1.571 -0.121,0.449 -0.18,0.886 -0.195,1.3 -0.012,0.414 -0.024,0.922 -0.024,1.52 v 7.051 c 0,0.574 0.047,1.047 0.145,1.422 0.102,0.378 0.305,0.695 0.644,0.949 0.329,0.242 0.84,0.426 1.508,0.547 0.684,0.121 1.606,0.207 2.762,0.254 l -0.074,1.281 c -0.496,0 -1.055,0 -1.688,-0.016 -0.633,-0.012 -1.277,-0.023 -1.933,-0.023 -0.668,0 -1.325,0 -1.985,-0.012 -0.656,-0.012 -1.261,-0.023 -1.836,-0.023 -0.472,0 -0.984,0.011 -1.543,0.023 -0.558,0.012 -1.132,0.012 -1.703,0.012 -0.558,0 -1.129,0.011 -1.703,0.023 -0.57,0.016 -1.078,0.016 -1.531,0.016 l -0.109,-1.215 c 1.093,-0.066 1.968,-0.176 2.64,-0.32 0.668,-0.145 1.168,-0.375 1.496,-0.719 0.328,-0.324 0.547,-0.777 0.653,-1.324 0.113,-0.559 0.16,-1.289 0.16,-2.2 z m -69.578,6.453 c 0,0.594 0.023,1.09 0.078,1.512 0.047,0.406 0.215,0.754 0.519,1.02 0.293,0.281 0.762,0.48 1.399,0.609 0.625,0.141 1.527,0.231 2.699,0.254 v 1.34 c -1.195,0 -2.406,-0.016 -3.652,-0.039 -1.246,-0.028 -2.457,-0.039 -3.653,-0.039 -0.472,0 -0.992,0.011 -1.566,0.023 -0.574,0.016 -1.145,0.016 -1.719,0.016 -0.547,0 -1.07,0.011 -1.566,0.023 -0.496,0.016 -0.914,0.016 -1.27,0.016 l -0.066,-1.274 c 0.969,-0.066 1.746,-0.191 2.332,-0.343 0.582,-0.168 1.027,-0.422 1.359,-0.754 0.32,-0.332 0.535,-0.801 0.649,-1.375 0.117,-0.582 0.168,-1.348 0.168,-2.301 v -25.09 c 0,-0.598 -0.051,-1.094 -0.153,-1.488 -0.101,-0.41 -0.308,-0.738 -0.613,-0.992 -0.305,-0.27 -0.777,-0.461 -1.398,-0.586 -0.625,-0.117 -1.454,-0.203 -2.497,-0.258 l 0.079,-1.344 c 0.394,0 0.863,0.008 1.398,0.024 0.535,0.011 1.109,0.011 1.73,0.011 0.625,0 1.25,0.012 1.899,0.024 0.648,0.015 1.273,0.015 1.871,0.015 0.992,0 1.984,-0.066 2.992,-0.207 1.016,-0.14 2.035,-0.203 3.078,-0.203 1.492,0 2.992,0.129 4.481,0.371 1.488,0.254 2.84,0.7 4.047,1.348 1.199,0.648 2.179,1.531 2.929,2.625 0.739,1.105 1.106,2.519 1.106,4.238 0,1.145 -0.176,2.227 -0.535,3.246 -0.356,1.016 -0.864,1.946 -1.512,2.774 -0.637,0.84 -1.402,1.566 -2.293,2.203 -0.879,0.637 -1.856,1.144 -2.926,1.551 0.801,1.515 1.578,2.965 2.352,4.355 0.765,1.399 1.476,2.672 2.14,3.832 0.661,1.145 1.262,2.16 1.793,3.028 0.535,0.878 0.981,1.554 1.325,2.05 0.472,0.649 0.878,1.168 1.234,1.555 0.344,0.379 0.726,0.684 1.133,0.887 0.41,0.218 0.894,0.371 1.441,0.472 0.547,0.102 1.246,0.192 2.125,0.266 l -0.078,1.34 c -0.75,0 -1.719,-0.016 -2.926,-0.039 -1.211,-0.028 -2.367,-0.039 -3.488,-0.039 -0.344,0 -0.727,0.011 -1.133,0.023 -0.422,0.016 -0.789,0.027 -1.144,0.055 -0.243,-0.524 -0.637,-1.289 -1.161,-2.293 -0.523,-1.004 -1.132,-2.18 -1.859,-3.516 -0.723,-1.32 -1.512,-2.769 -2.391,-4.34 -0.867,-1.562 -1.769,-3.156 -2.71,-4.769 -0.153,-0.242 -0.293,-0.473 -0.434,-0.676 -0.141,-0.191 -0.32,-0.355 -0.524,-0.5 -0.214,-0.137 -0.496,-0.238 -0.839,-0.316 -0.344,-0.075 -0.813,-0.114 -1.375,-0.114 h -1.118 c -0.207,0 -0.445,0 -0.738,-0.011 -0.281,-0.016 -0.625,-0.039 -1.019,-0.063 z m 0,-13.648 c 0.203,0.027 0.394,0.039 0.597,0.051 0.192,0.012 0.395,0.027 0.598,0.027 h 1.184 c 2.941,0 5.207,-0.676 6.812,-2.027 1.602,-1.332 2.406,-3.512 2.406,-6.516 0,-2.543 -0.765,-4.39 -2.293,-5.562 -1.527,-1.172 -3.566,-1.758 -6.097,-1.758 -0.778,0 -1.375,0.078 -1.809,0.219 -0.43,0.125 -0.75,0.332 -0.953,0.609 -0.203,0.27 -0.32,0.613 -0.367,1.008 -0.055,0.394 -0.078,0.84 -0.078,1.336 z m 248.578,-16.602 c 2.222,0 4.273,0.415 6.148,1.227 1.875,0.816 3.477,1.992 4.797,3.516 1.328,1.519 2.375,3.343 3.117,5.496 0.746,2.152 1.121,4.558 1.121,7.211 0,2.636 -0.363,5.07 -1.109,7.293 -0.73,2.214 -1.77,4.136 -3.098,5.754 -1.332,1.617 -2.922,2.871 -4.785,3.769 -1.855,0.899 -3.93,1.359 -6.191,1.359 -2.231,0 -4.281,-0.414 -6.137,-1.226 -1.863,-0.828 -3.465,-1.996 -4.805,-3.512 -1.339,-1.523 -2.379,-3.359 -3.132,-5.512 -0.743,-2.14 -1.122,-4.546 -1.122,-7.21 0,-2.637 0.379,-5.059 1.114,-7.282 0.73,-2.226 1.769,-4.136 3.097,-5.754 1.329,-1.617 2.922,-2.882 4.786,-3.781 1.855,-0.898 3.925,-1.348 6.199,-1.348 z m -0.188,1.922 c -1.414,0 -2.765,0.266 -4.062,0.801 -1.297,0.535 -2.449,1.399 -3.434,2.578 -0.996,1.192 -1.793,2.739 -2.379,4.621 -0.597,1.887 -0.89,4.18 -0.89,6.895 0,3.172 0.336,5.848 1.007,8.012 0.68,2.164 1.547,3.906 2.606,5.218 1.07,1.309 2.262,2.262 3.582,2.817 1.32,0.551 2.629,0.828 3.937,0.828 1.415,0 2.762,-0.266 4.063,-0.801 1.297,-0.523 2.449,-1.387 3.434,-2.578 0.996,-1.191 1.793,-2.723 2.378,-4.609 0.594,-1.899 0.891,-4.192 0.891,-6.895 0,-3.184 -0.336,-5.859 -1.008,-8.012 -0.679,-2.164 -1.547,-3.902 -2.605,-5.226 -1.071,-1.313 -2.262,-2.254 -3.582,-2.813 -1.321,-0.558 -2.629,-0.836 -3.938,-0.836 z" /><path
         id="path26"
         style="fill:#151616;fill-opacity:1;fill-rule:evenodd;stroke:none"
         d="m 210.496,451.211 h 7.211 c 1.07,0 2.043,0.121 2.922,0.355 0.875,0.239 1.629,0.594 2.254,1.067 0.625,0.472 1.113,1.066 1.465,1.785 0.351,0.715 0.527,1.547 0.527,2.496 v 0.043 c 0,0.961 -0.176,1.813 -0.527,2.555 -0.352,0.738 -0.848,1.363 -1.489,1.863 -0.64,0.504 -1.406,0.883 -2.3,1.137 -0.895,0.25 -1.883,0.375 -2.965,0.375 h -1.739 v 4.351 h -5.359 z m 6.801,7.855 c 0.687,0 1.238,-0.152 1.66,-0.449 0.418,-0.297 0.629,-0.734 0.629,-1.316 v -0.043 c 0,-0.582 -0.199,-1.02 -0.594,-1.317 -0.398,-0.3 -0.957,-0.449 -1.672,-0.449 h -1.465 v 3.574 z m 20.871,-7.855 h 13.668 v 4.398 h -8.402 v 1.625 h 7.832 v 3.868 h -7.832 v 1.742 h 8.519 v 4.394 h -13.785 z m 27.379,0 h 7.828 c 1.434,0 2.613,0.164 3.535,0.492 0.926,0.328 1.668,0.777 2.235,1.34 0.488,0.488 0.855,1.039 1.097,1.648 0.246,0.61 0.367,1.329 0.367,2.153 v 0.047 c 0,1.175 -0.281,2.168 -0.847,2.976 -0.563,0.809 -1.336,1.449 -2.313,1.922 l 3.731,5.449 h -6.11 l -3.023,-4.578 h -1.145 v 4.578 h -5.355 z m 7.668,7.625 c 0.64,0 1.144,-0.137 1.512,-0.414 0.367,-0.274 0.546,-0.656 0.546,-1.145 v -0.043 c 0,-0.519 -0.179,-0.906 -0.546,-1.156 -0.368,-0.254 -0.864,-0.379 -1.489,-0.379 h -2.336 v 3.137 z m 20.851,-7.625 h 13.414 v 4.578 h -8.058 v 2.039 h 7.488 v 4.168 h -7.488 v 5.242 h -5.356 z m 35.18,16.371 c -1.234,0 -2.383,-0.215 -3.445,-0.641 -1.059,-0.429 -1.985,-1.015 -2.77,-1.765 -0.785,-0.746 -1.398,-1.629 -1.843,-2.645 -0.442,-1.011 -0.665,-2.101 -0.665,-3.261 v -0.043 c 0,-1.161 0.227,-2.25 0.676,-3.266 0.453,-1.012 1.071,-1.898 1.856,-2.652 0.785,-0.758 1.715,-1.352 2.781,-1.789 1.07,-0.434 2.223,-0.653 3.457,-0.653 1.238,0 2.387,0.215 3.445,0.645 1.063,0.426 1.985,1.011 2.77,1.761 0.785,0.747 1.402,1.629 1.844,2.645 0.441,1.012 0.664,2.102 0.664,3.262 v 0.047 c 0,1.156 -0.227,2.246 -0.676,3.261 -0.449,1.016 -1.067,1.899 -1.856,2.657 -0.785,0.753 -1.711,1.347 -2.781,1.785 -1.066,0.433 -2.219,0.652 -3.457,0.652 z m 0.047,-4.738 c 0.504,0 0.961,-0.102 1.375,-0.301 0.41,-0.195 0.762,-0.461 1.051,-0.789 0.293,-0.328 0.511,-0.707 0.664,-1.133 0.152,-0.426 0.23,-0.879 0.23,-1.351 v -0.043 c 0,-0.477 -0.082,-0.93 -0.242,-1.364 -0.16,-0.437 -0.383,-0.82 -0.676,-1.156 -0.289,-0.336 -0.64,-0.605 -1.05,-0.801 -0.415,-0.199 -0.879,-0.297 -1.399,-0.297 -0.504,0 -0.961,0.098 -1.371,0.297 -0.414,0.196 -0.766,0.461 -1.055,0.789 -0.289,0.328 -0.511,0.707 -0.664,1.133 -0.152,0.426 -0.226,0.879 -0.226,1.352 v 0.047 c 0,0.472 0.078,0.925 0.238,1.359 0.16,0.437 0.387,0.82 0.676,1.156 0.289,0.336 0.64,0.606 1.054,0.801 0.411,0.199 0.875,0.301 1.395,0.301 z m 22.34,-11.633 h 7.828 c 1.437,0 2.613,0.164 3.539,0.492 0.922,0.328 1.668,0.777 2.23,1.34 0.489,0.488 0.856,1.039 1.098,1.648 0.246,0.61 0.367,1.329 0.367,2.153 v 0.047 c 0,1.175 -0.281,2.168 -0.847,2.976 -0.563,0.809 -1.336,1.449 -2.313,1.922 l 3.735,5.449 h -6.114 l -3.023,-4.578 h -1.145 v 4.578 h -5.355 z m 7.668,7.625 c 0.64,0 1.144,-0.137 1.512,-0.414 0.367,-0.274 0.55,-0.656 0.55,-1.145 v -0.043 c 0,-0.519 -0.183,-0.906 -0.55,-1.156 -0.368,-0.254 -0.864,-0.379 -1.489,-0.379 h -2.336 v 3.137 z m 20.851,-7.625 h 5.586 l 3.434,5.633 3.433,-5.633 h 5.586 v 16.027 h -5.332 v -7.945 l -3.687,5.699 h -0.09 l -3.687,-5.699 v 7.945 h -5.243 z m 37.61,-0.113 h 5.312 l 6.75,16.14 h -5.812 l -0.848,-2.152 h -5.609 l -0.825,2.152 h -5.722 z m 4.074,10.187 -1.465,-3.89 -1.465,3.89 z m 20.805,-10.074 h 5.015 l 5.699,7.074 v -7.074 h 5.313 v 16.027 h -4.762 l -5.953,-7.394 v 7.394 h -5.312 z m 37.953,16.371 c -1.114,0 -2.172,-0.199 -3.172,-0.598 -1,-0.394 -1.879,-0.961 -2.645,-1.691 -0.761,-0.734 -1.367,-1.613 -1.82,-2.633 -0.449,-1.023 -0.672,-2.152 -0.672,-3.39 v -0.043 c 0,-1.192 0.215,-2.297 0.653,-3.321 0.433,-1.023 1.035,-1.91 1.808,-2.656 0.77,-0.75 1.672,-1.332 2.711,-1.75 1.039,-0.422 2.152,-0.633 3.344,-0.633 0.883,0 1.695,0.106 2.437,0.313 0.739,0.203 1.41,0.492 2.016,0.855 0.601,0.367 1.137,0.805 1.601,1.317 0.465,0.511 0.868,1.074 1.2,1.683 l -4.418,2.586 c -0.305,-0.578 -0.68,-1.047 -1.133,-1.406 -0.449,-0.36 -1.039,-0.539 -1.774,-0.539 -0.457,0 -0.871,0.094 -1.234,0.273 -0.367,0.184 -0.68,0.438 -0.941,0.758 -0.258,0.32 -0.461,0.695 -0.606,1.121 -0.144,0.426 -0.219,0.879 -0.219,1.352 v 0.047 c 0,0.515 0.075,0.992 0.219,1.429 0.145,0.434 0.352,0.809 0.617,1.121 0.27,0.313 0.586,0.559 0.954,0.735 0.363,0.172 0.769,0.261 1.21,0.261 0.762,0 1.375,-0.187 1.833,-0.562 0.457,-0.371 0.855,-0.856 1.191,-1.453 l 4.418,2.496 c -0.336,0.594 -0.734,1.156 -1.192,1.684 -0.457,0.527 -0.996,0.984 -1.613,1.371 -0.617,0.39 -1.32,0.699 -2.105,0.929 -0.789,0.227 -1.676,0.344 -2.668,0.344 z m 20.758,-16.371 h 13.668 v 4.398 h -8.403 v 1.625 h 7.832 v 3.868 h -7.832 v 1.742 h 8.516 v 4.394 h -13.781 z m 44.132,0 h 7.215 c 1.067,0 2.039,0.121 2.918,0.355 0.875,0.239 1.629,0.594 2.254,1.067 0.625,0.472 1.113,1.066 1.465,1.785 0.352,0.715 0.527,1.547 0.527,2.496 v 0.043 c 0,0.961 -0.175,1.813 -0.527,2.555 -0.352,0.738 -0.848,1.363 -1.488,1.863 -0.641,0.504 -1.407,0.883 -2.301,1.137 -0.891,0.25 -1.879,0.375 -2.965,0.375 h -1.738 v 4.351 h -5.36 z m 6.801,7.855 c 0.688,0 1.238,-0.152 1.66,-0.449 0.418,-0.297 0.629,-0.734 0.629,-1.316 v -0.043 c 0,-0.582 -0.199,-1.02 -0.594,-1.317 -0.398,-0.3 -0.953,-0.449 -1.671,-0.449 h -1.465 v 3.574 z m 20.875,-7.855 h 5.356 v 11.449 h 7.531 v 4.578 H 573.16 Z m 27.992,10.348 -6.043,-10.348 h 5.996 l 2.75,5.266 2.77,-5.266 h 5.93 l -6.043,10.281 v 5.746 h -5.36 z" /></g></g></svg>