<svg width="88" height="90" viewBox="0 0 88 90" fill="none" xmlns="http://www.w3.org/2000/svg">
<path d="M44.0209 0.965332C43.7513 0.970912 43.4897 1.0581 43.2706 1.2154L36.2271 6.00839L27.933 4.25791C27.6717 4.20679 27.4011 4.23508 27.156 4.33907C26.9109 4.44305 26.7025 4.61799 26.5577 4.8414L21.8898 11.9684L13.5957 13.5105C13.3256 13.5578 13.0767 13.6873 12.8828 13.8812C12.689 14.0751 12.5596 14.324 12.5122 14.5941L10.9701 22.8881L3.84317 27.5561C3.61973 27.7009 3.44475 27.9092 3.34073 28.1543C3.23672 28.3994 3.20844 28.6701 3.25954 28.9314L5.01016 37.2254L0.217104 44.269C0.0754389 44.4859 0 44.7393 0 44.9983C0 45.2574 0.0754389 45.5109 0.217104 45.7278L5.01016 52.7713L3.25954 61.0653C3.20844 61.3267 3.23672 61.5972 3.34073 61.8423C3.44475 62.0874 3.61973 62.2958 3.84317 62.4406L10.9701 67.1086L12.5122 75.4026C12.5596 75.6727 12.689 75.9216 12.8828 76.1155C13.0767 76.3094 13.3256 76.4388 13.5957 76.4862L21.8898 78.0283L26.5577 85.1553C26.7025 85.3787 26.9109 85.5537 27.156 85.6577C27.4011 85.7617 27.6717 85.7899 27.933 85.7387L36.2271 83.9883L43.2706 88.7813C43.4897 88.9386 43.7513 89.0257 44.0209 89.0313C44.2905 89.0257 44.552 88.9385 44.771 88.7813L51.8147 83.9883L60.067 85.7387C60.3283 85.7899 60.5989 85.7617 60.844 85.6577C61.0891 85.5537 61.2975 85.3787 61.4423 85.1553L66.1102 78.0283L74.4043 76.4862C74.6744 76.4389 74.9233 76.3096 75.1172 76.1156C75.3111 75.9217 75.4406 75.6727 75.4879 75.4026L77.0301 67.1086L84.157 62.4406C84.3804 62.2958 84.5553 62.0874 84.6593 61.8423C84.7633 61.5972 84.7916 61.3266 84.7405 61.0653L82.99 52.7713L87.7829 45.7278C87.9246 45.5109 88 45.2574 88 44.9983C88 44.7393 87.9246 44.4859 87.7829 44.269L82.99 37.2254L84.7405 28.9314C84.7916 28.6701 84.7633 28.3995 84.6593 28.1544C84.5553 27.9093 84.3804 27.7009 84.157 27.5561L77.0301 22.8881L75.4879 14.5941C75.4406 14.324 75.3111 14.075 75.1172 13.8811C74.9233 13.6872 74.6744 13.5578 74.4043 13.5105L66.1102 11.9684L61.4423 4.8414C61.2975 4.61799 61.0891 4.44305 60.844 4.33907C60.5989 4.23508 60.3283 4.20679 60.067 4.25791L51.8147 6.00839L44.771 1.2154C44.552 1.05815 44.2905 0.970966 44.0209 0.965332ZM44.0209 3.92448L50.7311 8.50908C50.8812 8.61335 51.0511 8.6857 51.2304 8.72154C51.4096 8.75739 51.5943 8.75598 51.7729 8.71747L59.6918 7.09202L64.1513 13.8856C64.25 14.0371 64.3785 14.167 64.529 14.2673C64.6795 14.3676 64.8488 14.4362 65.0266 14.4691L73.0288 15.9695L74.5292 23.9718C74.5621 24.1496 74.6308 24.3189 74.7311 24.4693C74.8314 24.6198 74.9612 24.7482 75.1127 24.8469L81.9063 29.3066L80.2808 37.267C80.2423 37.4457 80.2409 37.6304 80.2768 37.8097C80.3127 37.9889 80.385 38.1589 80.4893 38.3091L85.0739 45.0192L80.4893 51.6877C80.385 51.8378 80.3127 52.0077 80.2768 52.187C80.2409 52.3663 80.2423 52.551 80.2808 52.7297L81.9063 60.6902L75.1127 65.1498C74.9612 65.2485 74.8314 65.377 74.7311 65.5274C74.6308 65.6779 74.5621 65.8472 74.5292 66.025L73.0288 74.0272L65.0266 75.5276C64.8488 75.5604 64.6795 75.6292 64.529 75.7295C64.3785 75.8298 64.25 75.9596 64.1513 76.1111L59.6918 82.9046L51.7729 81.2792C51.5943 81.2407 51.4096 81.2393 51.2304 81.2751C51.0511 81.311 50.8812 81.3833 50.7311 81.4876L44.0209 86.0722L37.3107 81.4876C37.1606 81.3833 36.9906 81.311 36.8113 81.2751C36.6321 81.2393 36.4474 81.2407 36.2687 81.2792L28.3082 82.9046L23.8487 76.1111C23.75 75.9596 23.6215 75.8298 23.471 75.7295C23.3205 75.6292 23.1512 75.5604 22.9734 75.5276L14.9712 74.0272L13.4708 66.025C13.4379 65.8472 13.3692 65.6779 13.2689 65.5274C13.1686 65.377 13.0388 65.2485 12.8873 65.1498L6.09366 60.6902L7.71918 52.7297C7.75771 52.551 7.7591 52.3663 7.72326 52.187C7.68743 52.0077 7.61513 51.8378 7.51085 51.6877L2.92612 45.0192L7.51085 38.3091C7.61513 38.1589 7.68743 37.9889 7.72326 37.8097C7.7591 37.6304 7.75771 37.4457 7.71918 37.267L6.09366 29.3066L12.8873 24.8469C13.0388 24.7482 13.1686 24.6198 13.2689 24.4693C13.3692 24.3189 13.4379 24.1496 13.4708 23.9718L14.9712 15.9695L22.9734 14.4691C23.1512 14.4362 23.3205 14.3676 23.471 14.2673C23.6215 14.167 23.75 14.0371 23.8487 13.8856L28.3082 7.09202L36.2687 8.71747C36.4474 8.756 36.6321 8.75739 36.8113 8.72154C36.9906 8.6857 37.1606 8.61337 37.3107 8.50908L44.0209 3.92448ZM44.0209 14.344C27.0951 14.344 13.3458 28.0936 13.3458 45.0192C13.3458 61.9448 27.0951 75.6943 44.0209 75.6943C60.9467 75.6943 74.6961 61.9448 74.6961 45.0192C74.6961 28.0936 60.9467 14.344 44.0209 14.344ZM44.0209 17.0114C59.505 17.0114 72.0287 29.5352 72.0287 45.0192C72.0287 60.5032 59.505 73.0269 44.0209 73.0269C28.5369 73.0269 16.0132 60.5032 16.0132 45.0192C16.0132 29.5352 28.5369 17.0114 44.0209 17.0114ZM57.8997 31.6821L40.5616 50.1873L31.4757 42.1017L26.1409 48.0618L38.1443 58.7314L41.0617 61.3154L43.7291 58.4813L63.7346 37.1421L57.8997 31.6821Z" fill="#006F69"/>
</svg>
