<svg width="116" height="81" viewBox="0 0 116 81" fill="none" xmlns="http://www.w3.org/2000/svg">
<path d="M14.6733 78.7171V70.9461C14.6733 69.927 13.8394 69.0931 12.8203 69.0931C11.8011 69.0931 10.9673 69.927 10.9673 70.9461V78.7171C10.9673 79.7362 11.8011 80.57 12.8203 80.57C13.8394 80.57 14.6733 79.7362 14.6733 78.7171Z" fill="#006F69"/>
<path d="M34.7202 78.7171V70.9461C34.7202 69.927 33.8864 69.0931 32.8673 69.0931C31.8481 69.0931 31.0143 69.927 31.0143 70.9461V78.7171C31.0143 79.7362 31.8481 80.57 32.8673 80.57C33.8864 80.57 34.7202 79.7362 34.7202 78.7171Z" fill="#006F69"/>
<path d="M22.8495 50.4938C29.0107 50.4938 34.0369 45.4792 34.0369 39.3064C34.0369 35.531 32.1492 32.2072 29.2771 30.1805C29.8677 29.752 30.4815 29.3582 31.1069 29.0108C36.7585 25.8723 43.9967 25.8723 49.6483 29.0108C50.2853 29.3698 50.8991 29.7636 51.4897 30.1921C48.6176 32.2188 46.7298 35.5425 46.7298 39.318C46.7298 45.4792 51.7445 50.5054 57.9172 50.5054C64.0784 50.5054 69.1046 45.4907 69.1046 39.318C69.1046 35.5425 67.2169 32.2188 64.3448 30.1921C64.9354 29.7636 65.5492 29.3698 66.1746 29.0108C71.8262 25.8723 79.0528 25.8607 84.716 29.0108C85.353 29.3582 85.9552 29.7636 86.5458 30.1805C83.6737 32.2072 81.786 35.531 81.786 39.3064C81.786 45.4676 86.8006 50.4938 92.9733 50.4938C99.1345 50.4938 104.161 45.4792 104.161 39.3064C104.161 33.1452 99.1461 28.119 92.9733 28.119C92.0584 28.119 91.1783 28.258 90.3328 28.4665C89.14 27.4357 87.8776 26.5093 86.5227 25.7565C79.7593 22.0042 71.1313 22.0042 64.3795 25.7565C63.0129 26.5093 61.7622 27.4473 60.5693 28.4665C59.7123 28.258 58.8437 28.119 57.9172 28.119C57.0023 28.119 56.1222 28.258 55.2651 28.4665C54.0839 27.4473 52.8215 26.5093 51.4549 25.7565C44.6916 22.0042 36.052 22.0042 29.3118 25.7565C27.9452 26.5093 26.6829 27.4473 25.5016 28.4665C24.6562 28.258 23.776 28.119 22.8611 28.119C16.6999 28.119 11.6737 33.1337 11.6737 39.3064C11.6621 45.4792 16.6768 50.4938 22.8495 50.4938ZM100.443 39.3064C100.443 43.4293 97.0846 46.7762 92.9733 46.7762C88.8505 46.7762 85.5035 43.4293 85.5035 39.3064C85.5035 35.1835 88.8505 31.8366 92.9733 31.8366C97.0846 31.8366 100.443 35.1835 100.443 39.3064ZM65.3755 39.3064C65.3755 43.4293 62.0169 46.7762 57.9056 46.7762C53.7828 46.7762 50.4358 43.4293 50.4358 39.3064C50.4358 35.1835 53.7828 31.8366 57.9056 31.8366C62.0285 31.8366 65.3755 35.1835 65.3755 39.3064ZM22.8495 31.8366C26.9724 31.8366 30.3194 35.1951 30.3194 39.3064C30.3194 43.4293 26.9608 46.7762 22.8495 46.7762C18.7266 46.7762 15.3797 43.4293 15.3797 39.3064C15.3797 35.1835 18.7266 31.8366 22.8495 31.8366Z" fill="#006F69"/>
<path d="M49.741 78.7171V70.9461C49.741 69.927 48.9072 69.0931 47.888 69.0931C46.8689 69.0931 46.035 69.927 46.035 70.9461V78.7171C46.035 79.7362 46.8689 80.57 47.888 80.57C48.9072 80.57 49.741 79.7362 49.741 78.7171Z" fill="#006F69"/>
<path d="M69.7764 78.7171V70.9461C69.7764 69.927 68.9426 69.0931 67.9234 69.0931C66.9043 69.0931 66.0704 69.927 66.0704 70.9461V78.7171C66.0704 79.7362 66.9043 80.57 67.9234 80.57C68.9426 80.57 69.7764 79.7362 69.7764 78.7171Z" fill="#006F69"/>
<path d="M40.3718 22.3748C46.533 22.3748 51.5592 17.3601 51.5592 11.1874C51.5592 5.02622 46.5446 0 40.3718 0C34.2107 0 29.1844 5.01464 29.1844 11.1874C29.196 17.3601 34.2107 22.3748 40.3718 22.3748ZM40.3718 3.71755C44.4947 3.71755 47.8417 7.0645 47.8417 11.1874C47.8417 15.3103 44.4831 18.6572 40.3718 18.6572C36.2489 18.6572 32.902 15.3103 32.902 11.1874C32.902 7.07608 36.2605 3.71755 40.3718 3.71755Z" fill="#006F69"/>
<path d="M75.4396 22.3748C81.6007 22.3748 86.627 17.3601 86.627 11.1874C86.627 5.02622 81.6123 0 75.4396 0C69.2784 0 64.2522 5.01464 64.2522 11.1874C64.2522 17.3601 69.2668 22.3748 75.4396 22.3748ZM75.4396 3.71755C79.5625 3.71755 82.9094 7.0645 82.9094 11.1874C82.9094 15.3103 79.5509 18.6572 75.4396 18.6572C71.3167 18.6572 67.9697 15.3103 67.9697 11.1874C67.9582 7.07608 71.3167 3.71755 75.4396 3.71755Z" fill="#006F69"/>
<path d="M104.033 53.8754C97.27 50.1231 88.6305 50.1231 81.8903 53.8754C79.3771 55.2651 77.2231 57.1181 75.4511 59.249C73.6445 57.0834 71.4557 55.2535 68.9773 53.8754C62.2139 50.1231 53.5859 50.1231 46.8341 53.8754C44.3789 55.2419 42.1785 57.0718 40.3719 59.2374C38.5652 57.0718 36.3764 55.2419 33.9096 53.8754C27.1462 50.1231 18.5182 50.1231 11.7664 53.8754C4.51664 57.9172 0 65.5723 0 73.8644V78.7169C0 79.7361 0.833842 80.5699 1.85298 80.5699C2.87212 80.5699 3.70597 79.7361 3.70597 78.7169V73.8644C3.70597 66.9157 7.48142 60.4998 13.5731 57.1181C19.2247 53.9796 26.4513 53.9796 32.1145 57.1181C34.4886 58.4383 36.5385 60.2797 38.1714 62.4686C36.1679 65.9313 35.0561 69.8226 35.0561 73.8644V78.7169C35.0561 79.7361 35.89 80.5699 36.9091 80.5699C37.9282 80.5699 38.7621 79.7361 38.7621 78.7169V73.8644C38.7621 70.1121 39.8507 66.4757 41.9122 63.3603C41.9122 63.3603 41.9122 63.3603 41.9122 63.3488C43.6146 60.7662 45.9308 58.6236 48.6292 57.1297C54.2808 53.9912 61.5074 53.9912 67.1706 57.1297C69.5332 58.4383 71.583 60.2797 73.1928 62.4338C71.2124 65.8503 70.1122 69.7763 70.1122 73.8644V78.7169C70.1122 79.7361 70.9461 80.5699 71.9652 80.5699C72.9844 80.5699 73.8182 79.7361 73.8182 78.7169V73.8644C73.8182 66.9157 77.5937 60.4998 83.6853 57.1181C89.3369 53.9796 96.5751 53.968 102.227 57.1181C108.307 60.4998 112.094 66.9157 112.094 73.8644V78.7169C112.094 79.7361 112.928 80.5699 113.947 80.5699C114.966 80.5699 115.8 79.7361 115.8 78.7169V73.8644C115.811 65.5723 111.295 57.9172 104.033 53.8754Z" fill="#006F69"/>
<path d="M82.9442 69.0931C81.925 69.0931 81.0912 69.927 81.0912 70.9461V78.7171C81.0912 79.7362 81.925 80.57 82.9442 80.57C83.9633 80.57 84.7972 79.7362 84.7972 78.7171V70.9461C84.7972 69.9154 83.9633 69.0931 82.9442 69.0931Z" fill="#006F69"/>
<path d="M102.991 69.0931C101.972 69.0931 101.138 69.927 101.138 70.9461V78.7171C101.138 79.7362 101.972 80.57 102.991 80.57C104.01 80.57 104.844 79.7362 104.844 78.7171V70.9461C104.844 69.9154 104.01 69.0931 102.991 69.0931Z" fill="#006F69"/>
</svg>
