<svg width="89" height="111" viewBox="0 0 89 111" fill="none" xmlns="http://www.w3.org/2000/svg">
<g clip-path="url(#clip0_113_25)">
<path d="M88.555 0.177647C88.288 4.66295e-05 87.932 -0.0887534 87.576 4.66332e-05L72.535 5.32805V1.06565C72.535 0.710447 72.357 0.355247 72.09 0.177647C71.823 4.66295e-05 71.467 -0.0887534 71.111 4.66332e-05L56.07 5.32805V1.06565C56.07 0.710447 55.892 0.355247 55.625 0.177647C55.358 4.66295e-05 55.002 -0.0887534 54.646 4.66332e-05L39.605 5.32805V1.06565C39.605 0.710447 39.427 0.355247 39.16 0.177647C38.893 4.66295e-05 38.537 -0.0887534 38.181 4.66332e-05L0.801 11.544C0.267 11.7216 0 12.1656 0 12.6096V76.1016C0 76.5456 0.267 76.9896 0.801 77.1673L38.181 88.7113C38.27 88.7113 38.359 88.8 38.537 88.8C38.804 88.8 38.982 88.7113 39.16 88.6225C39.427 88.4448 39.605 88.0897 39.605 87.7345V83.472L54.646 88.7113C54.735 88.7113 54.913 88.8 55.002 88.8C55.18 88.8 55.447 88.7113 55.625 88.6225C55.892 88.4448 56.07 88.0897 56.07 87.7345V83.472L71.111 88.7113C71.2 88.7113 71.378 88.8 71.467 88.8C71.645 88.8 71.912 88.7113 72.09 88.6225C72.357 88.4448 72.535 88.0897 72.535 87.7345V83.472L87.576 88.7113C87.665 88.7113 87.843 88.8 87.932 88.8C88.11 88.8 88.377 88.7113 88.555 88.6225C88.822 88.4448 89 88.0897 89 87.7345V1.06565C89 0.710447 88.822 0.444047 88.555 0.177647ZM37.38 86.2248L2.136 75.3913V13.4088L37.38 2.57525V6.92645V82.0512V86.2248ZM53.845 86.2248L39.516 81.252V7.63685L53.845 2.66405V6.92645V82.0512V86.2248ZM70.399 86.2248L56.07 81.1632V7.63685L70.399 2.66405V6.92645V82.0512V86.2248ZM86.864 86.2248L72.535 81.252V7.63685L86.864 2.66405V86.2248Z" fill="#006F69"/>
</g>
<defs>
<clipPath id="clip0_113_25">
<rect width="89" height="111" fill="white"/>
</clipPath>
</defs>
</svg>
