<svg width="100" height="125" viewBox="0 0 100 125" fill="none" xmlns="http://www.w3.org/2000/svg">
<path fill-rule="evenodd" clip-rule="evenodd" d="M60.463 64.8449H56.651V69.6179H60.463V64.8449ZM55.62 62.7839H61.494C61.7674 62.7842 62.0294 62.8929 62.2227 63.0862C62.416 63.2795 62.5247 63.5416 62.525 63.8149V70.6479C62.5247 70.9213 62.416 71.1834 62.2227 71.3767C62.0294 71.57 61.7674 71.6787 61.494 71.6789H55.62C55.3467 71.6787 55.0848 71.5699 54.8916 71.3766C54.6985 71.1833 54.59 70.9212 54.59 70.6479V63.8149C54.59 63.5417 54.6985 63.2796 54.8916 63.0863C55.0848 62.8929 55.3467 62.7842 55.62 62.7839ZM73.22 64.8449H69.41V69.6179H73.223V64.8449H73.22ZM68.38 62.7839H74.254C74.5273 62.7842 74.7893 62.8929 74.9824 63.0863C75.1755 63.2796 75.284 63.5417 75.284 63.8149V70.6479C75.284 70.9212 75.1755 71.1833 74.9824 71.3766C74.7893 71.5699 74.5273 71.6787 74.254 71.6789H68.38C68.1066 71.6787 67.8446 71.57 67.6513 71.3767C67.458 71.1834 67.3493 70.9213 67.349 70.6479V63.8149C67.3493 63.5416 67.458 63.2795 67.6513 63.0862C67.8446 62.8929 68.1066 62.7842 68.38 62.7839ZM85.98 64.8449H82.17V69.6179H85.983V64.8449H85.98ZM81.136 62.7839H87.01C87.2834 62.7842 87.5454 62.8929 87.7387 63.0862C87.932 63.2795 88.0407 63.5416 88.041 63.8149V70.6479C88.0407 70.9213 87.932 71.1834 87.7387 71.3767C87.5454 71.57 87.2834 71.6787 87.01 71.6789H81.139C80.8657 71.6787 80.6038 71.5699 80.4106 71.3766C80.2175 71.1833 80.109 70.9212 80.109 70.6479V63.8149C80.109 63.5417 80.2175 63.2796 80.4106 63.0863C80.6038 62.8929 80.8657 62.7842 81.139 62.7839H81.136ZM60.463 51.3599H56.651V56.1319H60.463V51.3599ZM55.62 49.2999H61.494C61.7673 49.2999 62.0294 49.4084 62.2227 49.6016C62.416 49.7947 62.5247 50.0567 62.525 50.3299V57.1639C62.5247 57.4372 62.416 57.6992 62.2227 57.8923C62.0294 58.0855 61.7673 58.1939 61.494 58.1939H55.62C55.3468 58.1939 55.0848 58.0854 54.8917 57.8923C54.6985 57.6991 54.59 57.4371 54.59 57.1639V50.3289C54.59 50.0558 54.6985 49.7938 54.8917 49.6006C55.0848 49.4075 55.3468 49.2999 55.62 49.2999ZM73.22 51.3609H69.41V56.1329H73.223V51.3599L73.22 51.3609ZM68.38 49.2999H74.254C74.5272 49.2999 74.7892 49.4085 74.9823 49.6016C75.1755 49.7948 75.284 50.0568 75.284 50.3299V57.1639C75.284 57.4371 75.1755 57.6991 74.9823 57.8923C74.7892 58.0854 74.5272 58.1939 74.254 58.1939H68.38C68.1067 58.1939 67.8447 58.0855 67.6513 57.8923C67.458 57.6992 67.3493 57.4372 67.349 57.1639V50.3289C67.3495 50.0559 67.4584 49.7941 67.6517 49.6012C67.845 49.4083 68.1069 49.2999 68.38 49.2999ZM85.98 51.3609H82.17V56.1329H85.983V51.3599L85.98 51.3609ZM81.139 49.2999H87.013C87.2863 49.2999 87.5484 49.4084 87.7417 49.6016C87.935 49.7947 88.0437 50.0567 88.044 50.3299V57.1639C88.0437 57.4372 87.935 57.6992 87.7417 57.8923C87.5484 58.0855 87.2863 58.1939 87.013 58.1939H81.139C80.8658 58.1939 80.6038 58.0854 80.4107 57.8923C80.2175 57.6991 80.109 57.4371 80.109 57.1639V50.3289C80.109 50.0558 80.2175 49.7938 80.4107 49.6006C80.6038 49.4075 80.8658 49.2999 81.139 49.2999ZM60.463 37.8739H56.651V42.6469H60.463V37.8739ZM55.62 35.8129H61.494C61.7674 35.8132 62.0294 35.9219 62.2227 36.1152C62.416 36.3085 62.5247 36.5706 62.525 36.8439V43.6779C62.5247 43.9512 62.416 44.2132 62.2227 44.4063C62.0294 44.5995 61.7673 44.7079 61.494 44.7079H55.62C55.3468 44.7079 55.0848 44.5994 54.8917 44.4063C54.6985 44.2131 54.59 43.9511 54.59 43.6779V36.8439C54.59 36.5707 54.6985 36.3086 54.8916 36.1153C55.0848 35.9219 55.3467 35.8132 55.62 35.8129ZM73.22 37.8739H69.41V42.6469H73.223V37.8739H73.22ZM68.38 35.8129H74.254C74.5273 35.8132 74.7893 35.9219 74.9824 36.1153C75.1755 36.3086 75.284 36.5707 75.284 36.8439V43.6779C75.284 43.9511 75.1755 44.2131 74.9823 44.4063C74.7892 44.5994 74.5272 44.7079 74.254 44.7079H68.38C68.1067 44.7079 67.8447 44.5995 67.6513 44.4063C67.458 44.2132 67.3493 43.9512 67.349 43.6779V36.8439C67.3493 36.5706 67.458 36.3085 67.6513 36.1152C67.8446 35.9219 68.1066 35.8132 68.38 35.8129ZM85.98 37.8739H82.17V42.6469H85.983V37.8739H85.98ZM81.136 35.8129H87.01C87.2834 35.8132 87.5454 35.9219 87.7387 36.1152C87.932 36.3085 88.0407 36.5706 88.041 36.8439V43.6779C88.0407 43.9512 87.932 44.2132 87.7387 44.4063C87.5453 44.5995 87.2833 44.7079 87.01 44.7079H81.139C80.8658 44.7079 80.6038 44.5994 80.4107 44.4063C80.2175 44.2131 80.109 43.9511 80.109 43.6779V36.8439C80.109 36.5707 80.2175 36.3086 80.4106 36.1153C80.6038 35.9219 80.8657 35.8132 81.139 35.8129H81.136ZM60.463 24.3889H56.651V29.1609H60.463V24.3889ZM55.62 22.3279H61.494C61.7674 22.3279 62.0297 22.4366 62.223 22.6299C62.4164 22.8233 62.525 23.0855 62.525 23.3589V30.1919C62.5247 30.4653 62.416 30.7274 62.2227 30.9207C62.0294 31.114 61.7674 31.2227 61.494 31.2229H55.62C55.3467 31.2227 55.0848 31.1139 54.8916 30.9206C54.6985 30.7273 54.59 30.4652 54.59 30.1919V23.3589C54.5899 23.2236 54.6164 23.0896 54.6681 22.9645C54.7198 22.8394 54.7957 22.7257 54.8913 22.63C54.987 22.5342 55.1006 22.4583 55.2256 22.4064C55.3506 22.3546 55.4847 22.3279 55.62 22.3279ZM73.22 24.3889H69.41V29.1609H73.223V24.3889H73.22ZM68.38 22.3279H74.254C74.3893 22.3279 74.5234 22.3546 74.6484 22.4064C74.7734 22.4583 74.887 22.5342 74.9827 22.63C75.0783 22.7257 75.1542 22.8394 75.2059 22.9645C75.2576 23.0896 75.2841 23.2236 75.284 23.3589V30.1919C75.284 30.4652 75.1755 30.7273 74.9824 30.9206C74.7893 31.1139 74.5273 31.2227 74.254 31.2229H68.38C68.1066 31.2227 67.8446 31.114 67.6513 30.9207C67.458 30.7274 67.3493 30.4653 67.349 30.1919V23.3589C67.349 23.2235 67.3757 23.0895 67.4275 22.9644C67.4793 22.8393 67.5552 22.7257 67.651 22.6299C67.7467 22.5342 67.8604 22.4582 67.9855 22.4064C68.1105 22.3546 68.2446 22.3279 68.38 22.3279ZM85.98 24.3889H82.17V29.1609H85.983V24.3889H85.98ZM81.136 22.3279H87.01C87.2834 22.3279 87.5457 22.4366 87.739 22.6299C87.9324 22.8233 88.041 23.0855 88.041 23.3589V30.1919C88.0407 30.4653 87.932 30.7274 87.7387 30.9207C87.5454 31.114 87.2834 31.2227 87.01 31.2229H81.139C80.8657 31.2227 80.6038 31.1139 80.4106 30.9206C80.2175 30.7273 80.109 30.4652 80.109 30.1919V23.3589C80.1089 23.2236 80.1354 23.0896 80.1871 22.9645C80.2388 22.8394 80.3147 22.7257 80.4103 22.63C80.506 22.5342 80.6196 22.4583 80.7446 22.4064C80.8696 22.3546 81.0037 22.3279 81.139 22.3279H81.136ZM74.61 80.3529H68.023V88.8219H74.61V80.3529ZM58.981 79.7939C58.7716 79.5833 58.5043 79.4395 58.2131 79.3809C57.9219 79.3223 57.6198 79.3515 57.3452 79.4648C57.0706 79.578 56.8358 79.7703 56.6706 80.0172C56.5054 80.264 56.4172 80.5544 56.4172 80.8514C56.4172 81.1485 56.5054 81.4389 56.6706 81.6857C56.8358 81.9326 57.0706 82.1249 57.3452 82.2381C57.6198 82.3514 57.9219 82.3806 58.2131 82.322C58.5043 82.2634 58.7716 82.1196 58.981 81.9089C59.2604 81.6279 59.4172 81.2477 59.4172 80.8514C59.4172 80.4552 59.2604 80.075 58.981 79.7939ZM57.923 77.2939C57.0699 77.2945 56.2455 77.6014 55.5998 78.159C54.9541 78.7165 54.5303 79.4874 54.4054 80.3313C54.2806 81.1752 54.4631 82.0358 54.9197 82.7564C55.3763 83.4769 56.0766 84.0095 56.893 84.257V88.8219H49.693V17.2529H92.94V88.8219H76.671V80.3529H77.427C77.7004 80.3529 77.9627 80.2443 78.156 80.051C78.3494 79.8576 78.458 79.5954 78.458 79.3219C78.458 79.0485 78.3494 78.7863 78.156 78.5929C77.9627 78.3996 77.7004 78.2909 77.427 78.2909H65.206C64.9326 78.2909 64.6703 78.3996 64.477 78.5929C64.2836 78.7863 64.175 79.0485 64.175 79.3219C64.175 79.5954 64.2836 79.8576 64.477 80.051C64.6703 80.2443 64.9326 80.3529 65.206 80.3529H65.962V88.8219H58.954V84.257C59.7705 84.0095 60.4708 83.4768 60.9274 82.7562C61.384 82.0355 61.5664 81.1747 61.4415 80.3308C61.3165 79.4869 60.8925 78.7159 60.2466 78.1585C59.6008 77.601 58.7761 77.2942 57.923 77.2939ZM38.888 21.0899V16.2419H15.8V21.0899H38.888ZM77.15 15.1899V11.1779H65.484V15.1919L77.15 15.1899ZM63.423 15.1899V10.1479C63.4229 10.0126 63.4494 9.87855 63.5011 9.75347C63.5528 9.62839 63.6287 9.51473 63.7243 9.41898C63.82 9.32323 63.9336 9.24727 64.0586 9.19544C64.1836 9.14362 64.3177 9.11694 64.453 9.11694H78.18C78.4534 9.11694 78.7157 9.22557 78.909 9.41892C79.1024 9.61227 79.211 9.87451 79.211 10.1479V15.1919H93.971C94.2439 15.1925 94.5055 15.3012 94.6984 15.4943C94.8913 15.6873 94.9997 15.949 95 16.2219V89.8519C95 90.1254 94.8914 90.3876 94.698 90.581C94.5047 90.7743 94.2424 90.8829 93.969 90.8829H6.029C5.75591 90.8824 5.49418 90.7736 5.30127 90.5803C5.10835 90.387 5 90.125 5 89.8519V22.1209C5.00026 21.8479 5.1087 21.5862 5.30156 21.3929C5.49442 21.1997 5.75599 21.0907 6.029 21.0899H13.742V15.2109C13.742 15.0756 13.7687 14.9415 13.8205 14.8164C13.8723 14.6913 13.9482 14.5777 14.044 14.4819C14.1397 14.3862 14.2534 14.3102 14.3785 14.2584C14.5035 14.2066 14.6376 14.1799 14.773 14.1799H39.919C40.1923 14.1802 40.4542 14.2889 40.6474 14.4823C40.8405 14.6756 40.949 14.9377 40.949 15.2109V21.0899H47.632V16.2219C47.632 15.9488 47.7405 15.6868 47.9337 15.4936C48.1268 15.3005 48.3888 15.1919 48.662 15.1919L63.423 15.1899ZM16.492 31.3289H12.68V36.0999H16.492V31.3289ZM11.649 29.2679C11.5137 29.2679 11.3798 29.2946 11.2548 29.3463C11.1299 29.3981 11.0163 29.474 10.9207 29.5696C10.825 29.6653 10.7492 29.7788 10.6974 29.9038C10.6456 30.0287 10.619 30.1627 10.619 30.2979V37.1319C10.619 37.4052 10.7275 37.6673 10.9206 37.8606C11.1138 38.0539 11.3757 38.1627 11.649 38.1629H17.523C17.7964 38.1627 18.0584 38.054 18.2517 37.8607C18.445 37.6674 18.5537 37.4053 18.554 37.1319V30.2999C18.5537 30.0267 18.445 29.7647 18.2517 29.5716C18.0584 29.3784 17.7963 29.2699 17.523 29.2699L11.649 29.2679ZM29.249 31.3289H25.439V36.0999H29.252V31.3289H29.249ZM24.406 29.2679C24.1327 29.2679 23.8706 29.3764 23.6773 29.5696C23.484 29.7627 23.3753 30.0247 23.375 30.2979V37.1319C23.3753 37.4053 23.484 37.6674 23.6773 37.8607C23.8706 38.054 24.1326 38.1627 24.406 38.1629H30.28C30.5533 38.1627 30.8152 38.0539 31.0084 37.8606C31.2015 37.6673 31.31 37.4052 31.31 37.1319V30.2999C31.31 30.1647 31.2834 30.0307 31.2316 29.9058C31.1798 29.7808 31.104 29.6673 31.0083 29.5716C30.9127 29.476 30.7991 29.4001 30.6742 29.3483C30.5492 29.2966 30.4153 29.2699 30.28 29.2699L24.406 29.2679ZM42.006 31.3289H38.2V36.0999H42.013V31.3289H42.006ZM37.162 29.2679C37.0267 29.2679 36.8928 29.2946 36.7678 29.3463C36.6429 29.3981 36.5293 29.474 36.4337 29.5696C36.338 29.6653 36.2622 29.7788 36.2104 29.9038C36.1586 30.0287 36.132 30.1627 36.132 30.2979V37.1319C36.132 37.4052 36.2405 37.6673 36.4336 37.8606C36.6268 38.0539 36.8887 38.1627 37.162 38.1629H43.036C43.3094 38.1627 43.5714 38.054 43.7647 37.8607C43.958 37.6674 44.0667 37.4053 44.067 37.1319V30.2999C44.0667 30.0267 43.958 29.7647 43.7647 29.5716C43.5714 29.3784 43.3093 29.2699 43.036 29.2699L37.162 29.2679ZM7.06 42.6369H47.632V23.1509H7.06V42.6369ZM47.632 81.507H7.06V88.8219H47.632V81.507ZM37.532 79.4459H41.576V52.3289H37.531V79.4459H37.532ZM25.325 79.4459H29.369V52.3289H25.324V79.4459H25.325ZM13.118 79.4459H17.162V52.3289H13.117V79.4459H13.118ZM7.061 79.4459H11.061V51.2999C11.0609 51.1646 11.0874 51.0306 11.1391 50.9055C11.1908 50.7804 11.2667 50.6667 11.3623 50.571C11.458 50.4752 11.5716 50.3993 11.6966 50.3474C11.8216 50.2956 11.9557 50.2689 12.091 50.2689H18.191C18.3264 50.2688 18.4606 50.2954 18.5857 50.3472C18.7108 50.3989 18.8246 50.4749 18.9203 50.5706C19.0161 50.6664 19.092 50.7801 19.1438 50.9052C19.1956 51.0304 19.2221 51.1645 19.222 51.2999V79.4459H23.263V51.2999C23.2629 51.1646 23.2894 51.0306 23.3411 50.9055C23.3928 50.7804 23.4687 50.6667 23.5643 50.571C23.66 50.4752 23.7736 50.3993 23.8986 50.3474C24.0236 50.2956 24.1577 50.2689 24.293 50.2689H30.4C30.6731 50.2695 30.9348 50.3783 31.1277 50.5716C31.3207 50.7649 31.429 51.0269 31.429 51.2999V79.4459H35.47V51.2999C35.4699 51.1646 35.4964 51.0306 35.5481 50.9055C35.5998 50.7804 35.6757 50.6667 35.7713 50.571C35.867 50.4752 35.9806 50.3993 36.1056 50.3474C36.2306 50.2956 36.3647 50.2689 36.5 50.2689H42.6C42.7358 50.2683 42.8704 50.2945 42.9961 50.346C43.1217 50.3975 43.236 50.4733 43.3323 50.5691C43.4285 50.6649 43.5049 50.7788 43.557 50.9042C43.6092 51.0297 43.636 51.1641 43.636 51.2999V79.4459H47.636V44.6999H7.06L7.061 79.4459Z" fill="#006F69"/>
</svg>
